<?xml version="1.0" encoding="utf-8"?>
<!-- Generator: Adobe Illustrator 22.1.0, SVG Export Plug-In . SVG Version: 6.00 Build 0)  -->
<svg version="1.1" xmlns="http://www.w3.org/2000/svg" xmlns:xlink="http://www.w3.org/1999/xlink" x="0px" y="0px"
	 viewBox="0 0 1600 1600" style="enable-background:new 0 0 1600 1600;" xml:space="preserve">
<style type="text/css">
	.st0{fill:#FFFFFF;}
</style>
<g id="Layer_1">
	<title>splash</title>
	<g id="cfb1f1bc-985d-4f8f-9126-091dd67efc72">
		<rect width="1600" height="1600"/>
	</g>
	<g id="_x36_90dd871-3cef-4ca9-9ed4-69c56208ba0e">
		<path class="st0" d="M1150,235.6l-0.8,459.4c0,38.8-25.9,63.9-63.3,74.3l-403.3,98.2v71.2L510,980.6V313.1
			c-0.6-46,31.6-77.5,79.6-77.5H1150z M682.7,408.2v282.9l294.7-70.6V408.2H682.7z"/>
		<path class="st0" d="M368.5,1103.9c-29.8,0-55,11.3-71.5,31.9v-29.9h-38.3v258.4h39.8v-78.4c16.8,19.9,41.5,30.9,70,30.9
			c61.7,0,104.8-43.8,104.8-106.6C473.2,1147.6,430.1,1103.9,368.5,1103.9z M365.4,1281.4c-39.6,0-67.3-29.3-67.3-71.2
			c0-41.7,27.7-70.8,67.3-70.8c39.9,0,67.7,29.1,67.7,70.8C433.1,1252.1,405.2,1281.4,365.4,1281.4L365.4,1281.4z M622.7,1103.9
			c-29.7,0-54.7,10.1-70.7,28.6V1049h-39.8v265.4H552V1207c0-42.6,23.1-67,63.5-67c35.2,0,53.8,20.3,53.8,58.8v115.5H709v-119.7
			c0-29.6-8.1-52.6-24.2-68.4C670,1111.6,648.5,1103.9,622.7,1103.9z M855.4,1103.9c-62.5,0-107.9,44.7-107.9,106.2
			c0,61.8,45.4,106.6,107.9,106.6c62.3,0,107.5-44.8,107.5-106.6C962.9,1148.6,917.7,1103.9,855.4,1103.9z M855.4,1281.4
			c-39.8,0-67.7-29.3-67.7-71.2c0-41.7,27.8-70.8,67.7-70.8c39.6,0,67.3,29.1,67.3,70.8C922.7,1252.1,895,1281.4,855.4,1281.4z
			 M1040.1,1136.8v-30.9h-38.3v208.6h39.8v-103.9c0-43.3,23-68.1,63.1-68.1c2.8-0.1,5.6,0.1,8.3,0.4l1.6,0.2v-39.1h-1.4
			C1079.2,1103.9,1054,1115.3,1040.1,1136.8z M1230.9,1103.9c-60.3,0-104,44.7-104,106.2c0,62.8,45.8,106.6,111.3,106.6
			c34.6,0,62.8-11.7,81.7-33.9l0.8-0.9l-22.2-26.2l-1,1.2c-14.6,16.2-34.1,24.4-58,24.4c-39,0-67.3-22.5-72.5-57.4h165.6l0.1-1.2
			c0.4-3.4,0.8-8.2,0.8-11.4C1333.4,1148.1,1291.2,1103.9,1230.9,1103.9z M1166.9,1194.4c4.4-33.7,30-56.2,64-56.2
			s59.6,22.5,64,56.2H1166.9z"/>
	</g>
</g>
<g id="Layer_2">
	<g>
		<path class="st0" d="M670.8,1424.2l25.3,11.3v-4.9l-4.1-1.7c-2.7-1.1-5.7-2.4-9.1-3.9c-3.4-1.5-5.8-2.5-7.1-3.2
			c3-1.4,9.7-4.3,20.3-8.6v-4.9l-25.3,11.3V1424.2z"/>
		<polygon class="st0" points="700.1,1406.2 711,1406.2 711,1442.4 715.9,1442.4 715.9,1406.2 726.8,1406.2 726.8,1402 700.1,1402 
					"/>
		<path class="st0" d="M744,1411.6c-4,0-7.2,1.4-9.7,4.2c-2.5,2.8-3.8,6.6-3.8,11.5c0,4.6,1.4,8.4,4.2,11.2
			c2.8,2.8,6.5,4.2,11.1,4.2c3.4,0,6.3-0.6,8.6-1.9v-4.4c-2,1.4-4.8,2.1-8.2,2.1c-3.1,0-5.6-0.8-7.6-2.4c-1.9-1.6-3.1-3.9-3.4-6.9
			h20.8c0.2-1.1,0.3-2.3,0.3-3.5c0-4.5-1.1-7.9-3.4-10.4C750.9,1412.9,747.8,1411.6,744,1411.6z M751.7,1425.3h-16.3
			c0.3-3,1.2-5.4,2.8-7c1.6-1.6,3.5-2.5,5.8-2.5c2.4,0,4.3,0.8,5.6,2.2c1.4,1.5,2,3.5,2,6V1425.3z"/>
		<path class="st0" d="M773.8,1425.4c-1.3-0.6-2.1-0.9-2.5-1.1c-0.4-0.2-1-0.5-1.8-1c-0.8-0.5-1.4-1.1-1.6-1.6
			c-0.3-0.5-0.4-1.2-0.4-1.9c0-1.2,0.5-2.1,1.4-2.8c0.9-0.7,2.2-1.1,3.8-1.1c3.2,0,5.7,0.6,7.6,1.7v-4.5c-1.9-0.9-4.5-1.3-7.6-1.3
			c-2.8,0-5.2,0.8-7.1,2.2c-1.9,1.5-2.9,3.5-2.9,6c0,2.2,0.7,4,2.1,5.3c1.4,1.3,3.2,2.4,5.5,3.3c2.5,1,4.2,1.9,5.3,2.7
			c1.1,0.8,1.6,1.9,1.6,3.4c0,1.2-0.5,2.2-1.4,2.9s-2.4,1.1-4.2,1.1c-3.1,0-6-0.8-8.6-2.4v4.6c2.3,1.2,5.3,1.9,8.9,1.9
			c3.2,0,5.6-0.8,7.5-2.3c1.8-1.5,2.7-3.6,2.7-6.2c0-2.2-0.7-4-2.2-5.3C778.4,1427.7,776.4,1426.5,773.8,1425.4z"/>
		<path class="st0" d="M794.9,1433.7v-17.8h8.4v-3.8h-8.4v-7.6h-4.7v7.6h-4.9v3.8h4.9v17.7c0,6.1,3,9.2,9,9.2c1.6,0,3.1-0.4,4.4-1.1
			v-4.5c-1.2,0.9-2.6,1.4-4.1,1.4C796.4,1438.5,794.9,1436.9,794.9,1433.7z"/>
		<path class="st0" d="M837,1419.1c0,7.8,0.1,13.6,0.2,17.5L827,1419l-10.1-17h-6.1v40.4h4.9v-17c0-7.6-0.1-13.4-0.3-17.6l1,1.9
			c0.7,1.3,1.9,3.4,3.7,6.3c1.7,2.9,3.6,6.1,5.6,9.5l10.1,16.9h6.1V1402H837V1419.1z"/>
		<path class="st0" d="M862.6,1411.6c-4,0-7.2,1.4-9.7,4.2c-2.5,2.8-3.8,6.6-3.8,11.5c0,4.6,1.4,8.4,4.2,11.2
			c2.8,2.8,6.5,4.2,11.1,4.2c3.4,0,6.3-0.6,8.6-1.9v-4.4c-2,1.4-4.8,2.1-8.2,2.1c-3.1,0-5.6-0.8-7.6-2.4c-1.9-1.6-3.1-3.9-3.4-6.9
			h20.8c0.2-1.1,0.3-2.3,0.3-3.5c0-4.5-1.1-7.9-3.4-10.4C869.4,1412.9,866.4,1411.6,862.6,1411.6z M870.3,1425.3h-16.3
			c0.3-3,1.2-5.4,2.8-7c1.6-1.6,3.5-2.5,5.8-2.5c2.4,0,4.3,0.8,5.6,2.2c1.4,1.5,2,3.5,2,6V1425.3z"/>
		<path class="st0" d="M888.7,1433.7v-17.8h8.4v-3.8h-8.4v-7.6H884v7.6h-4.9v3.8h4.9v17.7c0,6.1,3,9.2,9,9.2c1.6,0,3.1-0.4,4.4-1.1
			v-4.5c-1.2,0.9-2.6,1.4-4.1,1.4C890.3,1438.5,888.7,1436.9,888.7,1433.7z"/>
		<path class="st0" d="M902.9,1408.4v4.9l4.1,1.7c2.7,1.1,5.8,2.4,9.1,3.8c3.4,1.4,5.7,2.5,7,3.1c-3,1.5-9.7,4.4-20.2,8.8v4.9
			l25.3-11.3v-4.6L902.9,1408.4z"/>
	</g>
</g>
</svg>
