<svg xmlns="http://www.w3.org/2000/svg" viewBox="0 0 1600 1600"><title>splash</title><g id="cfb1f1bc-985d-4f8f-9126-091dd67efc72" data-name="BG"><rect x="-0.5" y="-0.5" width="1600" height="1600" style="fill:#132232;stroke:#000;stroke-miterlimit:10"/></g><g id="690dd871-3cef-4ca9-9ed4-69c56208ba0e" data-name="Logo"><path d="M1140,235.56l-.79,459.36c0,38.84-25.87,63.86-63.29,74.33L672.66,867.47v71.22L500,980.61V313.09c-.57-46,31.62-77.53,79.61-77.53ZM672.66,408.22V691.17l294.68-70.59V408.22Z" style="fill:#00d188"/><path d="M372.45,1103.91c-29.8,0-55,11.28-71.55,31.86v-29.91H262.64v258.4h39.8v-78.37c16.79,19.93,41.49,30.86,70,30.86,61.7,0,104.79-43.84,104.79-106.61C477.24,1147.6,434.15,1103.91,372.45,1103.91Zm-3.09,177.45c-39.63,0-67.31-29.29-67.31-71.22,0-41.71,27.68-70.84,67.31-70.84,39.86,0,67.7,29.13,67.7,70.84C437.06,1252.07,409.22,1281.36,369.36,1281.36Zm257.38-177.45C597,1103.91,572,1114,556,1132.52V1049h-39.8v265.39H556V1207c0-42.55,23.13-67,63.45-67,35.2,0,53.8,20.33,53.8,58.8v115.54H713V1194.61c0-29.57-8.14-52.57-24.19-68.36C674,1111.64,652.5,1103.91,626.74,1103.91Zm232.68,0c-62.51,0-107.88,44.68-107.88,106.23,0,61.77,45.37,106.61,107.88,106.61,62.29,0,107.5-44.84,107.5-106.61C966.92,1148.59,921.71,1103.91,859.42,1103.91Zm0,177.45c-39.85,0-67.69-29.29-67.69-71.22,0-41.71,27.84-70.84,67.69-70.84,39.63,0,67.31,29.13,67.31,70.84C926.73,1252.07,899.05,1281.36,859.42,1281.36Zm184.68-144.58v-30.92h-38.26v208.56h39.8V1210.53c0-43.29,23-68.12,63.06-68.12a62.91,62.91,0,0,1,8.32.38l1.55.19v-39.07h-1.38C1083.17,1103.91,1058,1115.26,1044.1,1136.78Zm190.78-32.87c-60.27,0-104,44.68-104,106.23,0,62.77,45.79,106.61,111.35,106.61,34.57,0,62.82-11.72,81.7-33.88l.77-.9-22.24-26.17-1,1.17c-14.59,16.18-34.11,24.39-58,24.39-39,0-67.29-22.48-72.5-57.41h165.57l.14-1.23c.38-3.42.78-8.21.78-11.42C1337.36,1148.07,1295.22,1103.91,1234.88,1103.91Zm-64,90.48c4.4-33.71,30-56.25,64-56.25s59.6,22.53,64,56.25Z" style="fill:#fff"/></g></svg>