<?xml version="1.0" encoding="utf-8"?>
<!-- Generator: Adobe Illustrator 22.1.0, SVG Export Plug-In . SVG Version: 6.00 Build 0)  -->
<svg version="1.1" id="Layer_1" xmlns="http://www.w3.org/2000/svg" xmlns:xlink="http://www.w3.org/1999/xlink" x="0px" y="0px"
	 viewBox="0 0 1600 1600" style="enable-background:new 0 0 1600 1600;" xml:space="preserve">
<style type="text/css">
	.st0{fill:#132232;}
	.st1{fill:#00D188;}
	.st2{fill:#FFFFFF;}
</style>
<title>splash</title>
<g id="cfb1f1bc-985d-4f8f-9126-091dd67efc72">
	<rect class="st0" width="1600" height="1600"/>
</g>
<g id="_x36_90dd871-3cef-4ca9-9ed4-69c56208ba0e">
	<path class="st1" d="M1150,235.6l-0.8,459.4c0,38.8-25.9,63.9-63.3,74.3l-403.3,98.2v71.2L510,980.6V313.1
		c-0.6-46,31.6-77.5,79.6-77.5H1150z M682.7,408.2v282.9l294.7-70.6V408.2H682.7z"/>
	<path class="st2" d="M368.5,1103.9c-29.8,0-55,11.3-71.5,31.9v-29.9h-38.3v258.4h39.8v-78.4c16.8,19.9,41.5,30.9,70,30.9
		c61.7,0,104.8-43.8,104.8-106.6C473.2,1147.6,430.1,1103.9,368.5,1103.9z M365.4,1281.4c-39.6,0-67.3-29.3-67.3-71.2
		c0-41.7,27.7-70.8,67.3-70.8c39.9,0,67.7,29.1,67.7,70.8C433.1,1252.1,405.2,1281.4,365.4,1281.4L365.4,1281.4z M622.7,1103.9
		c-29.7,0-54.7,10.1-70.7,28.6V1049h-39.8v265.4H552V1207c0-42.6,23.1-67,63.5-67c35.2,0,53.8,20.3,53.8,58.8v115.5H709v-119.7
		c0-29.6-8.1-52.6-24.2-68.4C670,1111.6,648.5,1103.9,622.7,1103.9z M855.4,1103.9c-62.5,0-107.9,44.7-107.9,106.2
		c0,61.8,45.4,106.6,107.9,106.6c62.3,0,107.5-44.8,107.5-106.6C962.9,1148.6,917.7,1103.9,855.4,1103.9z M855.4,1281.4
		c-39.8,0-67.7-29.3-67.7-71.2c0-41.7,27.8-70.8,67.7-70.8c39.6,0,67.3,29.1,67.3,70.8C922.7,1252.1,895,1281.4,855.4,1281.4z
		 M1040.1,1136.8v-30.9h-38.3v208.6h39.8v-103.9c0-43.3,23-68.1,63.1-68.1c2.8-0.1,5.6,0.1,8.3,0.4l1.6,0.2v-39.1h-1.4
		C1079.2,1103.9,1054,1115.3,1040.1,1136.8z M1230.9,1103.9c-60.3,0-104,44.7-104,106.2c0,62.8,45.8,106.6,111.3,106.6
		c34.6,0,62.8-11.7,81.7-33.9l0.8-0.9l-22.2-26.2l-1,1.2c-14.6,16.2-34.1,24.4-58,24.4c-39,0-67.3-22.5-72.5-57.4h165.6l0.1-1.2
		c0.4-3.4,0.8-8.2,0.8-11.4C1333.4,1148.1,1291.2,1103.9,1230.9,1103.9z M1166.9,1194.4c4.4-33.7,30-56.2,64-56.2s59.6,22.5,64,56.2
		H1166.9z"/>
</g>
</svg>
