/* XPM */
static char *bitcoin32[] = {
/* columns rows colors chars-per-pixel */
"32 32 3 1 ",
"  c None",
". c #051937",
"X c #989696",
/* pixels */
"                                ",
"                                ",
"                                ",
"                                ",
"                                ",
"           .                    ",
"           ............         ",
"           ............         ",
"            ............        ",
"        X   ....    ....        ",
"       XXX   ....    ....       ",
"       XXX   ....    ....       ",
"      XXXX    ....    ....      ",
"     XXXX      ....    ....     ",
"     XXXX      ....    ....     ",
"    XXXX        ....    ....    ",
"    XXXX        ....    ....    ",
"     XXXX      ....    ....     ",
"     XXXX      ....    ....     ",
"      XXXX    ....    ....      ",
"       XXX   ....    ....       ",
"       XXX   ....    ....       ",
"        X   ....    ....        ",
"            ............        ",
"           ............         ",
"           ............         ",
"           .                    ",
"                                ",
"                                ",
"                                ",
"                                ",
"                                "
};
