/* XPM */
static char *_efa2845e1cd48e1e06fb4baa3013f21[] = {
/* columns rows colors chars-per-pixel */
"128 128 42 1 ",
"  c #00A56C",
". c #0DA36A",
"X c #00AA6E",
"o c #0BAA6E",
"O c #12A46C",
"+ c #1CA56E",
"@ c #12A96F",
"# c #01AE71",
"$ c #0BAC71",
"% c #15A770",
"& c #1BA770",
"* c #14A971",
"= c #1CA872",
"- c #00B073",
"; c #0AB074",
": c #00B979",
"> c #24A56D",
", c #30A66F",
"< c #24A671",
"1 c #2AA672",
"2 c #24A973",
"3 c #2AA975",
"4 c #3AA670",
"5 c #3BA876",
"6 c #15BE85",
"7 c #05C183",
"8 c #0AC187",
"9 c #0AC588",
"0 c #00CD8D",
"q c #09CE8E",
"w c #00D18F",
"e c #01CE91",
"r c #0DCF92",
"t c #13CE92",
"y c #00D391",
"u c #0BD394",
"i c #00D994",
"p c #00D599",
"a c #00DF98",
"s c #13D095",
"d c #24D096",
"f c None",
/* pixels */
"ffffffffffffffffffffffffffffffffffffffffffffffffffffffffffffffffffffffffffffffffffffffffffffffffffffffffffffffffffffffffffffffff",
"ffffffffffffffffffffffffffffffffffffffffffffffffffffffffffffffffffffffffffffffffffffffffffffffffffffffffffffffffffffffffffffffff",
"ffffffffffffffffffffffffffffffffffffffffffffffffffffffffffffffffffffffffffffffffffffffffffffffffffffffffffffffffffffffffffffffff",
"ffffffffffffffffffffffffffffffffffffffffffffffffffffffffffffffffffffffffffffffffffffffffffffffffffffffffffffffffffffffffffffffff",
"ffffffffffffffffffffffffffffffffffffffffffffffffffffffffffffffffffffffffffffffffffffffffffffffffffffffffffffffffffffffffffffffff",
"ffffffffffffffffffffffffffffffffffffffffffffffffffffffffffffffffffffffffffffffffffffffffffffffffffffffffffffffffffffffffffffffff",
"ffffffffffffffffffffffffffffffffffffffffffffffffffffffffffffffffffffffffffffffffffffffffffffffffffffffffffffffffffffffffffffffff",
"fffffffffffffffffffffffffffffffffffffffffffffffffffffffffffffff+0yffffffffffffffffffffffffffffffffffffffffffffffffffffffffffffff",
"fffffffffffffffffffffffffffffffffffffffffffffffffffffffffffff+$.7ieyffffffffffffffffffffffffffffffffffffffffffffffffffffffffffff",
"fffffffffffffffffffffffffffffffffffffffffffffffffffffffffff%   O700ywfffffffffffffffffffffffffffffffffffffffffffffffffffffffffff",
"fffffffffffffffffffffffffffffffffffffffffffffffffffffffff2o#   O7w00wi0fffffffffffffffffffffffffffffffffffffffffffffffffffffffff",
"ffffffffffffffffffffffffffffffffffffffffffffffffffffffff -     .7e000ewwefffffffffffffffffffffffffffffffffffffffffffffffffffffff",
"ffffffffffffffffffffffffffffffffffffffffffffffffffffff<$XX     O7we00000yqqfffffffffffffffffffffffffffffffffffffffffffffffffffff",
"ffffffffffffffffffffffffffffffffffffffffffffffffffff3@#        O7w000000eeiqffffffffffffffffffffffffffffffffffffffffffffffffffff",
"fffffffffffffffffffffffffffffffffffffffffffffffffff%#          O700000000e0wieffffffffffffffffffffffffffffffffffffffffffffffffff",
"fffffffffffffffffffffffffffffffffffffffffffffffffo#            O700000000000eyysffffffffffffffffffffffffffffffffffffffffffffffff",
"fffffffffffffffffffffffffffffffffffffffffffffff1o              .7w0000000000000wqeffffffffffffffffffffffffffffffffffffffffffffff",
"fffffffffffffffffffffffffffffffffffffffffffff=&#               .7w00000000000000wi0fffffffffffffffffffffffffffffffffffffffffffff",
"ffffffffffffffffffffffffffffffffffffffffffffo#                 O8e00000000000000e0wiefffffffffffffffffffffffffffffffffffffffffff",
"ffffffffffffffffffffffffffffffffffffffffff&#X            .     O7w000000000000000000yeefffffffffffffffffffffffffffffffffffffffff",
"ffffffffffffffffffffffffffffffffffffffff%XX                    O7000000000000000000000ieffffffffffffffffffffffffffffffffffffffff",
"ffffffffffffffffffffffffffffffffffffff*.#                      O70000000000000000000000wiwffffffffffffffffffffffffffffffffffffff",
"fffffffffffffffffffffffffffffffffffff@#                        O7000000000000000000000000wyeffffffffffffffffffffffffffffffffffff",
"fffffffffffffffffffffffffffffffffff$$X                         O70000000000000000000000000eyeuffffffffffffffffffffffffffffffffff",
"fffffffffffffffffffffffffffffffff3 $                           oqy000000000000000000000000000w0fffffffffffffffffffffffffffffffff",
"ffffffffffffffffffffffffffffffff X                           #$,feiw0e0000000000000000000000000iefffffffffffffffffffffffffffffff",
"ffffffffffffffffffffffffffffff%#                           X# fffffwi000000000000000000000000000ywtfffffffffffffffffffffffffffff",
"ffffffffffffffffffffffffffff2XX                           ->ffffffffwwye000000000000000000000000e0i0ufffffffffffffffffffffffffff",
"ffffffffffffffffffffffffff3 #                           #@ fffffffffffeyw00000000000000000000000000wiqffffffffffffffffffffffffff",
"fffffffffffffffffffffffff%#                           X.4fffffffffffffffeie0000000000000000000000000ewyeffffffffffffffffffffffff",
"fffffffffffffffffffffff&#X                          X#.ffffffffffffffffffqei0e000000000000000000000000eyeeffffffffffffffffffffff",
"fffffffffffffffffffff=XX                           #&ffffffffffffffffffffffywy000000000000000000000000000iefffffffffffffffffffff",
"fffffffffffffffffff=%#                           #O1fffffffffffffffffffffffffeiw0e0000000000000000000000000y0fffffffffffffffffff",
"ffffffffffffffffff2#                            #<fffffffffffffffffffffffffffffey000000000000000000000000000wiefffffffffffffffff",
"ffffffffffffffff<X                            #&fffffffffffffffffffffffffffffffft0i0000000000000000000000000w0i0efffffffffffffff",
"fffffffffffffff$                            #o=fffffffffffffffffffffffffffffffffffyww000000000000000000000000000aeffffffffffffff",
"fffffffffffffff;                          X$3fffffffffffffffffffffffffffffffffffffffriw0000000000000000000000000e0ffffffffffffff",
"fffffffffffffff;                        X$=ffffffffffffffffffffffffffffffffffffffffffrei000000000000000000000000w0ffffffffffffff",
"fffffffffffffff;                       #%ffffffffffffffffffffffffffffffffffffffffffffffwww0000000000000000000000w0ffffffffffffff",
"fffffffffffffff;                      O2fffffffffffffffffffffffffffffffffffffffffffffffffwi00e000000000000000000weffffffffffffff",
"fffffffffffffff;                   Xo%fffffffffffffffffffffffffffffffffffffffffffffffffffffwie000000000000000000w0ffffffffffffff",
"fffffffffffffff;                  #$ffffffffffffffffffffffffffffffffffffffffffffffffffffffffy0ye0000000000000000weffffffffffffff",
"fffffffffffffff;                - ffffffffffffffffffffffffffffffffffffffffffffffffffffffffffffeyw000000000000000weffffffffffffff",
"fffffffffffffff;              Xo3ffffffffffffffffffffffffffffff>7pffffffffffffffffffffffffffffffqy00000000000000w0ffffffffffffff",
"fffffffffffffff;             X ffffffffffffffffffffffffffffff+ o7aqffffffffffffffffffffffffffffffwe0000000000000w0ffffffffffffff",
"fffffffffffffff-             -Xfffffffffffffffffffffffffffff X .7wwwefffffffffffffffffffffffffffff0w000000000000weffffffffffffff",
"fffffffffffffff-             - fffffffffffffffffffffffffff&$   .7w00wqtfffffffffffffffffffffffffffew000000000000w0ffffffffffffff",
"fffffffffffffff-            X- fffffffffffffffffffffffff=X#    .7w00eeieffffffffffffffffffffffffff0w000000000000weffffffffffffff",
"fffffffffffffff-X            # fffffffffffffffffffffff%        .70000000ywffffffffffffffffffffffff0w000000000000w0ffffffffffffff",
"fffffffffffffff-             - ffffffffffffffffffffff%;        .7e0000000wweffffffffffffffffffffff0w000000000000yeffffffffffffff",
"fffffffffffffff-             - ffffffffffffffffffff2#X         .70000000000ieqffffffffffffffffffff0w000000000000w0ffffffffffffff",
"fffffffffffffff-             -Xffffffffffffffffff2 #           .700000000000eiwfffffffffffffffffff00700000000000weffffffffffffff",
"fffffffffffffff-             -Xfffffffffffffffff #             .:y0000000000e0wyefffffffffffffffffww000000000000weffffffffffffff",
"fffffffffffffff-             - fffffffffffffff2$X              .7w00000000000000widfffffffffffffffew000000000000w0ffffffffffffff",
"fffffffffffffff-             - fffffffffffffffX                .7e000000000000000wefffffffffffffff0w000000000000w0ffffffffffffff",
"fffffffffffffff-             - fffffffffffffff                 .7e00000000000000ewefffffffffffffff0w000000000000weffffffffffffff",
"fffffffffffffff:             -Xfffffffffffffff                 .70700000000000000wwfffffffffffffff0w000000000000w0ffffffffffffff",
"fffffffffffffff-             - fffffffffffffff                 .7000000000000000wwwfffffffffffffff0w000000000000weffffffffffffff",
"fffffffffffffff-             - fffffffffffffff                 .70000000000000000iefffffffffffffffew000000000000weffffffffffffff",
"fffffffffffffff-             - fffffffffffffff                 .7w000000000000000wefffffffffffffff0w000000000000w0ffffffffffffff",
"fffffffffffffff-             XXfffffffffffffff                 .70000000000000000wwfffffffffffffff0w000000000000w0ffffffffffffff",
"fffffffffffffff-             X fffffffffffffff                 .70000000000000000iefffffffffffffff0w000000000000weffffffffffffff",
"fffffffffffffff-             - fffffffffffffff                 .70000000000000000ywfffffffffffffff00000000000000w0ffffffffffffff",
"fffffffffffffff-             -Xfffffffffffffff                 .70000000000000000yefffffffffffffff0w00000000000eweffffffffffffff",
"fffffffffffffff-             - fffffffffffffff                 .70000000000000000wwfffffffffffffff0w00000000000000ffffffffffffff",
"fffffffffffffff-             - fffffffffffffff                 .70000000000000000iwfffffffffffffff0w00000000000000ffffffffffffff",
"fffffffffffffff:             -Xfffffffffffffff                 .70000000000000000yefffffffffffffffew000000000000w0ffffffffffffff",
"fffffffffffffff-             - fffffffffffffff                 .70000000000000000wefffffffffffffff0w000000000000weffffffffffffff",
"fffffffffffffff-             - fffffffffffffff                 .70000000000000000ywfffffffffffffff0w000000000000weffffffffffffff",
"fffffffffffffff-             - fffffffffffffff                 .7000000000000000wyefffffffffffffff0w000000000000w0ffffffffffffff",
"fffffffffffffff-             - fffffffffffffff                 .7w000000000000000ywfffffffffffffff00000000000000w0ffffffffffffff",
"fffffffffffffff-            X- fffffffffffffff                 .70000000000000000yefffffffffffffff0w000000000000weffffffffffffff",
"fffffffffffffff-             - fffffffffffffff                 .70000000000000000wefffffffffffffffew000000000000w0ffffffffffffff",
"fffffffffffffff-             # fffffffffffffff                 .7000000007000000ey0fffffffffffffff0w000000000000weffffffffffffff",
"fffffffffffffff-             - fffffffffffffffXX               .7000000000000000eaqfffffffffffffff0w000000000000weffffffffffffff",
"fffffffffffffff-             -Xffffffffffffffff2               .700000000000000yytffffffffffffffff0w000000000000w0ffffffffffffff",
"fffffffffffffff-             - fffffffffffffffff2%-            .70000000000000i0ffffffffffffffffff0w000000000000w0ffffffffffffff",
"fffffffffffffff-             -Xfffffffffffffffffffo#           .70000000000ei0ffffffffffffffffffff0w000000000000weffffffffffffff",
"fffffffffffffff-             - fffffffffffffffffffff<#         .7000000000yqifffffffffffffffffffffew000000000000w0ffffffffffffff",
"fffffffffffffffX             - fffffffffffffffffffffff.X       .70000000wiefffffffffffffffffffffff0w000000000000weffffffffffffff",
"fffffffffffffff-            X- ffffffffffffffffffffffff .#     .7000000iefffffffffffffffffffffffff00000000000000w0ffffffffffffff",
"fffffffffffffff-             - ffffffffffffffffffffffffff2$X   .70000yquffffffffffffffffffffffffff00000000000000yeffffffffffffff",
"fffffffffffffff-             - ffffffffffffffffffffffffffffo#  .700wuyffffffffffffffffffffffffffff00000000000000w0ffffffffffffff",
"fffffffffffffff-             - fffffffffffffffffffffffffffff3oX.7wieffffffffffffffffffffffffffffff00000000000000weffffffffffffff",
"fffffffffffffff-             XXfffffffffffffffffffffffffffffff&o0yfffffffffffffffffffffffffffffffye0000000000000weffffffffffffff",
"fffffffffffffff-             # fffffffffffffffffffffffffffffffff6ffffffffffffffffffffffffffffffwiw00000000000000w0ffffffffffffff",
"fffffffffffffff-             - ffffffffffffffffffffffffffffffffffffffffffffffffffffffffffffffwww0000000000000000w0ffffffffffffff",
"fffffffffffffff-             # fffffffffffffffffffffffffffffffffffffffffffffffffffffffffffffei000000000000000000weffffffffffffff",
"fffffffffffffff-             -Xfffffffffffffffffffffffffffffffffffffffffffffffffffffffffffqi00000000000000000000w0ffffffffffffff",
"fffffffffffffff-             - fffffffffffffffffffffffffffffffffffffffffffffffffffffffffeywe00000000000000000000weffffffffffffff",
"fffffffffffffff:             - fffffffffffffffffffffffffffffffffffffffffffffffffffffffe0i00000000000000000000000weffffffffffffff",
"fffffffffffffff-             -Xffffffffffffffffffffffffffffffffffffffffffffffffffffff0iw000000000000000000000000e0ffffffffffffff",
"fffffffffffffff:             - ffffffffffffffffffffffffffffffffffffffffffffffffffffwiw0000000000000000000000000eweffffffffffffff",
"fffffffffffffff2$X           - ffffffffffffff%.fffffffffffffffffffffffffffffffffftww00000000000000000000000000ei0fffffffffffffff",
"fffffffffffffffff1$X         -Xffffffffffffff :$>ffffffffffffffffffffffffffffffeei000000000000000000000000000wwqffffffffffffffff",
"fffffffffffffffffff $        - ffffffffffffff # #%1fffffffffffffffffffffffffffeie00000000000000000000000000wiwffffffffffffffffff",
"ffffffffffffffffffff2 #      - ffffffffffffffX-   -%ffffffffffffffffffffffff0w0000000000000000000000000000ieffffffffffffffffffff",
"ffffffffffffffffffffff&XX    - ffffffffffffffX-     -<ffffffffffffffffffffe0i000000000000000000000000000ieefffffffffffffffffffff",
"ffffffffffffffffffffffff=$X  -XffffffffffffffX-     XX;<fffffffffffffffffwi00000000000000000000000000ewwefffffffffffffffffffffff",
"ffffffffffffffffffffffffff%# # ffffffffffffff -        #o2fffffffffffff0iw00000000000000000000000000wiqfffffffffffffffffffffffff",
"fffffffffffffffffffffffffff&%- ffffffffffffffX-          ;%ffffffffffwywe0000000000000000000000000eiqfffffffffffffffffffffffffff",
"fffffffffffffffffffffffffffffo ffffffffffffff -            $+ffffffe0ye00000000000000000000000000i0wffffffffffffffffffffffffffff",
"fffffffffffffffffffffffffffffffffffffffffffff -             X@>fffei000000000000000000000000000yy0ffffffffffffffffffffffffffffff",
"fffffffffffffffffffffffffffffffffffffffffffffX-                >9iwe0000000000000000000000000wieffffffffffffffffffffffffffffffff",
"fffffffffffffffffffffffffffffffffffffffffffff -                .9w000000000000000000000000ewieefffffffffffffffffffffffffffffffff",
"fffffffffffffffffffffffffffffffffffffffffffff -                .7w00000000000000000000000ewwefffffffffffffffffffffffffffffffffff",
"fffffffffffffffffffffffffffffffffffffffffffffX#               ..7we000000000000000000000wyefffffffffffffffffffffffffffffffffffff",
"fffffffffffffffffffffffffffffffffffffffffffff -                O7y000000000000000000000wefffffffffffffffffffffffffffffffffffffff",
"fffffffffffffffffffffffffffffffffffffffffffffX-                .7e7000000000000000ew0i0wffffffffffffffffffffffffffffffffffffffff",
"fffffffffffffffffffffffffffffffffffffffffffff -                O7w00000000000000000y00ffffffffffffffffffffffffffffffffffffffffff",
"fffffffffffffffffffffffffffffffffffffffffffff&:                O7w0000000000000e0wiqffffffffffffffffffffffffffffffffffffffffffff",
"ffffffffffffffffffffffffffffffffffffffffffffff1@X              O7w00000000000000i0ffffffffffffffffffffffffffffffffffffffffffffff",
"ffffffffffffffffffffffffffffffffffffffffffffffff=$X            .7we00000000000y0rfffffffffffffffffffffffffffffffffffffffffffffff",
"ffffffffffffffffffffffffffffffffffffffffffffffffff1#           .7w0000000000wiwfffffffffffffffffffffffffffffffffffffffffffffffff",
"fffffffffffffffffffffffffffffffffffffffffffffffffff1O#         O70000000000iefffffffffffffffffffffffffffffffffffffffffffffffffff",
"fffffffffffffffffffffffffffffffffffffffffffffffffffff<#X       O7000000e0i00ffffffffffffffffffffffffffffffffffffffffffffffffffff",
"fffffffffffffffffffffffffffffffffffffffffffffffffffffff<o      O7q0000eyyeffffffffffffffffffffffffffffffffffffffffffffffffffffff",
"fffffffffffffffffffffffffffffffffffffffffffffffffffffffff>-    O7w0000yeffffffffffffffffffffffffffffffffffffffffffffffffffffffff",
"ffffffffffffffffffffffffffffffffffffffffffffffffffffffffff>@#  O7we0iqffffffffffffffffffffffffffffffffffffffffffffffffffffffffff",
"ffffffffffffffffffffffffffffffffffffffffffffffffffffffffffff&$XO7yyewfffffffffffffffffffffffffffffffffffffffffffffffffffffffffff",
"ffffffffffffffffffffffffffffffffffffffffffffffffffffffffffffff1@0iefffffffffffffffffffffffffffffffffffffffffffffffffffffffffffff",
"fffffffffffffffffffffffffffffffffffffffffffffffffffffffffffffff58fffffffffffffffffffffffffffffffffffffffffffffffffffffffffffffff",
"ffffffffffffffffffffffffffffffffffffffffffffffffffffffffffffffffffffffffffffffffffffffffffffffffffffffffffffffffffffffffffffffff",
"ffffffffffffffffffffffffffffffffffffffffffffffffffffffffffffffffffffffffffffffffffffffffffffffffffffffffffffffffffffffffffffffff",
"ffffffffffffffffffffffffffffffffffffffffffffffffffffffffffffffffffffffffffffffffffffffffffffffffffffffffffffffffffffffffffffffff",
"ffffffffffffffffffffffffffffffffffffffffffffffffffffffffffffffffffffffffffffffffffffffffffffffffffffffffffffffffffffffffffffffff",
"ffffffffffffffffffffffffffffffffffffffffffffffffffffffffffffffffffffffffffffffffffffffffffffffffffffffffffffffffffffffffffffffff",
"ffffffffffffffffffffffffffffffffffffffffffffffffffffffffffffffffffffffffffffffffffffffffffffffffffffffffffffffffffffffffffffffff"
};
