/* XPM */
static char *_520702f47c74463c8bf5ccd9b83bbce[] = {
/* columns rows colors chars-per-pixel */
"128 128 10 1 ",
"  c #000031",
". c #0C0F3E",
"X c #101341",
"o c #111442",
"O c #141745",
"+ c #1D204B",
"@ c #867E7C",
"# c #8F8886",
"$ c #918A88",
"% c None",
/* pixels */
"%%%%%%%%%%%%%%%%%%%%%%%%%%%%%%%%%%%%%%%%%%%%%%%%%%%%%%%%%%%%%%%%%%%%%%%%%%%%%%%%%%%%%%%%%%%%%%%%%%%%%%%%%%%%%%%%%%%%%%%%%%%%%%%%",
"%%%%%%%%%%%%%%%%%%%%%%%%%%%%%%%%%%%%%%%%%%%%%%%%%%%%%%%%%%%%%%%%%%%%%%%%%%%%%%%%%%%%%%%%%%%%%%%%%%%%%%%%%%%%%%%%%%%%%%%%%%%%%%%%",
"%%%%%%%%%%%%%%%%%%%%%%%%%%%%%%%%%%%%%%%%%%%%%%%%%%%%%%%%%%%%%%%%%%%%%%%%%%%%%%%%%%%%%%%%%%%%%%%%%%%%%%%%%%%%%%%%%%%%%%%%%%%%%%%%",
"%%%%%%%%%%%%%%%%%%%%%%%%%%%%%%%%%%%%%%%%%%%%%%%%%%%%%%%%%%%%%%%%%%%%%%%%%%%%%%%%%%%%%%%%%%%%%%%%%%%%%%%%%%%%%%%%%%%%%%%%%%%%%%%%",
"%%%%%%%%%%%%%%%%%%%%%%%%%%%%%%%%%%%%%%%%%%%%%%%%%%%%%%%%%%%%%%%%%%%%%%%%%%%%%%%%%%%%%%%%%%%%%%%%%%%%%%%%%%%%%%%%%%%%%%%%%%%%%%%%",
"%%%%%%%%%%%%%%%%%%%%%%%%%%%%%%%%%%%%%%%%%%%%%%%%%%%%%%%%%%%%%%%%%%%%%%%%%%%%%%%%%%%%%%%%%%%%%%%%%%%%%%%%%%%%%%%%%%%%%%%%%%%%%%%%",
"%%%%%%%%%%%%%%%%%%%%%%%%%%%%%%%%%%%%%%%%%%%%%%%%%%%%%%%%%%%%%%%%%%%%%%%%%%%%%%%%%%%%%%%%%%%%%%%%%%%%%%%%%%%%%%%%%%%%%%%%%%%%%%%%",
"%%%%%%%%%%%%%%%%%%%%%%%%%%%%%%%%%%%%%%%%%%%%%%%%%%%%%%%%%%%%%%%%%%%%%%%%%%%%%%%%%%%%%%%%%%%%%%%%%%%%%%%%%%%%%%%%%%%%%%%%%%%%%%%%",
"%%%%%%%%%%%%%%%%%%%%%%%%%%%%%%%%%%%%%%%%%%%%%%%%%%%%%%%%%%%%%%%%%%%%%%%%%%%%%%%%%%%%%%%%%%%%%%%%%%%%%%%%%%%%%%%%%%%%%%%%%%%%%%%%",
"%%%%%%%%%%%%%%%%%%%%%%%%%%%%%%%%%%%%%%%%%%%%%%%%%%%%%%%%%%%%%%%%%%%%%%%%%%%%%%%%%%%%%%%%%%%%%%%%%%%%%%%%%%%%%%%%%%%%%%%%%%%%%%%%",
"%%%%%%%%%%%%%%%%%%%%%%%%%%%%%%%%%%%%%%%%%%%%%%%%%%%%%%%%%%%%%%%%%%%%%%%%%%%%%%%%%%%%%%%%%%%%%%%%%%%%%%%%%%%%%%%%%%%%%%%%%%%%%%%%",
"%%%%%%%%%%%%%%%%%%%%%%%%%%%%%%%%%%%%%%%%%%%%%%%%%%%%%%%%%%%%%%%%%%%%%%%%%%%%%%%%%%%%%%%%%%%%%%%%%%%%%%%%%%%%%%%%%%%%%%%%%%%%%%%%",
"%%%%%%%%%%%%%%%%%%%%%%%%%%%%%%%%%%%%%%%%%%%%%%%%%%%%%%%%%%%%%%%%%%%%%%%%%%%%%%%%%%%%%%%%%%%%%%%%%%%%%%%%%%%%%%%%%%%%%%%%%%%%%%%%",
"%%%%%%%%%%%%%%%%%%%%%%%%%%%%%%%%%%%%%%%%%%%%%%%%%%%%%%%%%%%%%%%%%%%%%%%%%%%%%%%%%%%%%%%%%%%%%%%%%%%%%%%%%%%%%%%%%%%%%%%%%%%%%%%%",
"%%%%%%%%%%%%%%%%%%%%%%%%%%%%%%%%%%%%%%%%%%%%%%%%%%%%%%%%%%%%%%%%%%%%%%%%%%%%%%%%%%%%%%%%%%%%%%%%%%%%%%%%%%%%%%%%%%%%%%%%%%%%%%%%",
"%%%%%%%%%%%%%%%%%%%%%%%%%%%%%%%%%%%%%%++++++++++++++++++++++++++++++++++++++++++++++++++++++++%%%%%%%%%%%%%%%%%%%%%%%%%%%%%%%%%%",
"%%%%%%%%%%%%%%%%%%%%%%%%%%%%%%%%%%%%%%........................................................%%%%%%%%%%%%%%%%%%%%%%%%%%%%%%%%%%",
"%%%%%%%%%%%%%%%%%%%%%%%%%%%%%%%%%%%%%%%oooooooooooooooooooooooooooooooooooooooooooooooooooooooo%%%%%%%%%%%%%%%%%%%%%%%%%%%%%%%%%",
"%%%%%%%%%%%%%%%%%%%%%%%%%%%%%%%%%%%%%%%XXXXXXXXXXXXXXXXXXXXXXXXXXXXXXXXXXXXXXXXXXXXXXXXXXXXXXXXX%%%%%%%%%%%%%%%%%%%%%%%%%%%%%%%%",
"%%%%%%%%%%%%%%%%%%%%%%%%%%%%%%%%%%%%%%%%XXXXXXXXXXXXXXXXXXXXXXXXXXXXXXXXXXXXXXXXXXXXXXXXXXXXXXXX%%%%%%%%%%%%%%%%%%%%%%%%%%%%%%%%",
"%%%%%%%%%%%%%%%%%%%%%%%%%%%%%%%%##%%%%%%XXXXXXXXXXXXXXXXXXXXXXXXXXXXXXXXXXXXXXXXXXXXXXXXXXXXXXXXX%%%%%%%%%%%%%%%%%%%%%%%%%%%%%%%",
"%%%%%%%%%%%%%%%%%%%%%%%%%%%%%%%%##%%%%%%%XXXXXXXXXXXXXXXXXXXXXXXXXXXXXXXXXXXXXXXXXXXXXXXXXXXXXXXX%%%%%%%%%%%%%%%%%%%%%%%%%%%%%%%",
"%%%%%%%%%%%%%%%%%%%%%%%%%%%%%%%####%%%%%%XXXXXXXXXXXXXXXXXXXXXXXXXXXXXXXXXXXXXXXXXXXXXXXXXXXXXXXXX%%%%%%%%%%%%%%%%%%%%%%%%%%%%%%",
"%%%%%%%%%%%%%%%%%%%%%%%%%%%%%%######%%%%%%XXXXXXXXXXXXXXXXXXXXXXXXXXXXXXXXXXXXXXXXXXXXXXXXXXXXXXXX%%%%%%%%%%%%%%%%%%%%%%%%%%%%%%",
"%%%%%%%%%%%%%%%%%%%%%%%%%%%%%%######%%%%%%XXXXXXXXXXXXXXXXXXXXXXXXXXXXXXXXXXXXXXXXXXXXXXXXXXXXXXXXX%%%%%%%%%%%%%%%%%%%%%%%%%%%%%",
"%%%%%%%%%%%%%%%%%%%%%%%%%%%%%########%%%%%%XXXXXXXXXXXXXXXXXXXXXXXXXXXXXXXXXXXXXXXXXXXXXXXXXXXXXXXXX%%%%%%%%%%%%%%%%%%%%%%%%%%%%",
"%%%%%%%%%%%%%%%%%%%%%%%%%%%%%########%%%%%%%XXXXXXXXXXXXXXXXXXXXXXXXXXXXXXXXXXXXXXXXXXXXXXXXXXXXXXXX%%%%%%%%%%%%%%%%%%%%%%%%%%%%",
"%%%%%%%%%%%%%%%%%%%%%%%%%%%%##########%%%%%%XXXXXXXXXXXXXXXXXXXXXXXXXXXXXXXXXXXXXXXXXXXXXXXXXXXXXXXXX%%%%%%%%%%%%%%%%%%%%%%%%%%%",
"%%%%%%%%%%%%%%%%%%%%%%%%%%%%##########%%%%%%%XXXXXXXXXXXXXXXXXXXXXXXXXXXXXXXXXXXXXXXXXXXXXXXXXXXXXXXX%%%%%%%%%%%%%%%%%%%%%%%%%%%",
"%%%%%%%%%%%%%%%%%%%%%%%%%%%############%%%%%%XXXXXXXXXXXXXXXXXXXXXXXXXXXXXXXXXXXXXXXXXXXXXXXXXXXXXXXXX%%%%%%%%%%%%%%%%%%%%%%%%%%",
"%%%%%%%%%%%%%%%%%%%%%%%%%%#############%%%%%%%XXXXXXXXXXXXXXXXXXXXXXXXXXXXXXXXXXXXXXXXXXXXXXXXXXXXXXXX%%%%%%%%%%%%%%%%%%%%%%%%%%",
"%%%%%%%%%%%%%%%%%%%%%%%%%%##############%%%%%%XXXXXXXXXXXXXXXXXXXXXXXXXXXXXXXXXXXXXXXXXXXXXXXXXXXXXXXXX%%%%%%%%%%%%%%%%%%%%%%%%%",
"%%%%%%%%%%%%%%%%%%%%%%%%%################%%%%%%XXXXXXXXXXXXXXXXXXXXXXXXXXXXXXXXXXXXXXXXXXXXXXXXXXXXXXXXX%%%%%%%%%%%%%%%%%%%%%%%%",
"%%%%%%%%%%%%%%%%%%%%%%%%%################%%%%%%%XXXXXXXXXXXXXXXXXXX%%%%%%%%%%%%%%%%%XXXXXXXXXXXXXXXXXXXX%%%%%%%%%%%%%%%%%%%%%%%%",
"%%%%%%%%%%%%%%%%%%%%%%%%##################%%%%%%XXXXXXXXXXXXXXXXXXXX%%%%%%%%%%%%%%%%XXXXXXXXXXXXXXXXXXXXX%%%%%%%%%%%%%%%%%%%%%%%",
"%%%%%%%%%%%%%%%%%%%%%%%%##################%%%%%%%XXXXXXXXXXXXXXXXXXXX%%%%%%%%%%%%%%%%XXXXXXXXXXXXXXXXXXXX%%%%%%%%%%%%%%%%%%%%%%%",
"%%%%%%%%%%%%%%%%%%%%%%%####################%%%%%%XXXXXXXXXXXXXXXXXXXX%%%%%%%%%%%%%%%%%XXXXXXXXXXXXXXXXXXXX%%%%%%%%%%%%%%%%%%%%%%",
"%%%%%%%%%%%%%%%%%%%%%%#####################%%%%%%%XXXXXXXXXXXXXXXXXXXX%%%%%%%%%%%%%%%%XXXXXXXXXXXXXXXXXXXXX%%%%%%%%%%%%%%%%%%%%%",
"%%%%%%%%%%%%%%%%%%%%%%####################%%%%%%%%XXXXXXXXXXXXXXXXXXXX%%%%%%%%%%%%%%%%%XXXXXXXXXXXXXXXXXXXX%%%%%%%%%%%%%%%%%%%%%",
"%%%%%%%%%%%%%%%%%%%%%#####################%%%%%%%%%XXXXXXXXXXXXXXXXXXXX%%%%%%%%%%%%%%%%XXXXXXXXXXXXXXXXXXXXX%%%%%%%%%%%%%%%%%%%%",
"%%%%%%%%%%%%%%%%%%%%%####################%%%%%%%%%%XXXXXXXXXXXXXXXXXXXX%%%%%%%%%%%%%%%%%XXXXXXXXXXXXXXXXXXXX%%%%%%%%%%%%%%%%%%%%",
"%%%%%%%%%%%%%%%%%%%%####################%%%%%%%%%%%%XXXXXXXXXXXXXXXXXXXX%%%%%%%%%%%%%%%%XXXXXXXXXXXXXXXXXXXXX%%%%%%%%%%%%%%%%%%%",
"%%%%%%%%%%%%%%%%%%%#####################%%%%%%%%%%%%%XXXXXXXXXXXXXXXXXXXX%%%%%%%%%%%%%%%%XXXXXXXXXXXXXXXXXXXX%%%%%%%%%%%%%%%%%%%",
"%%%%%%%%%%%%%%%%%%%####################%%%%%%%%%%%%%%XXXXXXXXXXXXXXXXXXXX%%%%%%%%%%%%%%%%%XXXXXXXXXXXXXXXXXXXX%%%%%%%%%%%%%%%%%%",
"%%%%%%%%%%%%%%%%%%#####################%%%%%%%%%%%%%%%XXXXXXXXXXXXXXXXXXXX%%%%%%%%%%%%%%%%XXXXXXXXXXXXXXXXXXXXX%%%%%%%%%%%%%%%%%",
"%%%%%%%%%%%%%%%%%%####################%%%%%%%%%%%%%%%%XXXXXXXXXXXXXXXXXXXX%%%%%%%%%%%%%%%%%XXXXXXXXXXXXXXXXXXXX%%%%%%%%%%%%%%%%%",
"%%%%%%%%%%%%%%%%%#####################%%%%%%%%%%%%%%%%%XXXXXXXXXXXXXXXXXXXX%%%%%%%%%%%%%%%%XXXXXXXXXXXXXXXXXXXXX%%%%%%%%%%%%%%%%",
"%%%%%%%%%%%%%%%%%####################%%%%%%%%%%%%%%%%%%XXXXXXXXXXXXXXXXXXXX%%%%%%%%%%%%%%%%%XXXXXXXXXXXXXXXXXXXX%%%%%%%%%%%%%%%%",
"%%%%%%%%%%%%%%%%####################%%%%%%%%%%%%%%%%%%%%XXXXXXXXXXXXXXXXXXXX%%%%%%%%%%%%%%%%%XXXXXXXXXXXXXXXXXXXX%%%%%%%%%%%%%%%",
"%%%%%%%%%%%%%%%#####################%%%%%%%%%%%%%%%%%%%%%XXXXXXXXXXXXXXXXXXXX%%%%%%%%%%%%%%%%XXXXXXXXXXXXXXXXXXXX%%%%%%%%%%%%%%%",
"%%%%%%%%%%%%%%%####################%%%%%%%%%%%%%%%%%%%%%%XXXXXXXXXXXXXXXXXXXX%%%%%%%%%%%%%%%%%XXXXXXXXXXXXXXXXXXXX%%%%%%%%%%%%%%",
"%%%%%%%%%%%%%%#####################%%%%%%%%%%%%%%%%%%%%%%%XXXXXXXXXXXXXXXXXXXX%%%%%%%%%%%%%%%%XXXXXXXXXXXXXXXXXXXXX%%%%%%%%%%%%%",
"%%%%%%%%%%%%%%####################%%%%%%%%%%%%%%%%%%%%%%%%XXXXXXXXXXXXXXXXXXXX%%%%%%%%%%%%%%%%%XXXXXXXXXXXXXXXXXXXX%%%%%%%%%%%%%",
"%%%%%%%%%%%%%####################%%%%%%%%%%%%%%%%%%%%%%%%%%XXXXXXXXXXXXXXXXXXXX%%%%%%%%%%%%%%%%XXXXXXXXXXXXXXXXXXXXX%%%%%%%%%%%%",
"%%%%%%%%%%%%%####################%%%%%%%%%%%%%%%%%%%%%%%%%%XXXXXXXXXXXXXXXXXXXXX%%%%%%%%%%%%%%%%XXXXXXXXXXXXXXXXXXXX%%%%%%%%%%%%",
"%%%%%%%%%%%%####################%%%%%%%%%%%%%%%%%%%%%%%%%%%%XXXXXXXXXXXXXXXXXXXX%%%%%%%%%%%%%%%%%XXXXXXXXXXXXXXXXXXXX%%%%%%%%%%%",
"%%%%%%%%%%%#####################%%%%%%%%%%%%%%%%%%%%%%%%%%%%XXXXXXXXXXXXXXXXXXXXX%%%%%%%%%%%%%%%%XXXXXXXXXXXXXXXXXXXX%%%%%%%%%%%",
"%%%%%%%%%%%####################%%%%%%%%%%%%%%%%%%%%%%%%%%%%%%XXXXXXXXXXXXXXXXXXXX%%%%%%%%%%%%%%%%%XXXXXXXXXXXXXXXXXXXX%%%%%%%%%%",
"%%%%%%%%%%#####################%%%%%%%%%%%%%%%%%%%%%%%%%%%%%%%XXXXXXXXXXXXXXXXXXXX%%%%%%%%%%%%%%%%XXXXXXXXXXXXXXXXXXXXX%%%%%%%%%",
"%%%%%%%%%%####################%%%%%%%%%%%%%%%%%%%%%%%%%%%%%%%%XXXXXXXXXXXXXXXXXXXX%%%%%%%%%%%%%%%%%XXXXXXXXXXXXXXXXXXXX%%%%%%%%%",
"%%%%%%%%%####################%%%%%%%%%%%%%%%%%%%%%%%%%%%%%%%%%%XXXXXXXXXXXXXXXXXXXX%%%%%%%%%%%%%%%%XXXXXXXXXXXXXXXXXXXXX%%%%%%%%",
"%%%%%%%%%####################%%%%%%%%%%%%%%%%%%%%%%%%%%%%%%%%%%XXXXXXXXXXXXXXXXXXXXX%%%%%%%%%%%%%%%%XXXXXXXXXXXXXXXXXXXX%%%%%%%%",
"%%%%%%%%$###################%%%%%%%%%%%%%%%%%%%%%%%%%%%%%%%%%%%%XXXXXXXXXXXXXXXXXXXX%%%%%%%%%%%%%%%%%XXXXXXXXXXXXXXXXXXXO%%%%%%%",
"%%%%%%%@$###################%%%%%%%%%%%%%%%%%%%%%%%%%%%%%%%%%%%%XXXXXXXXXXXXXXXXXXXXX%%%%%%%%%%%%%%%%XXXXXXXXXXXXXXXXXXXO %%%%%%",
"%%%%%%%@$##################%%%%%%%%%%%%%%%%%%%%%%%%%%%%%%%%%%%%%%XXXXXXXXXXXXXXXXXXXX%%%%%%%%%%%%%%%%%XXXXXXXXXXXXXXXXXXO %%%%%%",
"%%%%%%%@$##################%%%%%%%%%%%%%%%%%%%%%%%%%%%%%%%%%%%%%%XXXXXXXXXXXXXXXXXXXX%%%%%%%%%%%%%%%%%XXXXXXXXXXXXXXXXXXO %%%%%%",
"%%%%%%%%$###################%%%%%%%%%%%%%%%%%%%%%%%%%%%%%%%%%%%%XXXXXXXXXXXXXXXXXXXX%%%%%%%%%%%%%%%%%XXXXXXXXXXXXXXXXXXXO%%%%%%%",
"%%%%%%%%$####################%%%%%%%%%%%%%%%%%%%%%%%%%%%%%%%%%%%XXXXXXXXXXXXXXXXXXXX%%%%%%%%%%%%%%%%XXXXXXXXXXXXXXXXXXXXO%%%%%%%",
"%%%%%%%%%####################%%%%%%%%%%%%%%%%%%%%%%%%%%%%%%%%%%XXXXXXXXXXXXXXXXXXXX%%%%%%%%%%%%%%%%%XXXXXXXXXXXXXXXXXXXX%%%%%%%%",
"%%%%%%%%%#####################%%%%%%%%%%%%%%%%%%%%%%%%%%%%%%%%XXXXXXXXXXXXXXXXXXXXX%%%%%%%%%%%%%%%%XXXXXXXXXXXXXXXXXXXXX%%%%%%%%",
"%%%%%%%%%%####################%%%%%%%%%%%%%%%%%%%%%%%%%%%%%%%%XXXXXXXXXXXXXXXXXXXX%%%%%%%%%%%%%%%%%XXXXXXXXXXXXXXXXXXXX%%%%%%%%%",
"%%%%%%%%%%%####################%%%%%%%%%%%%%%%%%%%%%%%%%%%%%%XXXXXXXXXXXXXXXXXXXXX%%%%%%%%%%%%%%%%XXXXXXXXXXXXXXXXXXXX%%%%%%%%%%",
"%%%%%%%%%%%####################%%%%%%%%%%%%%%%%%%%%%%%%%%%%%%XXXXXXXXXXXXXXXXXXXX%%%%%%%%%%%%%%%%XXXXXXXXXXXXXXXXXXXXX%%%%%%%%%%",
"%%%%%%%%%%%%####################%%%%%%%%%%%%%%%%%%%%%%%%%%%%XXXXXXXXXXXXXXXXXXXX%%%%%%%%%%%%%%%%%XXXXXXXXXXXXXXXXXXXX%%%%%%%%%%%",
"%%%%%%%%%%%%#####################%%%%%%%%%%%%%%%%%%%%%%%%%%%XXXXXXXXXXXXXXXXXXXX%%%%%%%%%%%%%%%%XXXXXXXXXXXXXXXXXXXXX%%%%%%%%%%%",
"%%%%%%%%%%%%%####################%%%%%%%%%%%%%%%%%%%%%%%%%%XXXXXXXXXXXXXXXXXXXX%%%%%%%%%%%%%%%%%XXXXXXXXXXXXXXXXXXXX%%%%%%%%%%%%",
"%%%%%%%%%%%%%#####################%%%%%%%%%%%%%%%%%%%%%%%%XXXXXXXXXXXXXXXXXXXXX%%%%%%%%%%%%%%%%XXXXXXXXXXXXXXXXXXXX%%%%%%%%%%%%%",
"%%%%%%%%%%%%%%####################%%%%%%%%%%%%%%%%%%%%%%%%XXXXXXXXXXXXXXXXXXXX%%%%%%%%%%%%%%%%%XXXXXXXXXXXXXXXXXXXX%%%%%%%%%%%%%",
"%%%%%%%%%%%%%%%####################%%%%%%%%%%%%%%%%%%%%%%XXXXXXXXXXXXXXXXXXXXX%%%%%%%%%%%%%%%%XXXXXXXXXXXXXXXXXXXX%%%%%%%%%%%%%%",
"%%%%%%%%%%%%%%%#####################%%%%%%%%%%%%%%%%%%%%%XXXXXXXXXXXXXXXXXXXX%%%%%%%%%%%%%%%%XXXXXXXXXXXXXXXXXXXXX%%%%%%%%%%%%%%",
"%%%%%%%%%%%%%%%%####################%%%%%%%%%%%%%%%%%%%%XXXXXXXXXXXXXXXXXXXX%%%%%%%%%%%%%%%%%XXXXXXXXXXXXXXXXXXXX%%%%%%%%%%%%%%%",
"%%%%%%%%%%%%%%%%#####################%%%%%%%%%%%%%%%%%%%XXXXXXXXXXXXXXXXXXXX%%%%%%%%%%%%%%%%XXXXXXXXXXXXXXXXXXXXX%%%%%%%%%%%%%%%",
"%%%%%%%%%%%%%%%%%####################%%%%%%%%%%%%%%%%%%XXXXXXXXXXXXXXXXXXXX%%%%%%%%%%%%%%%%%XXXXXXXXXXXXXXXXXXXX%%%%%%%%%%%%%%%%",
"%%%%%%%%%%%%%%%%%%####################%%%%%%%%%%%%%%%%XXXXXXXXXXXXXXXXXXXXX%%%%%%%%%%%%%%%%XXXXXXXXXXXXXXXXXXXX%%%%%%%%%%%%%%%%%",
"%%%%%%%%%%%%%%%%%%####################%%%%%%%%%%%%%%%%XXXXXXXXXXXXXXXXXXXX%%%%%%%%%%%%%%%%%XXXXXXXXXXXXXXXXXXXX%%%%%%%%%%%%%%%%%",
"%%%%%%%%%%%%%%%%%%%####################%%%%%%%%%%%%%%XXXXXXXXXXXXXXXXXXXXX%%%%%%%%%%%%%%%%XXXXXXXXXXXXXXXXXXXX%%%%%%%%%%%%%%%%%%",
"%%%%%%%%%%%%%%%%%%%#####################%%%%%%%%%%%%%XXXXXXXXXXXXXXXXXXXX%%%%%%%%%%%%%%%%XXXXXXXXXXXXXXXXXXXXX%%%%%%%%%%%%%%%%%%",
"%%%%%%%%%%%%%%%%%%%%####################%%%%%%%%%%%%XXXXXXXXXXXXXXXXXXXX%%%%%%%%%%%%%%%%%XXXXXXXXXXXXXXXXXXXX%%%%%%%%%%%%%%%%%%%",
"%%%%%%%%%%%%%%%%%%%%#####################%%%%%%%%%%XXXXXXXXXXXXXXXXXXXXX%%%%%%%%%%%%%%%%XXXXXXXXXXXXXXXXXXXXX%%%%%%%%%%%%%%%%%%%",
"%%%%%%%%%%%%%%%%%%%%%####################%%%%%%%%%%XXXXXXXXXXXXXXXXXXXX%%%%%%%%%%%%%%%%%XXXXXXXXXXXXXXXXXXXX%%%%%%%%%%%%%%%%%%%%",
"%%%%%%%%%%%%%%%%%%%%%%####################%%%%%%%%XXXXXXXXXXXXXXXXXXXXX%%%%%%%%%%%%%%%%XXXXXXXXXXXXXXXXXXXX%%%%%%%%%%%%%%%%%%%%%",
"%%%%%%%%%%%%%%%%%%%%%%####################%%%%%%%%XXXXXXXXXXXXXXXXXXXX%%%%%%%%%%%%%%%%%XXXXXXXXXXXXXXXXXXXX%%%%%%%%%%%%%%%%%%%%%",
"%%%%%%%%%%%%%%%%%%%%%%%####################%%%%%%XXXXXXXXXXXXXXXXXXXX%%%%%%%%%%%%%%%%%XXXXXXXXXXXXXXXXXXXX%%%%%%%%%%%%%%%%%%%%%%",
"%%%%%%%%%%%%%%%%%%%%%%%###################%%%%%%%XXXXXXXXXXXXXXXXXXXX%%%%%%%%%%%%%%%%XXXXXXXXXXXXXXXXXXXXX%%%%%%%%%%%%%%%%%%%%%%",
"%%%%%%%%%%%%%%%%%%%%%%%%##################%%%%%%XXXXXXXXXXXXXXXXXXXX%%%%%%%%%%%%%%%%%XXXXXXXXXXXXXXXXXXXX%%%%%%%%%%%%%%%%%%%%%%%",
"%%%%%%%%%%%%%%%%%%%%%%%%#################%%%%%%XXXXXXXXXXXXXXXXXXXXX%%%%%%%%%%%%%%%%XXXXXXXXXXXXXXXXXXXXX%%%%%%%%%%%%%%%%%%%%%%%",
"%%%%%%%%%%%%%%%%%%%%%%%%%###############%%%%%%%XXXXXXXXXXXXXXXXXXXX%%%%%%%%%%%%%%%%%XXXXXXXXXXXXXXXXXXXX%%%%%%%%%%%%%%%%%%%%%%%%",
"%%%%%%%%%%%%%%%%%%%%%%%%%%##############%%%%%%XXXXXXXXXXXXXXXXXXXXXXXXXXXXXXXXXXXXXXXXXXXXXXXXXXXXXXXXX%%%%%%%%%%%%%%%%%%%%%%%%%",
"%%%%%%%%%%%%%%%%%%%%%%%%%%#############%%%%%%%XXXXXXXXXXXXXXXXXXXXXXXXXXXXXXXXXXXXXXXXXXXXXXXXXXXXXXXXX%%%%%%%%%%%%%%%%%%%%%%%%%",
"%%%%%%%%%%%%%%%%%%%%%%%%%%%############%%%%%%XXXXXXXXXXXXXXXXXXXXXXXXXXXXXXXXXXXXXXXXXXXXXXXXXXXXXXXXX%%%%%%%%%%%%%%%%%%%%%%%%%%",
"%%%%%%%%%%%%%%%%%%%%%%%%%%%###########%%%%%%%XXXXXXXXXXXXXXXXXXXXXXXXXXXXXXXXXXXXXXXXXXXXXXXXXXXXXXXXX%%%%%%%%%%%%%%%%%%%%%%%%%%",
"%%%%%%%%%%%%%%%%%%%%%%%%%%%%##########%%%%%%XXXXXXXXXXXXXXXXXXXXXXXXXXXXXXXXXXXXXXXXXXXXXXXXXXXXXXXXX%%%%%%%%%%%%%%%%%%%%%%%%%%%",
"%%%%%%%%%%%%%%%%%%%%%%%%%%%%#########%%%%%%XXXXXXXXXXXXXXXXXXXXXXXXXXXXXXXXXXXXXXXXXXXXXXXXXXXXXXXXX%%%%%%%%%%%%%%%%%%%%%%%%%%%%",
"%%%%%%%%%%%%%%%%%%%%%%%%%%%%%#######%%%%%%%XXXXXXXXXXXXXXXXXXXXXXXXXXXXXXXXXXXXXXXXXXXXXXXXXXXXXXXXX%%%%%%%%%%%%%%%%%%%%%%%%%%%%",
"%%%%%%%%%%%%%%%%%%%%%%%%%%%%%%######%%%%%%XXXXXXXXXXXXXXXXXXXXXXXXXXXXXXXXXXXXXXXXXXXXXXXXXXXXXXXXX%%%%%%%%%%%%%%%%%%%%%%%%%%%%%",
"%%%%%%%%%%%%%%%%%%%%%%%%%%%%%%#####%%%%%%%XXXXXXXXXXXXXXXXXXXXXXXXXXXXXXXXXXXXXXXXXXXXXXXXXXXXXXXXX%%%%%%%%%%%%%%%%%%%%%%%%%%%%%",
"%%%%%%%%%%%%%%%%%%%%%%%%%%%%%%%####%%%%%%XXXXXXXXXXXXXXXXXXXXXXXXXXXXXXXXXXXXXXXXXXXXXXXXXXXXXXXXX%%%%%%%%%%%%%%%%%%%%%%%%%%%%%%",
"%%%%%%%%%%%%%%%%%%%%%%%%%%%%%%%###%%%%%%XXXXXXXXXXXXXXXXXXXXXXXXXXXXXXXXXXXXXXXXXXXXXXXXXXXXXXXXXX%%%%%%%%%%%%%%%%%%%%%%%%%%%%%%",
"%%%%%%%%%%%%%%%%%%%%%%%%%%%%%%%%#%%%%%%%XXXXXXXXXXXXXXXXXXXXXXXXXXXXXXXXXXXXXXXXXXXXXXXXXXXXXXXXX%%%%%%%%%%%%%%%%%%%%%%%%%%%%%%%",
"%%%%%%%%%%%%%%%%%%%%%%%%%%%%%%%%%%%%%%%XXXXXXXXXXXXXXXXXXXXXXXXXXXXXXXXXXXXXXXXXXXXXXXXXXXXXXXXX%%%%%%%%%%%%%%%%%%%%%%%%%%%%%%%%",
"%%%%%%%%%%%%%%%%%%%%%%%%%%%%%%%%%%%%%%%XXXXXXXXXXXXXXXXXXXXXXXXXXXXXXXXXXXXXXXXXXXXXXXXXXXXXXXXX%%%%%%%%%%%%%%%%%%%%%%%%%%%%%%%%",
"%%%%%%%%%%%%%%%%%%%%%%%%%%%%%%%%%%%%%%XXXXXXXXXXXXXXXXXXXXXXXXXXXXXXXXXXXXXXXXXXXXXXXXXXXXXXXXX%%%%%%%%%%%%%%%%%%%%%%%%%%%%%%%%%",
"%%%%%%%%%%%%%%%%%%%%%%%%%%%%%%%%%%%%%%OOOOOOOOOOOOOOOOOOOOOOOOOOOOOOOOOOOOOOOOOOOOOOOOOOOOOOOOO%%%%%%%%%%%%%%%%%%%%%%%%%%%%%%%%%",
"%%%%%%%%%%%%%%%%%%%%%%%%%%%%%%%%%%%%%                                                         %%%%%%%%%%%%%%%%%%%%%%%%%%%%%%%%%%",
"%%%%%%%%%%%%%%%%%%%%%%%%%%%%%%%%%%%%%%%%%%%%%%%%%%%%%%%%%%%%%%%%%%%%%%%%%%%%%%%%%%%%%%%%%%%%%%%%%%%%%%%%%%%%%%%%%%%%%%%%%%%%%%%%",
"%%%%%%%%%%%%%%%%%%%%%%%%%%%%%%%%%%%%%%%%%%%%%%%%%%%%%%%%%%%%%%%%%%%%%%%%%%%%%%%%%%%%%%%%%%%%%%%%%%%%%%%%%%%%%%%%%%%%%%%%%%%%%%%%",
"%%%%%%%%%%%%%%%%%%%%%%%%%%%%%%%%%%%%%%%%%%%%%%%%%%%%%%%%%%%%%%%%%%%%%%%%%%%%%%%%%%%%%%%%%%%%%%%%%%%%%%%%%%%%%%%%%%%%%%%%%%%%%%%%",
"%%%%%%%%%%%%%%%%%%%%%%%%%%%%%%%%%%%%%%%%%%%%%%%%%%%%%%%%%%%%%%%%%%%%%%%%%%%%%%%%%%%%%%%%%%%%%%%%%%%%%%%%%%%%%%%%%%%%%%%%%%%%%%%%",
"%%%%%%%%%%%%%%%%%%%%%%%%%%%%%%%%%%%%%%%%%%%%%%%%%%%%%%%%%%%%%%%%%%%%%%%%%%%%%%%%%%%%%%%%%%%%%%%%%%%%%%%%%%%%%%%%%%%%%%%%%%%%%%%%",
"%%%%%%%%%%%%%%%%%%%%%%%%%%%%%%%%%%%%%%%%%%%%%%%%%%%%%%%%%%%%%%%%%%%%%%%%%%%%%%%%%%%%%%%%%%%%%%%%%%%%%%%%%%%%%%%%%%%%%%%%%%%%%%%%",
"%%%%%%%%%%%%%%%%%%%%%%%%%%%%%%%%%%%%%%%%%%%%%%%%%%%%%%%%%%%%%%%%%%%%%%%%%%%%%%%%%%%%%%%%%%%%%%%%%%%%%%%%%%%%%%%%%%%%%%%%%%%%%%%%",
"%%%%%%%%%%%%%%%%%%%%%%%%%%%%%%%%%%%%%%%%%%%%%%%%%%%%%%%%%%%%%%%%%%%%%%%%%%%%%%%%%%%%%%%%%%%%%%%%%%%%%%%%%%%%%%%%%%%%%%%%%%%%%%%%",
"%%%%%%%%%%%%%%%%%%%%%%%%%%%%%%%%%%%%%%%%%%%%%%%%%%%%%%%%%%%%%%%%%%%%%%%%%%%%%%%%%%%%%%%%%%%%%%%%%%%%%%%%%%%%%%%%%%%%%%%%%%%%%%%%",
"%%%%%%%%%%%%%%%%%%%%%%%%%%%%%%%%%%%%%%%%%%%%%%%%%%%%%%%%%%%%%%%%%%%%%%%%%%%%%%%%%%%%%%%%%%%%%%%%%%%%%%%%%%%%%%%%%%%%%%%%%%%%%%%%",
"%%%%%%%%%%%%%%%%%%%%%%%%%%%%%%%%%%%%%%%%%%%%%%%%%%%%%%%%%%%%%%%%%%%%%%%%%%%%%%%%%%%%%%%%%%%%%%%%%%%%%%%%%%%%%%%%%%%%%%%%%%%%%%%%",
"%%%%%%%%%%%%%%%%%%%%%%%%%%%%%%%%%%%%%%%%%%%%%%%%%%%%%%%%%%%%%%%%%%%%%%%%%%%%%%%%%%%%%%%%%%%%%%%%%%%%%%%%%%%%%%%%%%%%%%%%%%%%%%%%",
"%%%%%%%%%%%%%%%%%%%%%%%%%%%%%%%%%%%%%%%%%%%%%%%%%%%%%%%%%%%%%%%%%%%%%%%%%%%%%%%%%%%%%%%%%%%%%%%%%%%%%%%%%%%%%%%%%%%%%%%%%%%%%%%%",
"%%%%%%%%%%%%%%%%%%%%%%%%%%%%%%%%%%%%%%%%%%%%%%%%%%%%%%%%%%%%%%%%%%%%%%%%%%%%%%%%%%%%%%%%%%%%%%%%%%%%%%%%%%%%%%%%%%%%%%%%%%%%%%%%"
};
