/* XPM */
static char *bitcoin32[] = {
/* columns rows colors chars-per-pixel */
"32 32 121 2 ",
"   c black",
".  c #010101",
"X  c #030101",
"o  c #000202",
"O  c #000302",
"+  c #020202",
"@  c gray1",
"#  c #020505",
"$  c #040404",
"%  c gray2",
"&  c #050606",
"*  c #060606",
"=  c #070707",
"-  c #080606",
";  c #080707",
":  c #060B0B",
">  c #070C0C",
",  c #0A0B0B",
"<  c #0D0F0F",
"1  c #0C1111",
"2  c #0F1515",
"3  c #0F1717",
"4  c #111313",
"5  c #121414",
"6  c #121515",
"7  c #131717",
"8  c #161919",
"9  c #1B2020",
"0  c #1C2121",
"q  c #1E2222",
"w  c #1E2424",
"e  c gray15",
"r  c #333535",
"t  c #383A39",
"y  c #3A3B3B",
"u  c #3B3D3D",
"i  c #3F4040",
"p  c #3F4141",
"a  c #404242",
"s  c #414343",
"d  c #6E6364",
"f  c #736667",
"g  c #766C6C",
"h  c #AC171F",
"j  c #AE171F",
"k  c #AB191F",
"l  c #AB1820",
"z  c #AB1920",
"x  c #AC1820",
"c  c #AD1920",
"v  c #AD1921",
"b  c #AD1A21",
"n  c #AC1B22",
"m  c #AF1B22",
"M  c #AC1C23",
"N  c #AF1C23",
"B  c #AC1D24",
"V  c #AD1D24",
"C  c #AD1E25",
"Z  c #AD1F25",
"A  c #AE1E25",
"S  c #AD1F26",
"D  c #AF2027",
"F  c #AF2127",
"G  c #B32027",
"H  c #B22028",
"J  c #B32129",
"K  c #B02228",
"L  c #B32229",
"P  c #B52B32",
"I  c #B32D33",
"U  c #B72D34",
"Y  c #B82B31",
"T  c #BA3037",
"R  c #B7343B",
"E  c #BA3138",
"W  c #BF3D43",
"Q  c #BF3F44",
"!  c #BF3F45",
"~  c #836B6B",
"^  c #876B6C",
"/  c #876D6D",
"(  c #857373",
")  c #857374",
"_  c #8D7A7A",
"`  c #9C7C7D",
"'  c #B7696C",
"]  c #B76B6E",
"[  c #B56C6F",
"{  c #B86B6F",
"}  c #A77576",
"|  c #A97576",
" . c #A97778",
".. c #AF7578",
"X. c #A3797B",
"o. c #A37A7C",
"O. c #A77E7F",
"+. c #BB7073",
"@. c #B07679",
"#. c #B8767A",
"$. c #B9777A",
"%. c #B1797C",
"&. c #B47A7C",
"*. c #B9787B",
"=. c #C2494F",
"-. c #C5595E",
";. c #C55A5F",
":. c #C55A60",
">. c #C55B60",
",. c #C55B61",
"<. c #C55C60",
"1. c #C55C61",
"2. c #C45F63",
"3. c #CF686C",
"4. c #C37074",
"5. c #988484",
"6. c #B68385",
"7. c #B18E90",
"8. c #C18083",
"9. c #C68D90",
"0. c None",
/* pixels */
"0.0.0.0.0.0.0.0.0.0.0.0.0.0.0.0.0.0.0.0.0.0.0.0.0.0.0.0.0.0.0.0.",
"0.0.0.0.0.0.0.0.0.0.0.0.0.0.0.0.0.0.0.0.0.0.0.0.0.0.0.0.0.0.0.0.",
"0.0.0.                    #     @   @           @     @   0.0.0.",
"0.0.%                                                     = 0.0.",
"0.0.%   4 2 2 2 2 2 2 2 2 2 2 2 5 2 2 2 2 2 2 2 2 1       % 0.0.",
"0.0.@ 8 7.$.*.*.*.*.*.*.*.*.*.*.*.*.*.*.*.*.*.*.*.&.) 5   = 0.0.",
"0.0.@ 0 ] j v v v v v v v v v v v z v v v v v v v v =.) @ % 0.0.",
"0.0.@ 9 [ S S S S S S S S S S S D D S S S S S S D D F  .: = 0.0.",
"0.0.@ 0 [ S S D S S S S D S S S D D B D B D B D S S F } : & 0.0.",
"0.0.@ 0 +.G G G L L L L L L L L L L L L F B D D S S L } : = 0.0.",
"0.0.@ 5 5.o.o.o.o.o.o.o.o.o.o.o.o.o.o.o.O.4.B B S S F } : & 0.0.",
"0.0.%                   O O #   O   O O 3 %.N B S S F } > & 0.0.",
"0.0.% ; y a a s s s e                   4 ..N D D D K } > & 0.0.",
"0.0.  0 9.-.-.:.1.3._ ;                 2 ..N D B D K } > = 0.0.",
"0.0.@ e [ j k k z Y ^ ;                 4 ..B D D D K } : & 0.0.",
"0.0.@ 0 ] N S S S E / ;                 4 ..B B D B K  .> & 0.0.",
"0.0.@ w [ D N S S T / ;                 4 ..S S S S K } : % 0.0.",
"0.0.@ w [ B D S S T / ;                 2 @.N S S S K } > % 0.0.",
"0.0.  w ] N D D S T / ;                 5 @.B B S S K } > & 0.0.",
"0.0.  e ] S N S S T ~ ;                 = ..B D S S K | > % 0.0.",
"0.0.@ 0 ] A S S N P 7.f d d d d d d d d g 8.z D D D K } > & 0.0.",
"0.0.  e ] S S S S S R W ! ! ! ! ! ! ! ! W I B D B D K } > & 0.0.",
"0.0.  w { S S S S S B B B z B B S B B z N B D D D D F } > & 0.0.",
"0.0.@ w [ N S S S S S S S S S D S S S S D B D B D B L | > & 0.0.",
"0.0.@ 0 ] j k v z z z z z z z z z z z z z z z z k z U ` # & 0.0.",
"0.0.@ 0 9.-.;.1.1.1.1.1.1.1.1.1.1.1.1.1.1.1.1.1.,.2.6.r   & 0.0.",
"0.0.% ; y p p p p p p p p p p p p p p p p p p p p u 5     ; 0.0.",
"0.0.%                                                     & 0.0.",
"0.0.%                                                     % 0.0.",
"0.0.0.0.0.0.0.0.0.0.0.0.0.0.0.0.0.0.0.0.0.0.0.0.0.0.0.0.0.0.0.0.",
"0.0.0.0.0.0.0.0.0.0.0.0.0.0.0.0.0.0.0.0.0.0.0.0.0.0.0.0.0.0.0.0.",
"0.0.0.0.0.0.0.0.0.0.0.0.0.0.0.0.0.0.0.0.0.0.0.0.0.0.0.0.0.0.0.0."
};
