/* XPM */
static char *_4232e57fa6a4f7bff75639cc77b5834[] = {
/* columns rows colors chars-per-pixel */
"64 64 22 1 ",
"  c #000133",
". c #010334",
"X c #050838",
"o c #0F1240",
"O c #101341",
"+ c #111441",
"@ c #111442",
"# c #121442",
"$ c #121542",
"% c #121543",
"& c #141744",
"* c #151845",
"= c #89827F",
"- c #8D8685",
"; c #8D8785",
": c #8E8785",
"> c #8E8786",
", c #8E8886",
"< c #8F8886",
"1 c #908987",
"2 c #ACA7A5",
"3 c None",
/* pixels */
"3333333333333333333333333333333333333333333333333333333333333333",
"3333333333333333333333333333333333333333333333333333333333333333",
"3333333333333333333333333333333333333333333333333333333333333333",
"3333333333333333333333333333333333333333333333333333333333333333",
"3333333333333333333333333333333333333333333333333333333333333333",
"3333333333333333333333333333333333333333333333333333333333333333",
"3333333333333333333333333333333333333333333333333333333333333333",
"3333333333333333333333333333333333333333333333333333333333333333",
"3333333333333333333.                           33333333333333333",
"33333333333333333333*&&&&&&&&&&&&&&&&&&&&&&&&&&&3333333333333333",
"3333333333333333-333@@@OOOOOOOOOOOOOOOOOOOOOOOOO3333333333333333",
"333333333333333<<<333@OOOOOOOOOOOOOOOOOOOOOOOOOOO333333333333333",
"333333333333333<<-333@OOOOOOOOOOOOOOOOOOOOOOOOOOOO33333333333333",
"33333333333333<<<<-333@OOOOOOOOOOOOOOOOOOOOOOOOOOO33333333333333",
"33333333333333<<<<<333OOOOOOOOOOOOOOOOOOOOOOOOOOOOO3333333333333",
"3333333333333<<<<<<-333@OOOOOOOOOOOOOOOOOOOOOOOOOOO3333333333333",
"333333333333<<<<<<<<3333@@OOOOOOOO33333333OOOOOOOOOO333333333333",
"333333333333<<<<<<<<-333@OOOOOOOOO33333333OOOOOOOOOOO33333333333",
"33333333333<<<<<<<<<<3333@OOOOOOOOO33333333OOOOOOOOOO33333333333",
"33333333333<<<<<<<<<<3333@OOOOOOOOO333333333OOOOOOOOOO3333333333",
"3333333333<<<<<<<<<<333333OOOOOOOOOO33333333OOOOOOOOOO3333333333",
"3333333333<<<<<<<<<<333333OOOOOOOOOO333333333OOOOOOOOOO333333333",
"333333333<<<<<<<<<<33333333OOOOOOOOOO33333333OOOOOOOOOO333333333",
"33333333<<<<<<<<<<<333333333OOOOOOOOOO33333333OOOOOOOOOO33333333",
"33333333<<<<<<<<<<3333333333OOOOOOOOOO33333333OOOOOOOOOOO3333333",
"3333333<<<<<<<<<<333333333333OOOOOOOOOO33333333OOOOOOOOOO3333333",
"3333333<<<<<<<<<<333333333333OOOOOOOOOO333333333OOOOOOOOOO333333",
"333333<<<<<<<<<<33333333333333OOOOOOOOOO33333333OOOOOOOOOO333333",
"333333<<<<<<<<<<33333333333333OOOOOOOOOO333333333OOOOOOOOO@33333",
"333331<<<<<<<<<3333333333333333OOOOOOOOOO33333333OOOOOOOOOO33333",
"3333=1<<<<<<<<<33333333333333333OOOOOOOOOO33333333OOOOOOOOO@3333",
"3333=1<<<<<<<<333333333333333333OOOOOOOOOO33333333OOOOOOOO@@X333",
"3332=1<<<<<<<<333333333333333333OOOOOOOOOOO33333333OOOOOOOO@X333",
"3333=1<<<<<<<<333333333333333333OOOOOOOOOO33333333OOOOOOOO@%3333",
"333331<<<<<<<<<3333333333333333OOOOOOOOOOO33333333OOOOOOOOO@3333",
"333331<<<<<<<<<3333333333333333OOOOOOOOOO33333333OOOOOOOOOO33333",
"333333<<<<<<<<<<33333333333333OOOOOOOOOO333333333OOOOOOOOO@33333",
"333333<<<<<<<<<<33333333333333OOOOOOOOOO33333333OOOOOOOOOO333333",
"3333333<<<<<<<<<<333333333333OOOOOOOOOO33333333OOOOOOOOOOO333333",
"3333333<<<<<<<<<<13333333333OOOOOOOOOOO33333333OOOOOOOOOO3333333",
"33333333<<<<<<<<<<3333333333OOOOOOOOOO33333333OOOOOOOOOO33333333",
"333333333<<<<<<<<<<33333333OOOOOOOOOO333333333OOOOOOOOOO33333333",
"333333333<<<<<<<<<<33333333OOOOOOOOOO33333333OOOOOOOOOO333333333",
"3333333333<<<<<<<<<<333333OOOOOOOOOO333333333OOOOOOOOOO333333333",
"3333333333<<<<<<<<<<<33333OOOOOOOOOO33333333OOOOOOOOOO3333333333",
"33333333333<<<<<<<<<<3333@OOOOOOOOO33333333OOOOOOOOOOO3333333333",
"33333333333<<<<<<<<<-333OOOOOOOOOOO33333333OOOOOOOOOO33333333333",
"333333333333<<<<<<<1-333@OOOOOOOOO33333333OOOOOOOOOO333333333333",
"3333333333333<<<<<<-333@@OOOOOOOOOOOOOOOOOOOOOOOOOOO333333333333",
"3333333333333<<<<<<3333@OOOOOOOOOOOOOOOOOOOOOOOOOOO3333333333333",
"33333333333333<<<<-333@OOOOOOOOOOOOOOOOOOOOOOOOOOOO3333333333333",
"33333333333333<<1-3333@OOOOOOOOOOOOOOOOOOOOOOOOOOO33333333333333",
"333333333333333<1-333@OOOOOOOOOOOOOOOOOOOOOOOOOOOO33333333333333",
"3333333333333333-333@OOOOOO@OOO@OOOOOOOOOOOOOOOOO333333333333333",
"33333333333333333333@@@OO@@@O@@@O@OO@OO@O@OO@OO@3333333333333333",
"3333333333333333333*@@%%@@@@@@@@@%%@%%@%@%%@%%@@3333333333333333",
"3333333333333333333XXXXXXXXXXXXXXXXXXXXXXXXXXXX33333333333333333",
"3333333333333333333333333333333333333333333333333333333333333333",
"3333333333333333333333333333333333333333333333333333333333333333",
"3333333333333333333333333333333333333333333333333333333333333333",
"3333333333333333333333333333333333333333333333333333333333333333",
"3333333333333333333333333333333333333333333333333333333333333333",
"3333333333333333333333333333333333333333333333333333333333333333",
"3333333333333333333333333333333333333333333333333333333333333333"
};
