/* XPM */
static char *bitcoin64[] = {
/* columns rows colors chars-per-pixel */
"48 48 120 2 ",
"   c #211A2D",
".  c #261E32",
"X  c #272033",
"o  c #292235",
"O  c #2D2639",
"+  c #2F283A",
"@  c #312A3C",
"#  c #362E42",
"$  c #382F48",
"%  c #373042",
"&  c #3A3344",
"*  c #3A3149",
"=  c #3F394A",
"-  c #3E3452",
";  c #3F3358",
":  c #40394A",
">  c #413757",
",  c #44395C",
"<  c #443566",
"1  c #463A61",
"2  c #483C62",
"3  c #473869",
"4  c #4B3C6C",
"5  c #474051",
"6  c #4A4454",
"7  c #524D5C",
"8  c #56505F",
"9  c #4E406E",
"0  c #50426F",
"q  c #595362",
"w  c #4F4170",
"e  c #514371",
"r  c #584A76",
"t  c #594C78",
"y  c #5E517C",
"u  c #605B69",
"i  c #63567E",
"p  c #66616E",
"a  c #6B6673",
"s  c #6F6A77",
"d  c #76717D",
"f  c #645780",
"g  c #665A82",
"h  c #695D85",
"j  c #6D6286",
"k  c #6E6389",
"l  c #71668B",
"z  c #74698E",
"x  c #776C90",
"c  c #796E92",
"v  c #7D7295",
"b  c #807B86",
"n  c #837F8A",
"m  c #807697",
"M  c #817798",
"N  c #847A9B",
"B  c #85818C",
"V  c #89858F",
"C  c #8A8691",
"Z  c #8D8993",
"A  c #89809F",
"S  c #908C96",
"D  c #928E98",
"F  c #95919B",
"G  c #98959E",
"H  c #8D83A2",
"J  c #928AA6",
"K  c #968DA9",
"L  c #9E9AA3",
"P  c #9B93AD",
"I  c #9F97B1",
"U  c #A09DA5",
"Y  c #A19AB2",
"T  c #A5A2AA",
"R  c #A9A6AF",
"E  c #A7A0B7",
"W  c #A8A1B7",
"Q  c #ACA9B0",
"!  c #AAA3BA",
"~  c #AEA8BD",
"^  c #B1AEB5",
"/  c #B1ABBF",
"(  c #B3B0B7",
")  c #B5B2B9",
"_  c #B9B7BD",
"`  c #BBB9BF",
"'  c #B4AEC2",
"]  c #B7B1C4",
"[  c #B9B4C6",
"{  c #BEBCC2",
"}  c #BEB9CA",
"|  c #C1BFC4",
" . c #C1BBCC",
".. c #C3C1C6",
"X. c #C6C4CA",
"o. c #C8C6CB",
"O. c #CBCACE",
"+. c #C6C2D1",
"@. c #C9C5D3",
"#. c #CDCAD4",
"$. c #CFCBD8",
"%. c #D1CFD3",
"&. c #D2CEDA",
"*. c #D3D1D5",
"=. c #D6D3DC",
"-. c #D8D6DE",
";. c #DCDBDE",
":. c #D9D5E0",
">. c #DEDBE3",
",. c #E1DFE5",
"<. c #E4E3E5",
"1. c #E5E2E9",
"2. c #E9E7ED",
"3. c #EAE9ED",
"4. c #EEEDF1",
"5. c #F0EEF2",
"6. c #F4F4F5",
"7. c #F7F6F8",
"8. c #F8F7F9",
"9. c #FFFFFF",
/* pixels */
"9.9.9.9.9.9.9.9.9.9.9.9.9.9.9.9.9.9.9.9.9.9.9.9.9.9.9.9.9.9.9.9.9.9.9.9.9.9.9.9.9.9.9.9.9.9.9.9.",
"9.9.9.9.9.9.9.9.9.9.9.9.9.9.9.9.9.9.9.9.6.=.^ V P } >.7.9.9.9.9.9.9.9.9.9.9.9.9.9.9.9.9.9.9.9.9.",
"9.9.9.9.9.9.9.9.9.9.9.9.9.9.9.8.;._ D p 5 @ o o 1 4 e f M Y +.1.8.9.9.9.9.9.9.9.9.9.9.9.9.9.9.9.",
"9.9.9.9.9.9.9.9.9.9.8.<.| G s 6 # o     . O # 6 i e 4 4 < < 4 e h N ! @.2.8.9.9.9.9.9.9.9.9.9.9.",
"9.9.9.9.9.9.2.o.U d 7 @ .     o & 6 p n T ..<.6.8.1.@.' K v f r 4 3 < 4 e j H ' &.5.9.9.9.9.9.9.",
"9.9.9.9.9.L % .   X & 7 a C Q o.<.9.9.9.9.9.5.:.:.5.9.9.9.9.9.3.&.' P v h r 3 < 3 r ' 9.9.9.9.9.",
"9.9.9.9.9.V O Z ( *.3.9.9.9.9.9.3.&.] P M j t w w y j M I [ &.3.9.9.9.9.9.5.-.} P 4 Y 9.9.9.9.9.",
"9.9.9.9.9.V = 9.9.6.<.@./ K v h r 9 4 4 4 9 w w w w 4 4 4 4 9 r g v K ' #.1.8.9.6.t Y 9.9.9.9.9.",
"9.9.9.9.9.V : 8.T = # 1 4 4 9 w w e e w e e w w w e e e e e e w 9 4 4 4 9 e y [ 6.r Y 9.9.9.9.9.",
"9.9.9.9.9.V : 9.S . O , e e e e e e w w w e w w e w e e e e e e e e e e e e 4 Y 8.t Y 9.9.9.9.9.",
"9.9.9.9.9.V : 8.D X + > e e e e e e t t y t t t t t t e w 4 w e e e e e e e 4 ! 8.t Y 9.9.9.9.9.",
"9.9.9.9.9.V : 9.D X + $ e e e e 0 y :.2.3.2.3.2.3.3.3.1.&.Y g 4 e e e e e e 4 ! 6.t Y 9.9.9.9.9.",
"9.9.9.9.9.V : 9.D X @ @ 0 e e e 0 y 4.9.9.9.9.9.9.9.9.9.9.9.5.P 4 e e e e w 4 ! 8.t I 9.9.9.9.9.",
"9.9.9.9.9.V : 8.F X @ + 2 e e e w e l z l l l k j l j c I 1.9.9.I 4 e e e 0 4 ! 8.t Y 9.9.9.9.9.",
"9.9.9.9.9.V : 9.D X @ + > e e e e e 4 4 9 9 9 9 9 9 9 4 4 t +.9.8.z 0 e e e 4 E 8.e Y 9.9.9.9.9.",
"9.9.9.9.9.V : 9.D X @ @ @ 0 e e e e e e e e e e w w e w w 4 y 2.9.[ 4 e e w 4 ! 8.t Y 9.9.9.9.9.",
"9.9.9.9.9.V : 8.D o @ @ + 2 e e w 4 4 4 4 4 4 4 4 4 e e e e 4 ~ 9.1.t w e e 4 ! 7.e Y 9.9.9.9.9.",
"9.9.9.9.9.V : 9.D o @ @ + $ e 4 N ] ] ' ] ] ' ' ' M 4 e e e 4 H 9.7.f 4 w e 4 ! 8.t Y 9.9.9.9.9.",
"9.9.9.9.9.V : 9.D o @ @ @ @ 2 4 ! 9.9.9.9.9.9.9.9.~ 4 w e e 4 N 9.8.h w e e 4 ! 7.r Y 9.9.9.9.9.",
"9.9.9.9.9.V : 8.D o @ @ @ + $ 9 h m m v m m M M M h 9 w e e 4 K 9.5.i w e e 4 ! 8.t Y 9.9.9.9.9.",
"9.9.9.9.9.V : 9.D X @ @ @ @ O , w 4 4 9 4 4 4 4 4 9 e w e w 4 @.9.=.w w w w 4 ! 8.t Y 9.9.9.9.9.",
"9.9.9.9.9.V : 9.D o @ @ @ @ @ # 4 e w w e e w w e e e w w 4 M 8.9.P 4 w e w 4 W 6.r Y 9.9.9.9.9.",
"9.9.9.9.9.V : 8.D o @ @ @ @ @ @ * w 9 4 4 4 4 4 4 4 4 4 w A 5.9.,.t w e e e 4 W 8.t I 9.9.9.9.9.",
"9.9.9.9.9.V : 9.D o @ @ @ @ @ @ @ - N ! ~ ! ! ! ! ! ! ] >.9.9.2.z 4 e e e e 4 W 8.t Y 9.9.9.9.9.",
"9.9.9.9.9.V : 9.D o + @ @ @ @ @ @ X R 9.9.9.9.9.9.9.9.9.9.8. .f 4 e e e e e 4 W 7.r Y 9.9.9.9.9.",
"9.9.9.9.9.V = 9.D o @ @ @ @ @ @ @ X L 9.3./ ] / ' ] ] ~ J h 4 0 e e e e e e 4 ! 8.t Y 9.9.9.9.9.",
"9.9.9.9.9.V = 9.D o @ @ @ @ @ @ @ o U 9.$.3 4 4 4 4 4 4 4 0 e e e e e e e e 4 ! 8.t Y 9.9.9.9.9.",
"9.9.9.9.9.V : 8.D o @ @ @ @ @ @ @ X U 9.O.$ 9 e w w w w w e e e e e e e e e 4 ! 6.r Y 9.9.9.9.9.",
"9.9.9.9.9.V : 9.D o @ @ @ @ @ @ @ o U 9.O.O @ , e e e e e e e e e e e e e w 4 ! 8.t I 9.9.9.9.9.",
"9.9.9.9.9.V = 9.D o @ @ @ @ @ @ @ o U 9.O.+ @ + $ , 0 w e e e e e e e e e w 4 ! 8.t Y 9.9.9.9.9.",
"9.9.9.9.9.B = 9.F o @ @ @ @ @ @ @ X U 9.O.O @ @ + + & > 9 w e e e e e e e e 4 ! 7.t Y 9.9.9.9.9.",
"9.9.9.9.9.S # 6.{ o @ @ @ @ @ @ @ o U 9.O.+ @ @ @ @ @ + @ $ , 2 0 e e e e e 4 #.6.e E 9.9.9.9.9.",
"9.9.9.9.9._ . ..8.q o @ @ @ @ @ @ o U 9.O.O @ @ @ @ @ @ @ @ @ @ # $ * > > ; j 9...3 @.9.9.9.9.9.",
"9.9.9.9.9.5.: u 9.O.# O @ @ @ @ + o U 9.%.O @ @ @ @ @ @ @ @ @ @ O + + + O % *.9.l i 6.9.9.9.9.9.",
"9.9.9.9.9.9.T   L 9.) @ O + @ @ @ o F 3.` O @ @ @ @ @ @ @ @ @ @ @ @ @ O # ` 9.Y 3 [ 9.9.9.9.9.9.",
"9.9.9.9.9.9.8.a X ( 9._ & O @ @ @ O & : & @ @ @ @ @ @ @ @ @ @ @ @ @ o = { 9.[ 4 M 8.9.9.9.9.9.9.",
"9.9.9.9.9.9.9.3.7 o R 9.*.7 X + @ @ @ + + @ @ @ @ @ @ @ @ @ @ @ + o q -.9./ 4 j 5.9.9.9.9.9.9.9.",
"9.9.9.9.9.9.9.9.<.7 . C 9.6.B @ o @ @ @ @ @ @ @ @ @ @ @ @ @ @ O @ C 8.8.P 3 h 2.9.9.9.9.9.9.9.9.",
"9.9.9.9.9.9.9.9.9.3.p   u ;.9.o.q o O @ @ @ @ @ @ @ @ @ @ O o q %.9.>.z < x 3.9.9.9.9.9.9.9.9.9.",
"9.9.9.9.9.9.9.9.9.9.7.Z X @ L 9.9.T 6 o + @ + + @ @ @ + o 6 Q 9.8.! e 4 H 6.9.9.9.9.9.9.9.9.9.9.",
"9.9.9.9.9.9.9.9.9.9.9.9.` 5   8 ..9.6.G 5 X O + @ O o 5 L 6.9.@.j < t [ 9.9.9.9.9.9.9.9.9.9.9.9.",
"9.9.9.9.9.9.9.9.9.9.9.9.9.3.b o o s *.9.6.T 7 O O 7 R 6.9.=.M 4 4 M ,.9.9.9.9.9.9.9.9.9.9.9.9.9.",
"9.9.9.9.9.9.9.9.9.9.9.9.9.9.9.X.q   O d *.9.9.` { 9.9.=.N w < i [ 9.9.9.9.9.9.9.9.9.9.9.9.9.9.9.",
"9.9.9.9.9.9.9.9.9.9.9.9.9.9.9.9.8.R :   O a { 9.9.+.m w < t Y 5.9.9.9.9.9.9.9.9.9.9.9.9.9.9.9.9.",
"9.9.9.9.9.9.9.9.9.9.9.9.9.9.9.9.9.9.3.D &   o q j 4 < e J 1.9.9.9.9.9.9.9.9.9.9.9.9.9.9.9.9.9.9.",
"9.9.9.9.9.9.9.9.9.9.9.9.9.9.9.9.9.9.9.9.<.C = . 1 t K ,.9.9.9.9.9.9.9.9.9.9.9.9.9.9.9.9.9.9.9.9.",
"9.9.9.9.9.9.9.9.9.9.9.9.9.9.9.9.9.9.9.9.9.9.<.F Y 1.9.9.9.9.9.9.9.9.9.9.9.9.9.9.9.9.9.9.9.9.9.9.",
"9.9.9.9.9.9.9.9.9.9.9.9.9.9.9.9.9.9.9.9.9.9.9.9.9.9.9.9.9.9.9.9.9.9.9.9.9.9.9.9.9.9.9.9.9.9.9.9."
};
