/* XPM */
static char *_07b1ceccf9f43b6ed804889d4093921[] = {
/* columns rows colors chars-per-pixel */
"16 16 28 1 ",
"  c #000031",
". c #010535",
"X c #020736",
"o c #070A3A",
"O c #070A3C",
"+ c #090D3D",
"@ c #0A0D3E",
"# c #0D1140",
"$ c #0F1241",
"% c #101341",
"& c #101342",
"* c #111441",
"= c #111442",
"- c #121442",
"; c #121542",
": c #131643",
"> c #141744",
", c #8D8685",
"< c #8E8785",
"1 c #8F8886",
"2 c #918A87",
"3 c #918A88",
"4 c #958D89",
"5 c #958E89",
"6 c #958E8A",
"7 c #978F8A",
"8 c #98908B",
"9 c None",
/* pixels */
"9999999999999999",
"9999999999999999",
"99999O=$&$$$9999",
"999129+&$$$$$999",
"999<79+=&99&&999",
"991<799=&99=&=99",
"991<999=&%99==99",
"9<1<9999%%99==o9",
"9<1<9999%%999=o9",
"991<999=%%99&=99",
"991<799=%99&==99",
"999<79+=%99&=999",
"999379$>:::::999",
"99999 ......9999",
"9999999999999999",
"9999999999999999"
};
