/* XPM */
static char *bitcoin32[] = {
/* columns rows colors chars-per-pixel */
"32 32 59 1 ",
"  c black",
". c #010000",
"X c #140404",
"o c #5B0D13",
"O c #981821",
"+ c #AB1B25",
"@ c #AD1A24",
"# c #AD1B24",
"$ c #AD1A25",
"% c #AC1B25",
"& c #AD1B25",
"* c #AE1A24",
"= c #AE1B25",
"- c #AF1B25",
"; c #AD1A26",
": c #AE1A26",
"> c #AE1B26",
", c #AF1B26",
"< c #AE1C25",
"1 c #AF1C25",
"2 c #AE1C26",
"3 c #B01B25",
"4 c #B11B25",
"5 c #B01B26",
"6 c #B11B26",
"7 c #B21B26",
"8 c #B01C25",
"9 c #B01C26",
"0 c #B11C26",
"q c #B21C26",
"w c #B31C26",
"e c #B21C27",
"r c #B31C27",
"t c #B41C26",
"y c #B51C26",
"u c #B41D26",
"i c #B51D26",
"p c #B41C27",
"a c #B51C27",
"s c #B51D27",
"d c #B61C27",
"f c #B71C27",
"g c #B61D27",
"h c #B71D27",
"j c #B81D27",
"k c #B91D27",
"l c #BA1C27",
"z c #BA1D27",
"x c #BC1E27",
"c c #B71C28",
"v c #B71D28",
"b c #B91C28",
"n c #B81D28",
"m c #B91D28",
"M c #BA1D28",
"N c #BB1D28",
"B c #BA1D29",
"V c #B81E28",
"C c None",
/* pixels */
"CCCCCCCCCCCCCCCCCCCCCCCCCCCCCCCC",
"CCCCCCCCCCCCCC11&&7CCCCCCCCCCCCC",
"CCCCCCCCCC71wdddaaew11CCCCCCCCCC",
"CCCCCCCC1wddCCCCCCCCCddwCCCCCCCC",
"CCCCCC  O1C          CCdwCCCCCCC",
"CCCCCC  CC             CmwCCCCCC",
"CCCCC  odC    CCCCC     CldCCCCC",
"CCCC  CmmlC   CCCCCC     CawCCCC",
"CCC  Cdw1CC    CCCCC      Cd&CCC",
"CCC Cmd7CCCC   CCCCC   C   CaCCC",
"CC  C7t&CCdaC   CCCC   C   Cd&CC",
"CC  lt&CC1maC    CCC   CC   C&CC",
"CC Cwd&CC+w&dC   CCC   CC   C7CC",
"CC CwwCCC&w&wdC   CC   CCC  Cw&C",
"C  Cw&CCC+w&1dC    C   CCC  Ca&C",
"C  Ca&CCC&w&&&wC       CCC  Cm1C",
"C  Cd&CCC+d&&1waC      CCC  Cm&C",
"C  Cd&CCC&w&C&waNC     CCC  Ca,C",
"CC C7wCCC&w&CC7&wC     CCC  Ce&C",
"CC Cwd&CC+a&CCCwwdC    CC   C7CC",
"CC  ma1CC+d&CCC&wwmC   CC   C&CC",
"CC  Cwd&C&w&CCCC1&wC  CC   Ca&CC",
"CCC Cmd&C&w&CCCCCw&wCCCC   CaCCC",
"CCC  Cdd&&&&CCCCC&aw&CC   Ca&CCC",
"CCCC  Caw11&CCCCCC7&wC   CaeCCCC",
"CCCCC  Cdd+&&CCCCC&w1wC CNdCCCCC",
"CCCCCC  Cxwddw+1&&1&waCCwmCCCCCC",
"CCCCCCC  CCmwwaaaawwmCCX7&CCCCCC",
"CCCCCCCC   CCCCCmCCCC   CCCCCCCC",
"CCCCCCCCCC            CCCCCCCCCC",
"CCCCCCCCCCCCC      CCCCCCCCCCCCC",
"CCCCCCCCCCCCCCCCCCCCCCCCCCCCCCCC"
};
