/* XPM */
static char *bitcoin32[] = {
/* columns rows colors chars-per-pixel */
"32 32 100 2 ",
"   c #241D2F",
".  c #2A2235",
"X  c #2E2739",
"o  c #2F283A",
"O  c #312A3C",
"+  c #352D42",
"@  c #373041",
"#  c #3A3344",
"$  c #3B324C",
"%  c #3F3949",
"&  c #3E3452",
"*  c #423B4C",
"=  c #403655",
"-  c #43385A",
";  c #473B61",
":  c #493D65",
">  c #473868",
",  c #4B3C6C",
"<  c #4B4554",
"1  c #524C5C",
"2  c #4E416E",
"3  c #5A5463",
"4  c #5E5866",
"5  c #5E5768",
"6  c #5F596A",
"7  c #4F4170",
"8  c #524472",
"9  c #574A76",
"0  c #594B77",
"q  c #5B4E7A",
"w  c #5E517B",
"e  c #625C6B",
"r  c #61547E",
"t  c #66616E",
"y  c #6A6572",
"u  c #6C6874",
"i  c #706B78",
"p  c #77727E",
"a  c #635780",
"s  c #655981",
"d  c #6A5E85",
"f  c #6E6289",
"g  c #71668B",
"h  c #776C90",
"j  c #786E91",
"k  c #7C7294",
"l  c #817D87",
"z  c #807697",
"x  c #847B9B",
"c  c #897F9F",
"v  c #88848E",
"b  c #8A8690",
"n  c #908D96",
"m  c #96939B",
"M  c #8D84A3",
"N  c #9087A5",
"B  c #9289A6",
"V  c #968DAA",
"C  c #9D9AA2",
"Z  c #9C94AE",
"A  c #A29FA7",
"S  c #A49DB5",
"D  c #A5A2AA",
"F  c #A8A5AD",
"G  c #A7A0B7",
"H  c #ACA4BB",
"J  c #B1AABF",
"K  c #B4B2B8",
"L  c #BBB9BF",
"P  c #B2ACC0",
"I  c #B7B1C4",
"U  c #BDBAC1",
"Y  c #BEB8CA",
"T  c #C1BFC4",
"R  c #C3BECE",
"E  c #C4C2C7",
"W  c #C5C3C8",
"Q  c #C8C6CA",
"!  c #CCCACF",
"~  c #C7C2D1",
"^  c #CAC6D5",
"/  c #CECDD1",
"(  c #D1CFD3",
")  c #D1CDD9",
"_  c #D3D2D6",
"`  c #D5D2DD",
"'  c #D8D6DD",
"]  c #DBDADD",
"[  c #DBD7E2",
"{  c #DBD9E2",
"}  c #E1DEE5",
"|  c #E2DFE8",
" . c #E4E3E5",
".. c #E6E4EA",
"X. c #E8E6EC",
"o. c #EBEAED",
"O. c #EEEDF1",
"+. c #F0EEF3",
"@. c #F3F2F4",
"#. c #FFFFFF",
/* pixels */
"#.#.#.#.#.#.#.#.#.#.#.#.#.#.#.#.#.#.#.#.#.#.#.#.#.#.#.#.#.#.#.#.",
"#.#.#.#.#.#.#.#.#.#.#.X.! A p 1 r M J ) O.#.#.#.#.#.#.#.#.#.#.#.",
"#.#.#.#.#.#.O.( F l 1 @ . . % 4 g q 2 , 9 f B I ' @.#.#.#.#.#.#.",
"#.#.#.X.v 3 * # * 5 l D Q  .O.@.@.@.X.) P B h r 9 w h Z O.#.#.#.",
"#.#.#.W % D !  .+.+.| ^ P N h a r j N J ^ } +.@.o.` J q ) #.#.#.",
"#.#.#.E y +.m l g w 8 , , , , , 8 , , , , 8 w g M S @.k ) #.#.#.",
"#.#.#.E y !   + 7 7 8 8 , , , , > > , , 8 8 8 , > > ` k ) #.#.#.",
"#.#.#.E y ^ X + 7 8 7 8 S H P P P J G x 8 , 8 8 8 7 ` k ) #.#.#.",
"#.#.#.E y ! o O : 8 8 9 ` ..........+.#.[ d , 8 8 7 ` k ) #.#.#.",
"#.#.#.E y ! o o - 8 8 8 9 8 8 8 8 8 9 x @.} 0 8 8 7 ` k ) #.#.#.",
"#.#.#.E y ! o o $ 8 8 , , , > , , 7 7 > c #.B , 8 7 ` k ) #.#.#.",
"#.#.#.E y ! o O o : 9 c N N N N M 9 8 7 w @.Y , 8 7 ` k ) #.#.#.",
"#.#.#.E y ! o O o $ 0 ` X.X.X.X.[ w 7 7 9 O.R , 8 2 ` k ) #.#.#.",
"#.#.#.E y ! o O O O : 9 9 9 8 9 8 8 8 , d #.G , 8 8 ` k ) #.#.#.",
"#.#.#.E y ! o O O X $ 7 , , > , > , > 8 R #.f , 8 7 ` k ) #.#.#.",
"#.#.#.E y ! o O O O o $ h M N N B N Z { #.S , 8 8 7 ` k ) #.#.#.",
"#.#.#.E y ! o O O O O . U #.#.#.#.#.@.` c , 8 8 8 2 ` k ) #.#.#.",
"#.#.#.E y ! o O O O O . L X.r a r r w 7 , 8 8 8 8 7 ` k ) #.#.#.",
"#.#.#.E y ! o o O O o . L  .$ : 7 7 7 8 8 7 8 8 7 7 ` k ) #.#.#.",
"#.#.#.E y ! o O O O o . L  .@ O = 2 8 8 8 8 8 8 8 7 ` k ) #.#.#.",
"#.#.#.E y _ o O O O O . L  .@ o o O & ; 2 8 8 8 8 8 { k ) #.#.#.",
"#.#.#.] < O.3 . O O O . L  .O O O O O O + # & - - g +.d ..#.#.#.",
"#.#.#.#.t C ] # o O O X U X.+ o O O O O o o o X # ] G z #.#.#.#.",
"#.#.#.#.' % E / % . O o 1 4 O O O O O O O O . * ( ^ q } #.#.#.#.",
"#.#.#.#.#.U # K  .e . o o . O O O O O O o . t  .Y 9 ~ #.#.#.#.#.",
"#.#.#.#.#.#.T % l o.D % . o O o O O o . * F O.V 9 ~ #.#.#.#.#.#.",
"#.#.#.#.#.#.#.] 3 < E  .v # . o o . # b  .^ s d { #.#.#.#.#.#.#.",
"#.#.#.#.#.#.#.#.#.m @ y _ } n * * n  .{ z 8 Z @.#.#.#.#.#.#.#.#.",
"#.#.#.#.#.#.#.#.#.#.] u O i ( o.o.[ x , h ` #.#.#.#.#.#.#.#.#.#.",
"#.#.#.#.#.#.#.#.#.#.#.#.E 3 . 6 h > f R #.#.#.#.#.#.#.#.#.#.#.#.",
"#.#.#.#.#.#.#.#.#.#.#.#.#.#.L e f R #.#.#.#.#.#.#.#.#.#.#.#.#.#.",
"#.#.#.#.#.#.#.#.#.#.#.#.#.#.#.#.#.#.#.#.#.#.#.#.#.#.#.#.#.#.#.#."
};
