/* XPM */
static char *bitcoin128[] = {
/* columns rows colors chars-per-pixel */
"128 128 3 1 ",
"  c None",
". c #051937",
"X c #989696",
/* pixels */
"                                                                                                                                ",
"                                                                                                                                ",
"                                                                                                                                ",
"                                                                                                                                ",
"                                                                                                                                ",
"                                                                                                                                ",
"                                                                                                                                ",
"                                                                                                                                ",
"                                                                                                                                ",
"                                                                                                                                ",
"                                                                                                                                ",
"                                                                                                                                ",
"                                                                                                                                ",
"                                                                                                                                ",
"                                                                                                                                ",
"                                                                                                                                ",
"                                                                                                                                ",
"                                                                                                                                ",
"                                                                                                                                ",
"                                                                                                                                ",
"                                                                                                                                ",
"                                                                                                                                ",
"                                                                                                                                ",
"                                        ................................................                                        ",
"                                         ................................................                                       ",
"                                          ...............................................                                       ",
"                                          ................................................                                      ",
"                                           ................................................                                     ",
"                                           ................................................                                     ",
"                                            ................................................                                    ",
"                                            ................................................                                    ",
"                                             ................................................                                   ",
"                                              ................................................                                  ",
"                                              ................................................                                  ",
"                                 XX            ................................................                                 ",
"                                 XX            ................................................                                 ",
"                                XXXX            ................................................                                ",
"                                XXXXX           ................                ................                                ",
"                               XXXXXX            ................                ................                               ",
"                              XXXXXXXX            ................                ................                              ",
"                              XXXXXXXX            ................                ................                              ",
"                             XXXXXXXXXX            ................                ................                             ",
"                             XXXXXXXXXX            ................                ................                             ",
"                            XXXXXXXXXXXX            ................                ................                            ",
"                            XXXXXXXXXXXXX           ................                ................                            ",
"                           XXXXXXXXXXXXXX            ................                ................                           ",
"                          XXXXXXXXXXXXXXXX            ................                ................                          ",
"                          XXXXXXXXXXXXXXXX            ................                ................                          ",
"                         XXXXXXXXXXXXXXXX              ................                ................                         ",
"                         XXXXXXXXXXXXXXXX              ................                ................                         ",
"                        XXXXXXXXXXXXXXXX                ................                ................                        ",
"                        XXXXXXXXXXXXXXXX                .................               ................                        ",
"                       XXXXXXXXXXXXXXXX                  ................                ................                       ",
"                      XXXXXXXXXXXXXXXX                    ................                ................                      ",
"                      XXXXXXXXXXXXXXXX                    ................                ................                      ",
"                     XXXXXXXXXXXXXXXX                      ................                ................                     ",
"                     XXXXXXXXXXXXXXXX                      ................                ................                     ",
"                    XXXXXXXXXXXXXXXX                        ................                ................                    ",
"                    XXXXXXXXXXXXXXXX                         ................               .................                   ",
"                   XXXXXXXXXXXXXXXX                          ................                ................                   ",
"                  XXXXXXXXXXXXXXXX                            ................                ................                  ",
"                  XXXXXXXXXXXXXXXX                            ................                ................                  ",
"                 XXXXXXXXXXXXXXXX                              ................                ................                 ",
"                 XXXXXXXXXXXXXXXX                              ................                ................                 ",
"                XXXXXXXXXXXXXXXX                                ................                ................                ",
"                 XXXXXXXXXXXXXXXX                              ................                ................                 ",
"                 XXXXXXXXXXXXXXXX                              ................                ................                 ",
"                  XXXXXXXXXXXXXXXX                            ................                ................                  ",
"                  XXXXXXXXXXXXXXXX                            ................                ................                  ",
"                   XXXXXXXXXXXXXXXX                          ................                ................                   ",
"                    XXXXXXXXXXXXXXXX                         ................               .................                   ",
"                    XXXXXXXXXXXXXXXX                        ................                ................                    ",
"                     XXXXXXXXXXXXXXXX                      ................                ................                     ",
"                     XXXXXXXXXXXXXXXX                      ................                ................                     ",
"                      XXXXXXXXXXXXXXXX                    ................                ................                      ",
"                      XXXXXXXXXXXXXXXX                    ................                ................                      ",
"                       XXXXXXXXXXXXXXXX                  ................                ................                       ",
"                        XXXXXXXXXXXXXXXX                .................               ................                        ",
"                        XXXXXXXXXXXXXXXX                ................                ................                        ",
"                         XXXXXXXXXXXXXXXX              ................                ................                         ",
"                         XXXXXXXXXXXXXXXX              ................                ................                         ",
"                          XXXXXXXXXXXXXXXX            ................                ................                          ",
"                          XXXXXXXXXXXXXXXX            ................                ................                          ",
"                           XXXXXXXXXXXXXX            ................                ................                           ",
"                            XXXXXXXXXXXXX           ................                ................                            ",
"                            XXXXXXXXXXXX            ................                ................                            ",
"                             XXXXXXXXXX            ................                ................                             ",
"                             XXXXXXXXXX            ................                ................                             ",
"                              XXXXXXXX            ................                ................                              ",
"                              XXXXXXXX            ................                ................                              ",
"                               XXXXXX            ................                ................                               ",
"                                XXXXX           ................                ................                                ",
"                                XXXX            ................................................                                ",
"                                 XX            ................................................                                 ",
"                                 XX            ................................................                                 ",
"                                              ................................................                                  ",
"                                              ................................................                                  ",
"                                             ................................................                                   ",
"                                            ................................................                                    ",
"                                            ................................................                                    ",
"                                           ................................................                                     ",
"                                           ................................................                                     ",
"                                          ................................................                                      ",
"                                          ................................................                                      ",
"                                         ................................................                                       ",
"                                        ................................................                                        ",
"                                                                                                                                ",
"                                                                                                                                ",
"                                                                                                                                ",
"                                                                                                                                ",
"                                                                                                                                ",
"                                                                                                                                ",
"                                                                                                                                ",
"                                                                                                                                ",
"                                                                                                                                ",
"                                                                                                                                ",
"                                                                                                                                ",
"                                                                                                                                ",
"                                                                                                                                ",
"                                                                                                                                ",
"                                                                                                                                ",
"                                                                                                                                ",
"                                                                                                                                ",
"                                                                                                                                ",
"                                                                                                                                ",
"                                                                                                                                ",
"                                                                                                                                ",
"                                                                                                                                "
};
