/* XPM */
static char *bitcoin64[] = {
/* columns rows colors chars-per-pixel */
"48 48 58 1 ",
"  c black",
". c #AC1A24",
"X c #AD1A24",
"o c #AC1B24",
"O c #AD1B24",
"+ c #AD1A25",
"@ c #AC1B25",
"# c #AD1B25",
"$ c #AE1B24",
"% c #AE1B25",
"& c #AF1B25",
"* c #AD1A26",
"= c #AD1B26",
"- c #AE1B26",
"; c #AF1B26",
": c #AC1C25",
"> c #AD1C25",
", c #AE1C25",
"< c #AF1C25",
"1 c #AD1C26",
"2 c #AE1C26",
"3 c #AF1C26",
"4 c #B01A25",
"5 c #B01B25",
"6 c #B11B25",
"7 c #B21B25",
"8 c #B01B26",
"9 c #B11B26",
"0 c #B21B26",
"q c #B31B26",
"w c #B21B27",
"e c #B01C25",
"r c #B11C25",
"t c #B01C26",
"y c #B11C26",
"u c #B21C26",
"i c #B31C26",
"p c #B31C27",
"a c #B41C26",
"s c #B51C26",
"d c #B41C27",
"f c #B51C27",
"g c #B41D27",
"h c #B61C26",
"j c #B61C27",
"k c #B71C27",
"l c #B61D27",
"z c #B71D27",
"x c #B81C27",
"c c #B81D27",
"v c #B91D27",
"b c #B51C28",
"n c #B81D28",
"m c #B91D28",
"M c #BA1D28",
"N c #BB1D28",
"B c #B81E28",
"V c None",
/* pixels */
"VVVVVVVVVVVVVVVVVVVVVVVVVVVVVVVVVVVVVVVVVVVVVVVV",
"VVVVVVVVVVVVVVVVVVVVVVVVVVVVVVVVVVVVVVVVVVVVVVVV",
"VVVVVVVVVVVVVVVVVVi###iaai###8VVVVVVVVVVVVVVVVVV",
"VVVVVVVVVVVVVVViiama#38#8i##mNa88VVVVVVVVVVVVVVV",
"VVVVVVVVVVVVV38ma3bVVVVVVVVVVa3iN88VVVVVVVVVVVVV",
"VVVVVVVVVVVV3vi8VVVV        VVVV8#v8#VVVVVVVVVVV",
"VVVVVVVVV   VaVVV              VVViaaiVVVVVVVVVV",
"VVVVVVVVV   VVV                  VVVia3VVVVVVVVV",
"VVVVVVVV    VV                     VV3aiVVVVVVVV",
"VVVVVVV   VVmVV     VVVVVVVVV       VVia8VVVVVVV",
"VVVVVV   VVia#V      VVVVVVVVV       VV3v#VVVVVV",
"VVVVVV  VVi##v8V     VVVVVVVVV        VVia#VVVVV",
"VVVVV   V3##i#VVV     VVVVVVVV         VViiVVVVV",
"VVVV   Vii@i8VVVV      VVVVVVV    V     V#m#VVVV",
"VVVV  VVi#8iVVVVVV     VVVVVVV    VV    VV#iVVVV",
"VVV   V###iVVVV8iVV     VVVVVV    VVV    V8m#VVV",
"VVV  VVi#i#VVV#ai3VV     VVVVV    VVV    VV8#VVV",
"VVV  V8i#8VVVV###i3V     VVVVV    VVVV    V#mVVV",
"VV   V3#i3VVVV#8##aVV     VVVV    VVVV    Vbm#VV",
"VV  VVa#iVVVVV#####iVV     VVV    VVVVV   VVa#VV",
"VV  Vaa##VVVVV#####i#V     VVV    VVVVV    V##VV",
"VV  Vii3#VVVVV#8####a8V     VV    VVVVV    V#aVV",
"VV  Viii#VVVVV#######8VV     V    VVVVV    V#vVV",
"VV  V3#8#VVVVV#######i3V          VVVVV    V8mVV",
"VV  V38i3VVVVV#8###i##a8V         VVVVV    V#mVV",
"VV  V333#VVVVV####V#a##iVV        VVVVV    V8vVV",
"VV  Vqi##VVVVV####VV#8#8#V        VVVVV    V#aVV",
"VV  Vaa#8VVVVV##8#VVVi##a#V       VVVVV    V38VV",
"VV  VVa#i#VVVV####VVV#b##aVV      VVVVV   VVi#VV",
"VV   V##i#VVVV####VVVV#8##3VV     VVVV    VVv#VV",
"VVV  V8i#iVVVV#88#VVVVV8##aiV     VVVV    V#mVVV",
"VVV  VVa#i8VVV####VVVVV#a##aVV    VVV    VV83VVV",
"VVV   V#i#aVVV####VVVVVV#i##iVV  VVVV    V8m#VVV",
"VVVV  VVi###VV##8#VVVVVVVi##a#VVVVVV    VV8qVVVV",
"VVVV   V8i#i3V####VVVVVVV#b##a#VVVV     V8v#VVVV",
"VVVVV  VV3i#8#####VVVVVVVV#i##8VVV     VV88VVVVV",
"VVVVVV  VV88######VVVVVVVVVi##i#V     VV8q3VVVVV",
"VVVVVV   VV8i#####VVVVVVVVVVi##aiV   VV3v#VVVVVV",
"VVVVVVV   VV3i####3VVVVVVVVV####iVV VV#a8VVVVVVV",
"VVVVVVVV   VVia8##ib##3###3#####i#VVbiiiVVVVVVVV",
"VVVVVVVVV   VVV3ai####iiii####iaiaVV#8aVVVVVVVVV",
"VVVVVVVVVV    VVVi#bii8###iib#3mVV Vai3VVVVVVVVV",
"VVVVVVVVVVVV    VVVVpi####iiVVVV    VVVVVVVVVVVV",
"VVVVVVVVVVVVV      VVVVVVVVVV      VVVVVVVVVVVVV",
"VVVVVVVVVVVVVVV                  VVVVVVVVVVVVVVV",
"VVVVVVVVVVVVVVVVVV            VVVVVVVVVVVVVVVVVV",
"VVVVVVVVVVVVVVVVVVVVVVVVVVVVVVVVVVVVVVVVVVVVVVVV",
"VVVVVVVVVVVVVVVVVVVVVVVVVVVVVVVVVVVVVVVVVVVVVVVV"
};
