/* XPM */
static char *bitcoin128[] = {
/* columns rows colors chars-per-pixel */
"128 128 53 1 ",
"  c black",
". c #AB1A25",
"X c #AB1B25",
"o c #AC1A24",
"O c #AD1A24",
"+ c #AC1B24",
"@ c #AD1B24",
"# c #AC1A25",
"$ c #AD1A25",
"% c #AC1B25",
"& c #AD1B25",
"* c #AE1A24",
"= c #AE1B24",
"- c #AF1B24",
"; c #AE1A25",
": c #AE1B25",
"> c #AF1B25",
", c #AC1A26",
"< c #AD1A26",
"1 c #AC1B26",
"2 c #AD1B26",
"3 c #AE1A26",
"4 c #AE1B26",
"5 c #AF1B26",
"6 c #AB1C26",
"7 c #AC1C24",
"8 c #AD1C24",
"9 c #AC1C25",
"0 c #AD1C25",
"q c #AE1C25",
"w c #AF1C25",
"e c #AD1C26",
"r c #AE1C26",
"t c #AF1C26",
"y c #B01B25",
"u c #B11B25",
"i c #B01A26",
"p c #B01B26",
"a c #B11B26",
"s c #B21B26",
"d c #B01C24",
"f c #B01C25",
"g c #B01C26",
"h c #B11C26",
"j c #B21C26",
"k c #B31C26",
"l c #B31C27",
"z c #B41C26",
"x c #B51C26",
"c c #B41C27",
"v c #B51C27",
"b c #B61C27",
"n c None",
/* pixels */
"nnnnnnnnnnnnnnnnnnnnnnnnnnnnnnnnnnnnnnnnnnnnnnnnnnnnnnnnnnnnnnnnnnnnnnnnnnnnnnnnnnnnnnnnnnnnnnnnnnnnnnnnnnnnnnnnnnnnnnnnnnnnnnnn",
"nnnnnnnnnnnnnnnnnnnnnnnnnnnnnnnnnnnnnnnnnnnnnnnnnnnnnnnnnnnnnnnnnnnnnnnnnnnnnnnnnnnnnnnnnnnnnnnnnnnnnnnnnnnnnnnnnnnnnnnnnnnnnnnn",
"nnnnnnnnnnnnnnnnnnnnnnnnnnnnnnnnnnnnnnnnnnnnnnnnnnnnnnnnnnnnnnnnnnnnnnnnnnnnnnnnnnnnnnnnnnnnnnnnnnnnnnnnnnnnnnnnnnnnnnnnnnnnnnnn",
"nnnnnnnnnnnnnnnnnnnnnnnnnnnnnnnnnnnnnnnnnnnnnnnnnnnnnnnnnnnnnnnnnnnnnnnnnnnnnnnnnnnnnnnnnnnnnnnnnnnnnnnnnnnnnnnnnnnnnnnnnnnnnnnn",
"nnnnnnnnnnnnnnnnnnnnnnnnnnnnnnnnnnnnnnnnnnnnnnnnnnnnnnn>>>X>>XX>p>X>X>>X>>nnnnnnnnnnnnnnnnnnnnnnnnnnnnnnnnnnnnnnnnnnnnnnnnnnnnnn",
"nnnnnnnnnnnnnnnnnnnnnnnnnnnnnnnnnnnnnnnnnnnnnnnnnn>>>gzpgt>>>>>>X>>>>>>tpcgX>>tnnnnnnnnnnnnnnnnnnnnnnnnnnnnnnnnnnnnnnnnnnnnnnnnn",
"nnnnnnnnnnnnnnnnnnnnnnnnnnnnnnnnnnnnnnnnnnnnnn>X>ggt>X>>X>X>X>>X>X>XX>X>>>>>>ggg>>nnnnnnnnnnnnnnnnnnnnnnnnnnnnnnnnnnnnnnnnnnnnnn",
"nnnnnnnnnnnnnnnnnnnnnnnnnnnnnnnnnnnnnnnnnnn>>>ll>>>X>>X>>X>X>XX>X>X>>X>XX>X>>>>>pgz>>nnnnnnnnnnnnnnnnnnnnnnnnnnnnnnnnnnnnnnnnnnn",
"nnnnnnnnnnnnnnnnnnnnnnnnnnnnnnnnnnnnnnnnn>>l>>X>>>X>>>X>>>>tpgzgzggggt>>>X>>XX>XX>X>ggtdnnnnnnnnnnnnnnnnnnnnnnnnnnnnnnnnnnnnnnnn",
"nnnnnnnnnnnnnnnnnnnnnnnnnnnnnnnnnnnnnnntgt>>>X>X>XX>pglg>>X>>>>>>>>>>X>>pgzg>>X>>X>X>>pgtpnnnnnnnnnnnnnnnnnnnnnnnnnnnnnnnnnnnnnn",
"nnnnnnnnnnnnnnnnnnnnnnnnnnnnnnnnnnnnntct>>>XX>>>>gg>>>>nnnnnnnnnnnnnnnnnnnt>>ggg>>X>>X>X>g>>nnnnnnnnnnnnnnnnnnnnnnnnnnnnnnnnnnnn",
"nnnnnnnnnnnnnnnnnnnnnnnnnnnnnnnnnnntz>>>X>X>X>zg>>nnnnnnnnnnnnnnnnnnnnnnnnnnnnt>>zg>X>X>>>>g>>nnnnnnnnnnnnnnnnnnnnnnnnnnnnnnnnnn",
"nnnnnnnnnnnnnnnnnnnnnnnnnnnnnnnnn>gtX>X>>X>gg>tnnnnnnnnnnnnnnnnnnnnnnnnnnnnnnnnnnn>tzp>>X>X>>gg>nnnnnnnnnnnnnnnnnnnnnnnnnnnnnnnn",
"nnnnnnnnnnnnnnnnnnnnnnnnnnnnnnnnpg>>>X>>>l>>nnnnnnnnnnn                  nnnnnnnnnnn>>gg>X>XX>pz>nnnnnnnnnnnnnnnnnnnnnnnnnnnnnnn",
"nnnnnnnnnnnnnnnnnnnnnnnnnnnnnnnn>>>XX>>p>>nnnnnnnn                           nnnnnnnnnnpggX>>X>Xg>>nnnnnnnnnnnnnnnnnnnnnnnnnnnnn",
"nnnnnnnnnnnnnnnnnnnnnnnnnnnnnnnn>lX>>g>>nnnnnnn                                  nnnnnnnnpg>X>X>>>ltnnnnnnnnnnnnnnnnnnnnnnnnnnnn",
"nnnnnnnnnnnnnnnnnnnnnnnnn     nnn>ggp>nnnnnn                                       nnnnnnnn>z>>>X>>ggnnnnnnnnnnnnnnnnnnnnnnnnnnn",
"nnnnnnnnnnnnnnnnnnnnnnnn       nnngpnnnnnn                                            nnnnnn>>g>>X>Xp>>nnnnnnnnnnnnnnnnnnnnnnnnn",
"nnnnnnnnnnnnnnnnnnnnnnn         nnnnnnnn                                                nnnnnntp>XX>>>lXnnnnnnnnnnnnnnnnnnnnnnnn",
"nnnnnnnnnnnnnnnnnnnnnnn         nnnnnn                                                   nnnnnn>tg>X>X>l>nnnnnnnnnnnnnnnnnnnnnnn",
"nnnnnnnnnnnnnnnnnnnnnnn         nnnnn                                                      nnnnnnpg>X>X>ptnnnnnnnnnnnnnnnnnnnnnn",
"nnnnnnnnnnnnnnnnnnnnnn          nnnnn                                                        nnnnn>z>>>X>z>nnnnnnnnnnnnnnnnnnnnn",
"nnnnnnnnnnnnnnnnnnnnn          nnnnnn                                                         nnnnn>p>>X>Xgpnnnnnnnnnnnnnnnnnnnn",
"nnnnnnnnnnnnnnnnnnnn          nn>pnnnn                   nnnnnnnnnnnnnn                        nnnnnXt>>X>>z>nnnnnnnnnnnnnnnnnnn",
"nnnnnnnnnnnnnnnnnnn         nnnggg>nnnn              nnnnnnnnnnnnnnnnnnnnnn                      nnnnnp>X>X>g>nnnnnnnnnnnnnnnnnn",
"nnnnnnnnnnnnnnnnnn        nnnnpz>Xctnnn              nnnnnnnnnnnnnnnnnnnnnnnnn                    nnnnn>>>>X>l>nnnnnnnnnnnnnnnnn",
"nnnnnnnnnnnnnnnnn        nnnn>g>X>>tnnnn              nnnnnnnnnnnnnnnnnnnnnnnnnn                   nnnnn>>>XX>gnnnnnnnnnnnnnnnnn",
"nnnnnnnnnnnnnnnn        nnnnpg>>>X>g>nnnn              nnnnnnnnnnnnnnnnnnnnnnnnn                    nnnnnt>>>X>gnnnnnnnnnnnnnnnn",
"nnnnnnnnnnnnnnnn       nnnn>g>X>X>X>l>nnn              nnnnnnnnnnnnnnnnnnnnnnnnn                     nnnn>p>>X>t>nnnnnnnnnnnnnnn",
"nnnnnnnnnnnnnnn       nnnn>g>>>X>X>X>pnnnn              nnnnnnnnnnnnnnnnnnnnnnnn                      nnnn>lX>X>l>nnnnnnnnnnnnnn",
"nnnnnnnnnnnnnn       nnnn>g>X>X>X>X>>>>nnnn              nnnnnnnnnnnnnnnnnnnnnnn                       nnnntg>>X>lnnnnnnnnnnnnnn",
"nnnnnnnnnnnnn        nnn>l>X>X>X>X>>>g>nnnn              nnnnnnnnnnnnnnnnnnnnnnn                        nnnn>>X>X>>nnnnnnnnnnnnn",
"nnnnnnnnnnnnn       nnnng>>XX>X>X>X>pnnnnnnn              nnnnnnnnnnnnnnnnnnnnnn                        nnnnng>>>Xg>nnnnnnnnnnnn",
"nnnnnnnnnnnn       nnnnt>>X>>X>X>X>tnnnnnnnnn              nnnnnnnnnnnnnnnnnnnnn                         nnnn>g>X>>pnnnnnnnnnnnn",
"nnnnnnnnnnnn       nnn>t>X>XX>X>>pgnnnnnnnnnnn             nnnnnnnnnnnnnnnnnnnnn            n             nnnn>pX>>ptnnnnnnnnnnn",
"nnnnnnnnnnn       nnn>l>X>X>>X>X>tnnnnnnnnnnnn              nnnnnnnnnnnnnnnnnnnn            n              nnnng>X>>znnnnnnnnnnn",
"nnnnnnnnnnn      nnnn>>>>X>X>X>>gnnnnnnnnnnnnnn              nnnnnnnnnnnnnnnnnnn            nn             nnnn>g>>Xg>nnnnnnnnnn",
"nnnnnnnnnn       nnn>gXXX>X>X>>g>nnnnnnnnnnnnnnn             nnnnnnnnnnnnnnnnnnn            nnn             nnnn>>X>>gnnnnnnnnnn",
"nnnnnnnnnn      nnnng>X>>X>X>>g>nnnnnnnnnnnnnnnn              nnnnnnnnnnnnnnnnnn            nnnn            nnnnog>X>gXnnnnnnnnn",
"nnnnnnnnn       nnn>>>>XX>X>Xg>nnnnnnnnnnnnnnnnnn              nnnnnnnnnnnnnnnnn            nnnnn            nnnnt>>>Xgnnnnnnnnn",
"nnnnnnnnn      nnn>g>>X>X>X>>>nnnnnnnnnnp>>t>nnnnn              nnnnnnnnnnnnnnnn            nnnnnn            nnn>g>>Xg>nnnnnnnn",
"nnnnnnnn       nnn>>>X>X>X>>l>nnnnnnnn>cl>X>gpnnnn              nnnnnnnnnnnnnnnn            nnnnnn            nnnnp>X>>pnnnnnnnn",
"nnnnnnnn      nnn>gXX>X>X>X>2nnnnnnnn>c>X>X>>>pnnnn              nnnnnnnnnnnnnnn            nnnnnnn            nnn>g>X>g>nnnnnnn",
"nnnnnnnn      nnn>p>>X>X>X>lnnnnnnnnnX>X>X>XX>g>nnnn              nnnnnnnnnnnnnn            nnnnnnnn           nnnngX>X>Xnnnnnnn",
"nnnnnnn      nnnng>XX>X>X>lXnnnnnnnnnz>>>X>X>X>l>nnn              nnnnnnnnnnnnnn            nnnnnnnn           nnnn>p>>>gnnnnnnn",
"nnnnnnn      nnnXg>>>X>X>Xgnnnnnnnnnnc>XX>X>X>X>gnnnn              nnnnnnnnnnnnn            nnnnnnnnn           nnnXpX>Xz>nnnnnn",
"nnnnnnn      nnnt>X>X>X>>g>nnnnnnnnnnc>X>X>X>X>Xt>nnnn              nnnnnnnnnnnn            nnnnnnnnn           nnnn>>>Xp@nnnnnn",
"nnnnnn      nnn>lX>X>X>>>gnnnnnnnnnnncX>X>X>X>X>>l>nnnn             nnnnnnnnnnnn            nnnnnnnnnn           nnn>gX>>gnnnnnn",
"nnnnnn      nnn>g>>X>X>X>>nnnnnnnnnnnc>>X>X>X>X>X>gnnnn              nnnnnnnnnnn            nnnnnnnnnn           nnn>g>>Xl>nnnnn",
"nnnnnn      nnn>>XX>X>X>l>nnnnnnnnnnnzX>>X>X>X>X>X>pnnnn              nnnnnnnnnn            nnnnnnnnnn           nnnnt>X>g>nnnnn",
"nnnnn      nnnnl>X>XX>>X>nnnnnnnnnnnnc>XX>X>X>X>X>Xg>nnnn             nnnnnnnnnn            nnnnnnnnnnn          nnnn>>X>>Xnnnnn",
"nnnnn      nnn>lX>X>>X>>>nnnnnnnnnnnncX>>X>X>X>X>X>Xgnnnn              nnnnnnnnn            nnnnnnnnnnn           nnn>g>X>gnnnnn",
"nnnnn      nnn>t>X>XX>Xl>nnnnnnnnnnnnc>>X>X>X>X>>X>Xppnnnn              nnnnnnnn            nnnnnnnnnnn           nnn>l>>>gnnnnn",
"nnnnn      nnnX>X>X>>X>gnnnnnnnnnnnnncX>>X>X>X>XX>X>>g>nnnn             nnnnnnnn            nnnnnnnnnnnn          nnnngXX>z>nnnn",
"nnnnn      nnng>>X>X>X>Xnnnnnnnnnnnnnc>XX>X>X>X>>X>X>Xz>nnn              nnnnnnn            nnnnnnnnnnnn          nnnn>>>XgXnnnn",
"nnnn      nnnnl>X>X>X>g>nnnnnnnnnnnnncX>>X>X>X>XX>X>X>>>nnnn              nnnnnn            nnnnnnnnnnnn           nnn>>X>>>nnnn",
"nnnn      nnn>p>>X>XX>g>nnnnnnnnnnnnnc>X>X>XX>X>>X>X>X>>>nnnn              nnnnn            nnnnnnnnnnnn           nnn>g>X>Xnnnn",
"nnnn      nnnXg>X>X>>Xznnnnnnnnnnnnnnc>>X>X>>X>XX>X>X>X>l>nnn              nnnnn            nnnnnnnnnnnnn          nnn>pX>>pnnnn",
"nnnn      nnn>>>>X>XX>gnnnnnnnnnnnnnncX>>X>XX>X>>X>X>X>X>gnnnn              nnnn            nnnnnnnnnnnnn          nnn>l>X>znnnn",
"nnnn      nnnX>XX>X>>>pnnnnnnnnnnnnnnl>XX>X>>X>XX>X>X>X>>t>nnnn              nnn            nnnnnnnnnnnnn          nnnnzX>Xgnnnn",
"nnnn      nnn>X>>X>X>>XnnnnnnnnnnnnnncX>>X>X>XX>>X>X>X>XX>lXnnnn             nnn            nnnnnnnnnnnnn          nnnnz>X>b6nnn",
"nnnn      nnnX>>X>X>X>>nnnnnnnnnnnnnnc>XX>X>X>>XX>X>X>X>>X>lnnnn              nn            nnnnnnnnnnnnn          nnnnzX>Xb>nnn",
"nnnn      nnn>>X>X>X>>>nnnnnnnnnnnnnnc>>>X>X>X>>>X>X>X>XX>X>>nnnn              n            nnnnnnnnnnnnn          nnnng>X>p>nnn",
"nnnn      nnn>X>X>X>X>Xnnnnnnnnnnnnnnc>>X>X>X>>X>>X>X>X>>X>Xl>nnnn             n            nnnnnnnnnnnnn          nnnnpX>>zXnnn",
"nnnn      nnnX>>>X>XX>>nnnnnnnnnnnnnncX>X>X>X>>>nt>X>X>X>X>X>gnnnn                          nnnnnnnnnnnnn          nnnnz>>>l>nnn",
"nnnn      nnn>XXX>X>>>>nnnnnnnnnnnnnnl>X>X>X>X>Xn>g>X>X>X>X>>>pnnnn                         nnnnnnnnnnnnn          nnnngX>>cXnnn",
"nnnn      nnn>>>>X>XX>>nnnnnnnnnnnnnncX>X>X>X>>>nn>p>X>X>X>X>Xg>nnnn                        nnnnnnnnnnnnn          nnnnz>X>c>nnn",
"nnnn      nnnX>XX>X>X>>nnnnnnnnnnnnnnc>X>X>X>X>Xnnnt>>X>X>X>X>Xltnnn                        nnnnnnnnnnnnn          nnnngX>Xl>nnn",
"nnnn      nnn>2>>X>X>X>nnnnnnnnnnnnnnc>>X>X>X>>>nnn>l>>X>X>X>X>>tnnnn                       nnnnnnnnnnnnn          nnnnz>X>znnnn",
"nnnn      nnnXlXX>X>X>gnnnnnnnnnnnnnnc>>>X>X>X>Xnnnn>zX>X>X>X>X>g>nnnn                      nnnnnnnnnnnnn          nnn>cX>>gnnnn",
"nnnn      nnn>gX>X>X>Xg>nnnnnnnnnnnnncX>X>X>X>>>nnnnnp>X>X>X>X>X>g>nnn                      nnnnnnnnnnnnn          nnn>p>XX>nnnn",
"nnnn      nnn>z>X>X>>>g>nnnnnnnnnnnnng>X>X>X>X>Xnnnnnng>X>X>X>X>X>pnnnn                     nnnnnnnnnnnnn          nnn>pX>>>nnnn",
"nnnn      nnnnl>>X>X>Xt>nnnnnnnnnnnnnc>>X>X>X>>>nnnnnn>g>X>X>X>XX>t>nnnn                    nnnnnnnnnnnn           nnn>p>X>>nnnn",
"nnnnn      nnn>>X>X>X>>Xnnnnnnnnnnnnnc>>>X>X>X>Xnnnnnnnp>>X>X>X>>X>l>nnnn                   nnnnnnnnnnnn          nnnn>>X>t>nnnn",
"nnnnn      nnn>>>X>XX>XlnnnnnnnnnnnnncX>X>X>X>>>nnnnnnnnp>X>>X>XX>X>gnnnn                   nnnnnnnnnnnn          nnnng>>Xg>nnnn",
"nnnnn      nnnXgX>X>>>>g>nnnnnnnnnnnnl>X>X>X>X>Xnnnnnnnn>g>XX>X>>X>>p>nnnn                  nnnnnnnnnnnn          nnnngXX>z>nnnn",
"nnnnn      nnn>l>X>XX>X>>nnnnnnnnnnnnc>>X>X>X>>>nnnnnnnnn>>>>X>XX>X>>g>nnnn                 nnnnnnnnnnn           nnn>g>>>gnnnnn",
"nnnnn      nnnngX>X>>XX>gnnnnnnnnnnnncX>>X>X>X>Xnnnnnnnnnnp>X>X>>X>XX>gnnnn                 nnnnnnnnnnn           nnn>>>X>>nnnnn",
"nnnnnn      nnnt>>>X>X>Xg>nnnnnnnnnnnc>XX>X>X>>>nnnnnnnnnnXl>X>XX>X>>Xppnnnn                nnnnnnnnnnn          nnnn>X>>tXnnnnn",
"nnnnnn      nnn>gXX>X>X>>>nnnnnnnnnnncX>>X>X>X>>nnnnnnnnnnn>>>X>>X>XX>>g>nnnn               nnnnnnnnnn           nnnng>>>g>nnnnn",
"nnnnnn      nnnng>>X>X>X>znnnnnnnnnnnc>X>X>X>X>>nnnnnnnnnnnnp>>XX>X>X>X>lXnnn               nnnnnnnnnn           nnn>g>X>gnnnnnn",
"nnnnnn       nnn>>X>X>X>Xt>nnnnnnnnnnc>>X>X>X>>XnnnnnnnnnnnnXzX>>X>X>X>X>tnnnn              nnnnnnnnn           nnnn>>X>>6nnnnnn",
"nnnnnnn      nnn>g>X>X>XX>pnnnnnnnnnncX>>X>X>X>>nnnnnnnnnnnnn>g>X>X>X>X>>t>nnnn             nnnnnnnnn           nnnng>>Xg>nnnnnn",
"nnnnnnn      nnnngX>X>X>>>p>nnnnnnnnnl>XX>X>X>>Xnnnnnnnnnnnnnnp>>X>X>X>X>>gXnnn             nnnnnnnn            nnn>t>X>znnnnnnn",
"nnnnnnn       nnn>g>>X>XX>>g>nnnnnnnncX>>X>X>X>>nnnnnnnnnnnnnn>gX>X>X>X>X>>>nnnn           nnnnnnnnn           nnnnp>>>>>nnnnnnn",
"nnnnnnnn      nnnng>X>X>>XX>gnnnnnnnnc>XX>X>X>>Xnnnnnnnnnnnnnnn>gX>X>X>X>XXg>nnnn          nnnnnnnn            nnn>gX>>g>nnnnnnn",
"nnnnnnnn       nnn>g>X>XX>X>gtnnnnnnnc>>>X>X>X>>nnnnnnnnnnnnnnnn>>X>X>X>X>X>c>nnnn        nnnnnnnnn           nnnn>>>X>gnnnnnnnn",
"nnnnnnnnn      nnnnzX>X>>X>X>gnnnnnnnc>>X>X>X>>Xnnnnnnnnnnnnnnnnnz>X>X>X>X>X>>nnnnn      nnnnnnnnn            nnn>g>X>tXnnnnnnnn",
"nnnnnnnnn       nnn>p>>XX>X>>>>nnnnnncX>>X>X>X>>nnnnnnnnnnnnnnnnn>g>X>X>X>X>>>>nnnnnnnnnnnnnnnnnn            nnnn>>XX>znnnnnnnnn",
"nnnnnnnnn       nnnnt>X>>X>X>>g>nnnnnl>XX>X>X>>Xnnnnnnnnnnnnnnnnnn>p>X>X>X>XX>g>nnnnnnnnnnnnnnnn             nnn>l>>>>>nnnnnnnnn",
"nnnnnnnnnn       nnn>g>XX>X>X>>g>nnnncX>>X>X>X>>nnnnnnnnnnnnnnnnnnng>>>XX>X>>X>gnnnnnnnnnnnnnnnn            nnnn2>>XXctnnnnnnnnn",
"nnnnnnnnnn       nnnn>>>>X>X>XX>l>nnnc>XX>X>X>>Xnnnnnnnnnnnnnnnnnnn>g>X>>X>XX>X>>nnnnnnnnnnnnnn            nnnn>lXX>>>nnnnnnnnnn",
"nnnnnnnnnnn       nnnng>X>X>>X>X>gXnnc>>>X>X>X>>nnnnnnnnnnnnnnnnnnnn>p>XX>X>X>X>l>nnnnnnnnnnnn             nnnn>>X>Xg>nnnnnnnnnn",
"nnnnnnnnnnnn      nnnn>l>X>XX>X>>>gnnl>XX>X>X>>Xnnnnnnnnnnnnnnnnnnnnnp>X>X>X>X>X>g>nnnnnnnnnn             nnnn>tX>>>>nnnnnnnnnnn",
"nnnnnnnnnnnn       nnnn>>XX>>X>X>X>>X>>X>X>X>X>>nnnnnnnnnnnnnnnnnnnnn>z>X>X>X>X>>>tnnnnnnnnn             nnnn>l>X>>lnnnnnnnnnnnn",
"nnnnnnnnnnnnn       nnnnt>>XX>X>X>X>>>X>X>X>X>>Xnnnnnnnnnnnnnnnnnnnnnntg>X>X>X>X>Xg>nnnnnnn              nnnn>>X>>pXnnnnnnnnnnnn",
"nnnnnnnnnnnnn       nnnnng>>>X>X>X>X>X>X>X>XX>>>nnnnnnnnnnnnnnnnnnnnnnn>>>X>>X>X>X>gtnnnnn              nnnn>p>X>>>nnnnnnnnnnnnn",
"nnnnnnnnnnnnnn       nnnn>g>X>X>X>X>X>X>X>X>>X>Xnnnnnnnnnnnnnnnnnnnnnnn>gX>XX>X>X>X>>nnnn              nnnn>g>X>Xl>nnnnnnnnnnnnn",
"nnnnnnnnnnnnnnn       nnnn>c>X>X>X>X>X>X>X>XX>>>nnnnnnnnnnnnnnnnnnnnnnnn>gX>>X>X>XX>g>nnnn            nnnnXl>>XXl>nnnnnnnnnnnnnn",
"nnnnnnnnnnnnnnn        nnnn>l>X>X>X>X>X>X>X>>X>Xnnnnnnnnnnnnnnnnnnnnnnnnnt>>X>X>X>>>>ptnnn           nnnnnp>>X>>tnnnnnnnnnnnnnnn",
"nnnnnnnnnnnnnnnn        nnnn>l>X>X>XX>X>>X>X>X>>nnnnnnnnnnnnnnnnnnnnnnnnn>g>>X>X>X>X>>tnnnn         nnnnng>X>X>pnnnnnnnnnnnnnnnn",
"nnnnnnnnnnnnnnnnn        nnnn>g>X>X>>X>XX>X>X>>Xnnnnnnnnnnnnnnnnnnnnnnnnnn>gX>X>X>X>X>t>nnnn       nnnnnt>>>X>c>nnnnnnnnnnnnnnnn",
"nnnnnnnnnnnnnnnnnn        nnnn>p>XX>X>X>>X>X>X>>>>nnnnnnnnnnnnnnnnnnnnnnnnnpp>X>>X>X>X>g>nnnn     nnnnnp>>X>>l>nnnnnnnnnnnnnnnnn",
"nnnnnnnnnnnnnnnnnnn        nnnn>>>>X>X>XX>X>X>X>ppt>nnnnnnnnnnnnnnnnnnnnnnn>gX>XX>X>X>>>gnnnn    nnnnnpg>X>>g>nnnnnnnnnnnnnnnnnn",
"nnnnnnnnnnnnnnnnnnn         nnnnntg>>>X>X>X>X>X>>X>gl>>>Xnnnnnnnnnnnnnnn>>>>X>X>>X>X>X>X>tnnnn  nnng>>>X>X>ttnnnnnnnnnnnnnnnnnnn",
"nnnnnnnnnnnnnnnnnnnn         nnnnnpz>X>>>X>X>X>X>>>>X>>lll>>X>>X>>>X>>>gzg>X>X>XX>X>X>X>>g>nnnnnnnpzt>X>X>l>nnnnnnnnnnnnnnnnnnnn",
"nnnnnnnnnnnnnnnnnnnnn         nnnnn>tg>>X>X>X>X>X>X>>X>X>X>>>lggppgt>>>>>X>XX>X>>X>X>X>X>>z>nnnnn>>>>X>X>gtnnnnnnnnnnnnnnnnnnnnn",
"nnnnnnnnnnnnnnnnnnnnnn         nnnnnn>gp>X>X>X>X>X>XX>X>X>XXX>>>>X>>X>X>X>X>>X>XX>X>X>X>>p>>nnnn>zX>X>X>>>nnnnnnnnnnnnnnnnnnnnnn",
"nnnnnnnnnnnnnnnnnnnnnnn          nnnnnn>g>>>X>X>X>>X>X>X>X>X>X>XX>X>X>X>>X>X>X>XX>X>>>>tgpnnnnnnXp>X>X>Xgnnnnnnnnnnnnnnnnnnnnnnn",
"nnnnnnnnnnnnnnnnnnnnnnnn          nnnnnnp>b2>>>X>XX>X>X>X>X>X>X>>X>X>X>XX>X>X>X>>X>>XggtnnnnnnnnpzX>X>>>znnnnnnnnnnnnnnnnnnnnnnn",
"nnnnnnnnnnnnnnnnnnnnnnnnnn          nnnnnn2>lg>>XX>X>X>X>X>X>X>XX>X>X>X>>X>X>X>XX>>ggpnnnnnnn nnnp>>>XXp>nnnnnnnnnnnnnnnnnnnnnnn",
"nnnnnnnnnnnnnnnnnnnnnnnnnnn          nnnnnnnnt>ct>X>X>X>X>X>X>X>>X>X>X>XX>X>X>>pgg>tnnnnnnn    nn>zp>>ggnnnnnnnnnnnnnnnnnnnnnnnn",
"nnnnnnnnnnnnnnnnnnnnnnnnnnnn           nnnnnnnn>>>cg>>>>>X>X>X>>X>X>>X>>X>>>>pz>>nnnnnnnn       nnnp>t>nnnnnnnnnnnnnnnnnnnnnnnnn",
"nnnnnnnnnnnnnnnnnnnnnnnnnnnnnn           nnnnnnnnnt>>>lgg>>>X>X>>X>XX>>tglg>>>nnnnnnnnn         nnnnnnnnnnnnnnnnnnnnnnnnnnnnnnnn",
"nnnnnnnnnnnnnnnnnnnnnnnnnnnnnnn             nnnnnnnnnnn>>X>>>ggczzgg>>>>>tnnnnnnnnnnn            nnnnnnnnnnnnnnnnnnnnnnnnnnnnnnn",
"nnnnnnnnnnnnnnnnnnnnnnnnnnnnnnnnn             nnnnnnnnnnnnnnnnnnnnnnnnnnnnnnnnnnnn              nnnnnnnnnnnnnnnnnnnnnnnnnnnnnnnn",
"nnnnnnnnnnnnnnnnnnnnnnnnnnnnnnnnnn               nnnnnnnnnnnnnnnnnnnnnnnnnnnnnn               nnnnnnnnnnnnnnnnnnnnnnnnnnnnnnnnnn",
"nnnnnnnnnnnnnnnnnnnnnnnnnnnnnnnnnnnn                 nnnnnnnnnnnnnnnnnnnnnn                 nnnnnnnnnnnnnnnnnnnnnnnnnnnnnnnnnnnn",
"nnnnnnnnnnnnnnnnnnnnnnnnnnnnnnnnnnnnnn                       nnnnnn                       nnnnnnnnnnnnnnnnnnnnnnnnnnnnnnnnnnnnnn",
"nnnnnnnnnnnnnnnnnnnnnnnnnnnnnnnnnnnnnnnn                                                nnnnnnnnnnnnnnnnnnnnnnnnnnnnnnnnnnnnnnnn",
"nnnnnnnnnnnnnnnnnnnnnnnnnnnnnnnnnnnnnnnnnnn                                           nnnnnnnnnnnnnnnnnnnnnnnnnnnnnnnnnnnnnnnnnn",
"nnnnnnnnnnnnnnnnnnnnnnnnnnnnnnnnnnnnnnnnnnnnn                                      nnnnnnnnnnnnnnnnnnnnnnnnnnnnnnnnnnnnnnnnnnnnn",
"nnnnnnnnnnnnnnnnnnnnnnnnnnnnnnnnnnnnnnnnnnnnnnnnn                               nnnnnnnnnnnnnnnnnnnnnnnnnnnnnnnnnnnnnnnnnnnnnnnn",
"nnnnnnnnnnnnnnnnnnnnnnnnnnnnnnnnnnnnnnnnnnnnnnnnnnnnn                      nnnnnnnnnnnnnnnnnnnnnnnnnnnnnnnnnnnnnnnnnnnnnnnnnnnnn",
"nnnnnnnnnnnnnnnnnnnnnnnnnnnnnnnnnnnnnnnnnnnnnnnnnnnnnnnnnnnnnnnn nnnnnnnnnnnnnnnnnnnnnnnnnnnnnnnnnnnnnnnnnnnnnnnnnnnnnnnnnnnnnnn",
"nnnnnnnnnnnnnnnnnnnnnnnnnnnnnnnnnnnnnnnnnnnnnnnnnnnnnnnnnnnnnnnnnnnnnnnnnnnnnnnnnnnnnnnnnnnnnnnnnnnnnnnnnnnnnnnnnnnnnnnnnnnnnnnn",
"nnnnnnnnnnnnnnnnnnnnnnnnnnnnnnnnnnnnnnnnnnnnnnnnnnnnnnnnnnnnnnnnnnnnnnnnnnnnnnnnnnnnnnnnnnnnnnnnnnnnnnnnnnnnnnnnnnnnnnnnnnnnnnnn",
"nnnnnnnnnnnnnnnnnnnnnnnnnnnnnnnnnnnnnnnnnnnnnnnnnnnnnnnnnnnnnnnnnnnnnnnnnnnnnnnnnnnnnnnnnnnnnnnnnnnnnnnnnnnnnnnnnnnnnnnnnnnnnnnn"
};
