/* XPM */
static char *bitcoin32[] = {
/* columns rows colors chars-per-pixel */
"32 32 147 2 ",
"   c #0E0A09",
".  c #0E0B09",
"X  c #0E0C08",
"o  c #0F0C09",
"O  c #100B0A",
"+  c #100D09",
"@  c #120D09",
"#  c #110D0A",
"$  c #120D0B",
"%  c #130D0B",
"&  c #120E0A",
"*  c #120E0B",
"=  c #140E0B",
"-  c #120E0C",
";  c #130E0C",
":  c #130F0C",
">  c #140F0D",
",  c #150F0D",
"<  c #14100C",
"1  c #15100D",
"2  c #15110D",
"3  c #16110D",
"4  c #17110D",
"5  c #16120D",
"6  c #15100E",
"7  c #16110E",
"8  c #17110E",
"9  c #17120E",
"0  c #17120F",
"q  c #18120E",
"w  c #18120F",
"e  c #18130F",
"r  c #19130F",
"t  c #19140F",
"y  c #181310",
"u  c #191310",
"i  c #1A1310",
"p  c #191410",
"a  c #191411",
"s  c #1A1410",
"d  c #1A1411",
"f  c #1A1511",
"g  c #1B1511",
"h  c #1B1613",
"j  c #1C1511",
"k  c #1D1511",
"l  c #1D1611",
"z  c #1C1512",
"x  c #1C1612",
"c  c #1D1612",
"v  c #1C1613",
"b  c #1D1713",
"n  c #1E1612",
"m  c #1E1713",
"M  c #1F1713",
"N  c #1C1714",
"B  c #1D1714",
"V  c #1E1812",
"C  c #1F1813",
"Z  c #1C1814",
"A  c #1D1815",
"S  c #1F1914",
"D  c #1F1915",
"F  c #201813",
"G  c #201814",
"H  c #201914",
"J  c #211914",
"K  c #201815",
"L  c #211915",
"P  c #211A15",
"I  c #211B15",
"U  c #221A15",
"Y  c #211916",
"T  c #201A17",
"R  c #221A16",
"E  c #231A16",
"W  c #221B16",
"Q  c #231B16",
"!  c #231B17",
"~  c #241B16",
"^  c #241B17",
"/  c #241C17",
"(  c #251C17",
")  c #251D17",
"_  c #261C17",
"`  c #211B18",
"'  c #221B18",
"]  c #231B18",
"[  c #211C18",
"{  c #251C18",
"}  c #251D18",
"|  c #261D18",
" . c #271D18",
".. c #261E18",
"X. c #271E18",
"o. c #261E19",
"O. c #271E19",
"+. c #241D1A",
"@. c #251D1A",
"#. c #271F1A",
"$. c #281E19",
"%. c #281F19",
"&. c #281F1A",
"*. c #291F1A",
"=. c #291F1B",
"-. c #29201A",
";. c #28201B",
":. c #29201B",
">. c #2A201B",
",. c #29211C",
"<. c #2A211C",
"1. c #2B211C",
"2. c #2B211D",
"3. c #2B221C",
"4. c #2A221D",
"5. c #2B221D",
"6. c #2B221E",
"7. c #2B231E",
"8. c #2C221D",
"9. c #2D231E",
"0. c #2C231F",
"q. c #2C241F",
"w. c #2D241F",
"e. c #2D251F",
"r. c #2D2420",
"t. c #2E2521",
"y. c #2D2621",
"u. c #2E2620",
"i. c #2F2620",
"p. c #2F2621",
"a. c #2F2721",
"s. c #2E2723",
"d. c #2F2824",
"f. c #302621",
"g. c #302722",
"h. c #302723",
"j. c #312823",
"k. c #312924",
"l. c #322924",
"z. c #332A26",
"x. c #332B26",
"c. c #342B25",
"v. c #352C27",
"b. c #362C27",
"n. c #362D28",
"m. c #362E2A",
"M. c None",
/* pixels */
"M.M.M.M.M.M.M.M.M.M.M.M.M.M.M.M.M.M.M.M.M.M.M.M.M.M.M.M.M.M.M.M.",
"M.M.M.M.M.M.M.M.M.M.M.M.M.M.M.M.M.M.M.M.M.M.M.M.M.M.M.M.M.M.M.M.",
"M.M.M.M.M.M.M.M.M.M.M.M.M.n.x.c.n.M.M.T x.M.M.M.M.M.M.M.M.M.M.M.",
"M.M.M.M.M.M.M.M.M.M.M.#.z u u F #.5.i.D 0 i.M.M.M.M.M.M.M.M.M.M.",
"M.M.M.M.M.M.M.M.M.M.3 0 N M.M.  % 3 / 9.a z 5.i.M.M.M.M.M.M.M.M.",
"M.M.M.M.M.M.M.M.M.M.s.i.i.i.n.M.M.M.; #.-.z *.-.j.M.M.M.M.M.M.M.",
"M.M.M.M.M.M.M.x.i.*.#.*.#.#.I T M.M.M.z 5.z #.#.-.i.x.M.M.M.M.M.",
"M.M.M.M.x.i.5.*.*.#.*.#.*.z X M.M.M.M.D #.D #.*.*.#.*.w M.M.M.M.",
"M.M.M.% I *.*.*.#.*.#.*.*.u M.M.M.M.M.D *.#.*.#.#.*.^ M.M.M.M.M.",
"M.M.M.M.C *.*.#.*.#.*.#.*.D M.M.M.M.M.#.#.*.#.*.*.*.I M.M.M.M.M.",
"M.M.M.M.F -.*.#.#.*.#.*.#.-.M.M.M.M.M.*.*.#.*.#.#.*.z M.M.M.M.M.",
"M.M.M.M.z *.#.*.*.#.*.#.#.5.i.M.M.M.r.*.#.*.#.*.*.#.z M.M.M.M.M.",
"M.M.M.M.I *.*.#.I *.*.*.#.*.-.j.n.f.-.5.-.-.*.#.*. .u M.M.M.M.M.",
"M.M.M.M./ #.#.z +.*.-.*.I #.#.*.5.#.^ a t t I *.*.^ z I M.M.M.M.",
"M.M.M.M.#.*.3 I 5.#.z 3 % % a *.#.*.w   M.M.= / *.z N z M.M.M.M.",
"M.M.M.M./ F u 5.^ 3 O M.M.M.X a *.^ M.M.M.M.M./ I = #.3 M.M.M.M.",
"M.M.M.M.^ w I *.u M.M.M.M.M.M.u *./ M.M.M.M.M.D % I ^ M.M.M.M.M.",
"M.M.M.M.F w / *.; M.M.M.M.M.M.I #.*.M.M.M.M.M.% M.5.d M.M.M.M.M.",
"M.M.M.M.z 3 / / M.M.M.M.M.M.M.#.*.*.7.M.M.M.M.M.i.I M.M.M.M.M.M.",
"M.M.M.M.w < ^ #.M.M.M.M.M.M.M.*.#.-.*.7.M.M.M.f.#.; M.M.M.M.M.M.",
"M.M.M.M.M.M.I *.M.M.I r.M.x.5.#.*.#.#.*.-.i.9.I 3 M.M.M.M.M.M.M.",
"M.M.M.M.M.M.w *.^ M.z *.5.*.*.*.#.*.#.D F C a 3 T M.M.M.M.M.M.M.",
"M.M.M.M.M.M.M.I -.M.3 #.*.#.#.*.*.#.*.-.+.Z +.5.z M.M.M.M.M.M.M.",
"M.M.M.M.M.M.M.w *.M.M.z *.#.*.#.#.*.#.*.-.9.#.3 M.M.M.M.M.M.M.M.",
"M.M.M.M.M.M.M.M.u 9.M.% C -.#.*.#.*.-.-.*.I 3 M.M.M.M.M.M.M.M.M.",
"M.M.M.M.M.M.M.M.M.a 5.M.% z #.#.*.#.*. .u % M.M.M.M.M.M.M.M.M.M.",
"M.M.M.M.M.M.M.M.M.M.; N M.  w #.*.#./ w   M.M.M.M.M.M.M.M.M.M.M.",
"M.M.M.M.M.M.M.M.M.M.M.M.M.M.M.3 / *.a M.M.M.M.M.M.M.M.M.M.M.M.M.",
"M.M.M.M.M.M.M.M.M.M.M.M.M.M.M.M.w I % M.M.M.M.M.M.M.M.M.M.M.M.M.",
"M.M.M.M.M.M.M.M.M.M.M.M.M.M.M.M.M.; M.M.M.M.M.M.M.M.M.M.M.M.M.M.",
"M.M.M.M.M.M.M.M.M.M.M.M.M.M.M.M.M.M.M.M.M.M.M.M.M.M.M.M.M.M.M.M.",
"M.M.M.M.M.M.M.M.M.M.M.M.M.M.M.M.M.M.M.M.M.M.M.M.M.M.M.M.M.M.M.M."
};
