/* XPM */
static char *_25c4c731515418c8e55f4a994f5b0b9[] = {
/* columns rows colors chars-per-pixel */
"16 16 62 1 ",
"  c #00A66D",
". c #01A66D",
"X c #00A76E",
"o c #01A76E",
"O c #04A76E",
"+ c #06A76E",
"@ c #00A86E",
"# c #02A96F",
"$ c #05A86E",
"% c #04A86F",
"& c #06A86E",
"* c #06A96F",
"= c #09A96F",
"- c #06AB71",
"; c #00AF72",
": c #00AF73",
"> c #01AF73",
", c #0AA970",
"< c #0AAA71",
"1 c #00B073",
"2 c #01B073",
"3 c #02B174",
"4 c #00B274",
"5 c #00B275",
"6 c #00B375",
"7 c #02B274",
"8 c #00B476",
"9 c #02B577",
"0 c #01B979",
"q c #00BA79",
"w c #01C98A",
"e c #02CB8B",
"r c #02CB8C",
"t c #00CE8E",
"y c #00CF8E",
"u c #00CF8F",
"i c #00D08E",
"p c #00D08F",
"a c #00D090",
"s c #01D090",
"d c #00D190",
"f c #02D190",
"g c #02D191",
"h c #00D291",
"j c #00D391",
"k c #02D291",
"l c #02D491",
"z c #02D693",
"x c #02D793",
"c c #00D794",
"v c #02D794",
"b c #02DB96",
"n c #00DD98",
"m c #00DE99",
"M c #00DF99",
"N c #00DF9A",
"B c #00E09A",
"V c #00E29C",
"C c #00E39C",
"Z c #00E59D",
"A c #00E69E",
"S c None",
/* pixels */
"SSSSSSSSSSSSSSSS",
"SSSSSSS-rSSSSSSS",
"SSSSS&39bNsSSSSS",
"SSS=X0+SSpAssSSS",
"SS&8@<SSSSsuBpSS",
"SS:XSSSSSSSSuNSS",
"SS:@SS+6xxSSuBSS",
"SS:XSS6XwBSSuBSS",
"SS3XSS3XwNSSuBSS",
"SS:XSS+6bsSSuNSS",
"SS6XSSSSSSSSunSS",
"SS&@SSSSSSxuNpSS",
"SSSSSS&SSpCbpSSS",
"SSSSSS06xCpSSSSS",
"SSSSSSS<wSSSSSSS",
"SSSSSSSSSSSSSSSS"
};
