/* XPM */
static char *bitcoin16[] = {
/* columns rows colors chars-per-pixel */
"16 16 3 1 ",
"  c None",
". c #051937",
"X c #989696",
/* pixels */
"                ",
"    ........    ",
"     ........   ",
"     .... ...   ",
"  XX  ...  ...  ",
" XXX   ..   ... ",
" XXX   ...  ... ",
"XXX     ..   ...",
"XXX     ..   ...",
" XXX   ...  ... ",
" XXX   ..   ... ",
"  XX  ...  ...  ",
"     .... ...   ",
"     ........   ",
"    ........    ",
"                "
};
