/* XPM */
static char *e057e68b39854f1bb194baf2cc3162bc[] = {
/* columns rows colors chars-per-pixel */
"64 64 222 2 ",
"   c #00A36B",
".  c #00A46B",
"X  c #01A46B",
"o  c #00A56B",
"O  c #01A56B",
"+  c #06A46B",
"@  c #07A46B",
"#  c #00A46C",
"$  c #01A46C",
"%  c #00A56C",
"&  c #01A56C",
"*  c #00A66C",
"=  c #01A66C",
"-  c #00A66D",
";  c #00A76D",
":  c #06A76E",
">  c #09A46B",
",  c #09A56B",
"<  c #0AA46B",
"1  c #09A56C",
"2  c #0AA46C",
"3  c #00A86D",
"4  c #00A86E",
"5  c #00A96F",
"6  c #02A86E",
"7  c #02A96E",
"8  c #00AA6F",
"9  c #00AB6F",
"0  c #02AA6F",
"q  c #04A86E",
"w  c #05A96F",
"e  c #06A86E",
"r  c #07A86E",
"t  c #07A96E",
"y  c #06A86F",
"u  c #06A96F",
"i  c #08A96E",
"p  c #08A86F",
"a  c #08A96F",
"s  c #09A96F",
"d  c #0BA96E",
"f  c #0AA86F",
"g  c #09AA6F",
"h  c #0DA86F",
"j  c #0CA96F",
"k  c #0EA96F",
"l  c #0FA96F",
"z  c #12A86D",
"x  c #10A96F",
"c  c #11A96F",
"v  c #13A86F",
"b  c #00AB70",
"n  c #01AB70",
"m  c #00AC70",
"M  c #00AC71",
"N  c #00AD71",
"B  c #00AE71",
"V  c #00AC72",
"C  c #00AD72",
"Z  c #00AE72",
"A  c #00AF72",
"S  c #03AE72",
"D  c #05AD71",
"F  c #07AC71",
"G  c #07AD71",
"H  c #07AE71",
"J  c #05AD72",
"K  c #04AF72",
"L  c #07AE72",
"P  c #08A970",
"I  c #09A970",
"U  c #0CA970",
"Y  c #0DAA71",
"T  c #0CAB71",
"R  c #0FAB72",
"E  c #08AD71",
"W  c #0BAD73",
"Q  c #09AE72",
"!  c #09AF73",
"~  c #0CAD71",
"^  c #0FAE74",
"/  c #11A870",
"(  c #10A970",
")  c #13A970",
"_  c #10AA71",
"`  c #11AA71",
"'  c #12AA71",
"]  c #13AB71",
"[  c #15AA71",
"{  c #14AB71",
"}  c #16AA71",
"|  c #17AA71",
" . c #16AC71",
".. c #15AD72",
"X. c #17AD73",
"o. c #19A970",
"O. c #19A971",
"+. c #18AA70",
"@. c #18AA71",
"#. c #19AB72",
"$. c #1AAB72",
"%. c #1FAA71",
"&. c #1DAB72",
"*. c #1DAB73",
"=. c #1EAB72",
"-. c #1FAB73",
";. c #18AD73",
":. c #19AD73",
">. c #1CAC73",
",. c #00B073",
"<. c #01B073",
"1. c #01B173",
"2. c #02B073",
"3. c #03B073",
"4. c #03B173",
"5. c #00B174",
"6. c #01B174",
"7. c #00B375",
"8. c #04B174",
"9. c #04B274",
"0. c #00B677",
"q. c #05B677",
"w. c #09B174",
"e. c #20A76F",
"r. c #21A970",
"t. c #20AA71",
"y. c #23A972",
"u. c #28AB75",
"i. c #2CAB75",
"p. c #04C587",
"a. c #04C687",
"s. c #05C687",
"d. c #05C688",
"f. c #05C788",
"g. c #06C688",
"h. c #00CB8C",
"j. c #00CB8D",
"k. c #00CC8C",
"l. c #00CD8C",
"z. c #00CC8D",
"x. c #00CD8D",
"c. c #00CE8D",
"v. c #00CF8D",
"b. c #00CD8E",
"n. c #00CE8E",
"m. c #00CF8E",
"M. c #00CF8F",
"N. c #0DC98B",
"B. c #0ACA8C",
"V. c #0BCA8C",
"C. c #08CE8E",
"Z. c #00D08F",
"A. c #00D18F",
"S. c #01D18F",
"D. c #03D08E",
"F. c #03D38F",
"G. c #05D08E",
"H. c #0DCE90",
"J. c #00D090",
"K. c #00D190",
"L. c #01D190",
"P. c #00D191",
"I. c #02D190",
"U. c #00D290",
"Y. c #01D290",
"T. c #00D291",
"R. c #01D291",
"E. c #00D391",
"W. c #02D290",
"Q. c #02D291",
"!. c #00D192",
"~. c #00D292",
"^. c #01D292",
"/. c #00D392",
"(. c #01D392",
"). c #00D293",
"_. c #02D292",
"`. c #03D292",
"'. c #03D392",
"]. c #02D293",
"[. c #04D190",
"{. c #05D191",
"}. c #06D191",
"|. c #05D291",
" X c #04D292",
".X c #04D393",
"XX c #00D492",
"oX c #00D592",
"OX c #00D593",
"+X c #03D492",
"@X c #00D693",
"#X c #01D693",
"$X c #00D793",
"%X c #04D490",
"&X c #05D491",
"*X c #04D492",
"=X c #04D592",
"-X c #04D493",
";X c #02D395",
":X c #00D794",
">X c #08D293",
",X c #08D493",
"<X c #0FD394",
"1X c #0CD494",
"2X c #00D894",
"3X c #00D895",
"4X c #00D995",
"5X c #01D995",
"6X c #00DA95",
"7X c #02DA95",
"8X c #00DA96",
"9X c #01DA96",
"0X c #00DB96",
"qX c #01DB96",
"wX c #00DB97",
"eX c #02DB97",
"rX c #00DC97",
"tX c #01DC97",
"yX c #00DE99",
"uX c #00DF99",
"iX c #00E59D",
"pX c None",
/* pixels */
"pXpXpXpXpXpXpXpXpXpXpXpXpXpXpXpXpXpXpXpXpXpXpXpXpXpXpXpXpXpXpXpXpXpXpXpXpXpXpXpXpXpXpXpXpXpXpXpXpXpXpXpXpXpXpXpXpXpXpXpXpXpXpXpX",
"pXpXpXpXpXpXpXpXpXpXpXpXpXpXpXpXpXpXpXpXpXpXpXpXpXpXpXpXpXpXpXpXpXpXpXpXpXpXpXpXpXpXpXpXpXpXpXpXpXpXpXpXpXpXpXpXpXpXpXpXpXpXpXpX",
"pXpXpXpXpXpXpXpXpXpXpXpXpXpXpXpXpXpXpXpXpXpXpXpXpXpXpXpXpXpXpXpXpXpXpXpXpXpXpXpXpXpXpXpXpXpXpXpXpXpXpXpXpXpXpXpXpXpXpXpXpXpXpXpX",
"pXpXpXpXpXpXpXpXpXpXpXpXpXpXpXpXpXpXpXpXpXpXpXpXpXpXpXpXpXpXpXpXN.pXpXpXpXpXpXpXpXpXpXpXpXpXpXpXpXpXpXpXpXpXpXpXpXpXpXpXpXpXpXpX",
"pXpXpXpXpXpXpXpXpXpXpXpXpXpXpXpXpXpXpXpXpXpXpXpXpXpXpXpXpXpXp ~ oXQ.pXpXpXpXpXpXpXpXpXpXpXpXpXpXpXpXpXpXpXpXpXpXpXpXpXpXpXpXpXpX",
"pXpXpXpXpXpXpXpXpXpXpXpXpXpXpXpXpXpXpXpXpXpXpXpXpXpXpXpX' p V > s.Q.9XZ.pXpXpXpXpXpXpXpXpXpXpXpXpXpXpXpXpXpXpXpXpXpXpXpXpXpXpXpX",
"pXpXpXpXpXpXpXpXpXpXpXpXpXpXpXpXpXpXpXpXpXpXpXpXpXpXpXU 1.. * , f.Z.h.oXQ.>XpXpXpXpXpXpXpXpXpXpXpXpXpXpXpXpXpXpXpXpXpXpXpXpXpXpX",
"pXpXpXpXpXpXpXpXpXpXpXpXpXpXpXpXpXpXpXpXpXpXpXpXpX' 8.* * * * , s.n.n.n.n.9XQ.pXpXpXpXpXpXpXpXpXpXpXpXpXpXpXpXpXpXpXpXpXpXpXpXpX",
"pXpXpXpXpXpXpXpXpXpXpXpXpXpXpXpXpXpXpXpXpXpXpXy.K 5 $ * * * * , f.n.n.n.k.k.n.9X|.pXpXpXpXpXpXpXpXpXpXpXpXpXpXpXpXpXpXpXpXpXpXpX",
"pXpXpXpXpXpXpXpXpXpXpXpXpXpXpXpXpXpXpXpXpX$.t V $ $ * $ * * * , f.n.k.n.n.k.n.k.Q.9XQ.pXpXpXpXpXpXpXpXpXpXpXpXpXpXpXpXpXpXpXpXpX",
"pXpXpXpXpXpXpXpXpXpXpXpXpXpXpXpXpXpXpXpXP 1.* * * $ $ * * $ . , s.n.n.k.k.n.k.n.n.h.9XZ.oXpXpXpXpXpXpXpXpXpXpXpXpXpXpXpXpXpXpXpX",
"pXpXpXpXpXpXpXpXpXpXpXpXpXpXpXpXpXpXU 1.5 . * * $ * * $ * * . p G.n.k.n.n.k.n.k.n.n.h.n.9XQ.pXpXpXpXpXpXpXpXpXpXpXpXpXpXpXpXpXpX",
"pXpXpXpXpXpXpXpXpXpXpXpXpXpXpXpXU K V * * $ * * * $ * $ * * 7.x C.9XQ.h.n.n.k.n.h.n.n.n.h.n.0XQ.pXpXpXpXpXpXpXpXpXpXpXpXpXpXpXpX",
"pXpXpXpXpXpXpXpXpXpXpXpXpXpX$.p V $ . . $ * $ * $ * $ $ V k R pXpXpXQ.wXh.n.n.n.n.k.k.n.k.n.k.oXoX|.pXpXpXpXpXpXpXpXpXpXpXpXpXpX",
"pXpXpXpXpXpXpXpXpXpXpXpXpXh 1.* * $ * $ * $ * * . * M P r.pXpXpXpXpXpXQ.Z.9Xn.k.k.k.n.k.n.k.n.k.n.9XQ.|.pXpXpXpXpXpXpXpXpXpXpXpX",
"pXpXpXpXpXpXpXpXpXpXpX' K 5 * * $ * $ * $ * . . 5 1.[ pXpXpXpXpXpXpXpXpXpXQ.oXoXh.n.k.n.k.n.k.n.n.n.n.rXQ.pXpXpXpXpXpXpXpXpXpXpX",
"pXpXpXpXpXpXpXpXpX>.t V   * $ * $ * $ * $ . . 1.x pXpXpXpXpXpXpXpXpXpXpXpXpXpXQ.9XZ.h.n.k.n.k.n.h.n.k.h.Z.9XQ.pXpXpXpXpXpXpXpXpX",
"pXpXpXpXpXpXpXpX' V * * * * * $ * $ $ $ . V t [ pXpXpXpXpXpXpXpXpXpXpXpXpXpXpXpXpXQ.9Xn.h.k.n.k.n.k.k.n.n.k.oXoXQ.pXpXpXpXpXpXpX",
"pXpXpXpXpXpXpX..,.* * * $ * $ * $ $ * M V $.pXpXpXpXpXpXpXpXpXpXpXpXpXpXpXpXpXpXpXpX<XQ.oXn.n.n.n.k.n.k.k.n.n.Z.n.pXpXpXpXpXpXpX",
"pXpXpXpXpXpXpX:.M * $ * * $ * $ * * <./ pXpXpXpXpXpXpXpXpXpXpXpXpXpXpXpXpXpXpXpXpXpXpXpXQ.9XQ.n.k.n.k.n.n.k.n.Z.n.pXpXpXpXpXpXpX",
"pXpXpXpXpXpXpX..V * * * $ * * * 1.t >.pXpXpXpXpXpXpXpXpXpXpXpXpXpXpXpXpXpXpXpXpXpXpXpXpXpXpXQ.0Xn.n.n.k.n.k.n.Z.Z.pXpXpXpXpXpXpX",
"pXpXpXpXpXpXpX:.V * * * * * * t ' pXpXpXpXpXpXpXpXpXpXpXpXpXpXpXpXpXpXpXpXpXpXpXpXpXpXpXpXpXpX>XZ.Z.k.n.k.n.n.Q.n.pXpXpXpXpXpXpX",
"pXpXpXpXpXpXpXW V * $ * $ $ V pXpXpXpXpXpXpXpXpXpXpXpXpXpXpXP p &XQ.pXpXpXpXpXpXpXpXpXpXpXpXpXpXpXn.Z.k.n.k.n.Z.Z.pXpXpXpXpXpXpX",
"pXpXpXpXpXpXpXV V $ * $ * $ V pXpXpXpXpXpXpXpXpXpXpXpXpXpXU ,.+ s.9X|.|.pXpXpXpXpXpXpXpXpXpXpXpXpXZ.Z.n.k.n.k.Z.n.pXpXpXpXpXpXpX",
"pXpXpXpXpXpXpXV V * * * $ $ V pXpXpXpXpXpXpXpXpXpXpXpXp V * * + p.n.k.9XZ.Q.pXpXpXpXpXpXpXpXpXpXpXZ.Z.k.n.k.n.Z.Z.pXpXpXpXpXpXpX",
"pXpXpXpXpXpXpXV V * * * * $ V pXpXpXpXpXpXpXpXpXpX[ V 5 * $ * + s.n.h.n.Z.0XQ.pXpXpXpXpXpXpXpXpXpXZ.Z.n.k.n.n.Z.n.pXpXpXpXpXpXpX",
"pXpXpXpXpXpXpXV V $ * $ * * V pXpXpXpXpXpXpXpX%.t 1.. 5 $ * $ + p.n.n.k.k.h.Q.9X1XpXpXpXpXpXpXpXpXZ.Z.k.n.k.n.Z.Z.pXpXpXpXpXpXpX",
"pXpXpXpXpXpXpXV V * $ * * * V pXpXpXpXpXpXpXpX5 5 . . . * $ * + p.n.n.n.n.n.n.k.iXpXpXpXpXpXpXpXpXn.Z.n.k.n.n.Q.n.pXpXpXpXpXpXpX",
"pXpXpXpXpXpXpXV V * $ * $ $ 1.pXpXpXpXpXpXpXpX* . . * * $ * * + s.n.k.n.k.n.k.n.9XpXpXpXpXpXpXpXpXn.Q.n.n.k.n.Z.Z.pXpXpXpXpXpXpX",
"pXpXpXpXpXpXpXV V * * $ * $ V pXpXpXpXpXpXpXpX* 5 . * * * $ $ + p.n.n.k.n.k.n.h.9XpXpXpXpXpXpXpXpXZ.Z.n.k.n.k.Z.n.pXpXpXpXpXpXpX",
"pXpXpXpXpXpXpXV 1.* * * $ $ V pXpXpXpXpXpXpXpX* . . . * $ * $ + p.n.k.n.k.n.k.h.9XpXpXpXpXpXpXpXpXn.Z.n.n.k.n.Z.Z.pXpXpXpXpXpXpX",
"pXpXpXpXpXpXpXV V * * * * $ V pXpXpXpXpXpXpXpX* 5 . * * * $ * + s.n.n.k.n.h.n.n.9XpXpXpXpXpXpXpXpXZ.Z.k.k.n.n.Q.n.pXpXpXpXpXpXpX",
"pXpXpXpXpXpXpXV V $ * $ * * 1.pXpXpXpXpXpXpXpX* * $ * $ * $ * + p.n.n.k.n.k.n.k.9XpXpXpXpXpXpXpXpXn.Z.n.n.k.n.Z.Z.pXpXpXpXpXpXpX",
"pXpXpXpXpXpXpXV V * $ * * . V pXpXpXpXpXpXpXpX* * * $ * $ * $ + s.n.k.n.k.n.k.n.9XpXpXpXpXpXpXpXpXQ.Z.n.k.n.k.Z.Z.pXpXpXpXpXpXpX",
"pXpXpXpXpXpXpXV V * * $ * $ V pXpXpXpXpXpXpXpX* * * * $ * $ $ + p.n.k.k.n.k.n.k.9XpXpXpXpXpXpXpXpXZ.Z.n.n.k.n.Z.Z.pXpXpXpXpXpXpX",
"pXpXpXpXpXpXpXV V * $ * * $ V pXpXpXpXpXpXpXpX* * $ $ * $ * * + p.Z.k.n.k.n.k.n.9XpXpXpXpXpXpXpXpXZ.Z.k.k.n.n.Z.n.pXpXpXpXpXpXpX",
"pXpXpXpXpXpXpXV 1.* * * * $ V pXpXpXpXpXpXpXpX* * $ $ * * * * + s.n.k.n.n.n.n.h.rXpXpXpXpXpXpXpXpXn.Z.k.n.k.n.Z.Z.pXpXpXpXpXpXpX",
"pXpXpXpXpXpXpXV V . * * * $ V pXpXpXpXpXpXpXpX#.8.5 $ * * * * + p.n.n.k.k.h.n.9X,XpXpXpXpXpXpXpXpXZ.Z.n.k.n.n.Q.n.pXpXpXpXpXpXpX",
"pXpXpXpXpXpXpXV V * * * * * V pXpXpXpXpXpXpXpXpXpXP <.* . . . + p.n.n.n.h.9Xn.;XpXpXpXpXpXpXpXpXpXn.Q.n.n.k.n.Z.Z.pXpXpXpXpXpXpX",
"pXpXpXpXpXpXpXV V $ * $ * * V pXpXpXpXpXpXpXpXpXpXpXt.* V * . + s.n.k.Q.9X|.pXpXpXpXpXpXpXpXpXpXpXn.Z.n.k.n.k.Z.n.pXpXpXpXpXpXpX",
"pXpXpXpXpXpXpXV V * * * * $ 1.pXpXpXpXpXpXpXpXpXpXpXpXpX[ ! 5 > p.Z.0X&XpXpXpXpXpXpXpXpXpXpXpXpXpXn.Z.n.k.n.n.Q.Z.pXpXpXpXpXpXpX",
"pXpXpXpXpXpXpXV V * * * $ $ V pXpXpXpXpXpXpXpXpXpXpXpXpXpXpXh K Z.&XpXpXpXpXpXpXpXpXpXpXpXpXpXpXpXn.Z.k.n.k.n.Z.n.pXpXpXpXpXpXpX",
"pXpXpXpXpXpXpXV V * * $ * $ V pXpXpXpXpXpXpXpXpXpXpXpXpXpXpXpX$.V.pXpXpXpXpXpXpXpXpXpXpXpXpXpXpXQ.Z.k.n.k.n.n.Z.Z.pXpXpXpXpXpXpX",
"pXpXpXpXpXpXpXV V * $ * $ $ V pXpXpXpXpXpXpXpXpXpXpXpXpXpXpXpXpXpXpXpXpXpXpXpXpXpXpXpXpXpXpXQ.oXoXn.n.k.n.k.n.Z.n.pXpXpXpXpXpXpX",
"pXpXpXpXpXpXpXV V . * * * $ <.pXpXpXpXpXpXpXpXpXpXpXpXpXpXpXpXpXpXpXpXpXpXpXpXpXpXpXpXpX|.Q.9Xn.n.n.k.n.n.k.n.Z.n.pXpXpXpXpXpXpX",
"pXpXpXpXpXpXpXV V   * * $ * V pXpXpXpXpXpXpXpXpXpXpXpXpXpXpXpXpXpXpXpXpXpXpXpXpXpXpXpXQ.9Xn.k.n.n.k.n.k.k.n.k.n.Z.pXpXpXpXpXpXpX",
"pXpXpXpXpXpXpXW w.M * * * $ <.pXpXpXpXpXpXpXpXpXpXpXpXpXpXpXpXpXpXpXpXpXpXpXpXpXpXoX9XQ.n.h.n.k.k.n.k.n.n.k.Z.rXZ.pXpXpXpXpXpXpX",
"pXpXpXpXpXpXpXpXpX[ <.* $ $ <.pXpXpXpXpXpXpXpXq.%.pXpXpXpXpXpXpXpXpXpXpXpXpXpXQ.Q.oXh.n.n.n.k.n.n.k.n.h.n.0XQ.pXpXpXpXpXpXpXpXpX",
"pXpXpXpXpXpXpXpXpXpXpXk 1.. V pXpXpXpXpXpXpXpX5 V k >.pXpXpXpXpXpXpXpXpXpXpXZ.9Xn.h.n.k.n.n.n.h.k.n.h.oXQ.Q.pXpXpXpXpXpXpXpXpXpX",
"pXpXpXpXpXpXpXpXpXpXpXpX>.t 7.pXpXpXpXpXpXpXpXV . . 1.x pXpXpXpXpXpXpXpXQ.0XZ.h.n.n.k.n.h.h.n.n.h.Q.9XQ.pXpXpXpXpXpXpXpXpXpXpXpX",
"pXpXpXpXpXpXpXpXpXpXpXpXpXpXR pXpXpXpXpXpXpXpXV . . . 5 1.$.pXpXpXpXZ.2XoXn.n.k.k.n.n.k.n.k.n.n.0XQ.pXpXpXpXpXpXpXpXpXpXpXpXpXpX",
"pXpXpXpXpXpXpXpXpXpXpXpXpXpXpXpXpXpXpXpXpXpXpXV . . . . * 5 ! e.H.Q.2Xk.k.n.k.n.n.k.k.n.k.n.9XQ.|.pXpXpXpXpXpXpXpXpXpXpXpXpXpXpX",
"pXpXpXpXpXpXpXpXpXpXpXpXpXpXpXpXpXpXpXpXpXpXpXM * * * $ * $ $ F &XZ.h.n.n.k.n.k.k.n.k.n.oXoXQ.pXpXpXpXpXpXpXpXpXpXpXpXpXpXpXpXpX",
"pXpXpXpXpXpXpXpXpXpXpXpXpXpXpXpXpXpXpXpXpXpXpXM . * $ * * $ * > s.n.n.n.k.n.k.n.n.h.Z.9XQ.pXpXpXpXpXpXpXpXpXpXpXpXpXpXpXpXpXpXpX",
"pXpXpXpXpXpXpXpXpXpXpXpXpXpXpXpXpXpXpXpXpXpXpX1.  * * $ $ * $ , s.n.h.n.n.h.n.n.n.0XZ.pXpXpXpXpXpXpXpXpXpXpXpXpXpXpXpXpXpXpXpXpX",
"pXpXpXpXpXpXpXpXpXpXpXpXpXpXpXpXpXpXpXpXpXpXpX:.1.* $ * * $ * > s.n.n.k.n.n.h.oXQ.Q.pXpXpXpXpXpXpXpXpXpXpXpXpXpXpXpXpXpXpXpXpXpX",
"pXpXpXpXpXpXpXpXpXpXpXpXpXpXpXpXpXpXpXpXpXpXpXpXu.v V * * * . , s.n.n.n.h.oXoXQ.pXpXpXpXpXpXpXpXpXpXpXpXpXpXpXpXpXpXpXpXpXpXpXpX",
"pXpXpXpXpXpXpXpXpXpXpXpXpXpXpXpXpXpXpXpXpXpXpXpXpXpX$.K 5 . . , f.n.k.Z.9XZ.pXpXpXpXpXpXpXpXpXpXpXpXpXpXpXpXpXpXpXpXpXpXpXpXpXpX",
"pXpXpXpXpXpXpXpXpXpXpXpXpXpXpXpXpXpXpXpXpXpXpXpXpXpXpXpXr.,.5 , g.n.9XQ.pXpXpXpXpXpXpXpXpXpXpXpXpXpXpXpXpXpXpXpXpXpXpXpXpXpXpXpX",
"pXpXpXpXpXpXpXpXpXpXpXpXpXpXpXpXpXpXpXpXpXpXpXpXpXpXpXpXpXpXk ! Z.oXQ.pXpXpXpXpXpXpXpXpXpXpXpXpXpXpXpXpXpXpXpXpXpXpXpXpXpXpXpXpX",
"pXpXpXpXpXpXpXpXpXpXpXpXpXpXpXpXpXpXpXpXpXpXpXpXpXpXpXpXpXpXpXi.V.pXpXpXpXpXpXpXpXpXpXpXpXpXpXpXpXpXpXpXpXpXpXpXpXpXpXpXpXpXpXpX",
"pXpXpXpXpXpXpXpXpXpXpXpXpXpXpXpXpXpXpXpXpXpXpXpXpXpXpXpXpXpXpXpXpXpXpXpXpXpXpXpXpXpXpXpXpXpXpXpXpXpXpXpXpXpXpXpXpXpXpXpXpXpXpXpX",
"pXpXpXpXpXpXpXpXpXpXpXpXpXpXpXpXpXpXpXpXpXpXpXpXpXpXpXpXpXpXpXpXpXpXpXpXpXpXpXpXpXpXpXpXpXpXpXpXpXpXpXpXpXpXpXpXpXpXpXpXpXpXpXpX",
"pXpXpXpXpXpXpXpXpXpXpXpXpXpXpXpXpXpXpXpXpXpXpXpXpXpXpXpXpXpXpXpXpXpXpXpXpXpXpXpXpXpXpXpXpXpXpXpXpXpXpXpXpXpXpXpXpXpXpXpXpXpXpXpX"
};
