/* XPM */
static char *bitcoin64[] = {
/* columns rows colors chars-per-pixel */
"64 64 3 1 ",
"  c None",
". c #051937",
"X c #989696",
/* pixels */
"                                                                ",
"                                                                ",
"                                                                ",
"                                                                ",
"                 ...............................                ",
"                 ................................               ",
"                 ................................               ",
"                  ................................              ",
"                  ................................              ",
"                   ................................             ",
"                    ...............................             ",
"                    ................................            ",
"           XX        ................................           ",
"           XX        ................................           ",
"          XXXX        ...........          ...........          ",
"          XXXXX       ...........           ..........          ",
"         XXXXXX        ...........          ...........         ",
"         XXXXXXX        ..........           ..........         ",
"        XXXXXXXX        ...........          ...........        ",
"       XXXXXXXXXX        ..........           ...........       ",
"       XXXXXXXXXX        ...........           ..........       ",
"      XXXXXXXXXXX         ...........          ...........      ",
"      XXXXXXXXXX           ..........           ..........      ",
"     XXXXXXXXXXX           ...........          ...........     ",
"    XXXXXXXXXXX             ..........           ...........    ",
"    XXXXXXXXXXX             ...........          ...........    ",
"   XXXXXXXXXXX               ..........           ...........   ",
"   XXXXXXXXXX                ...........           ..........   ",
"  XXXXXXXXXXX                 ...........          ...........  ",
"  XXXXXXXXXX                   ..........           ..........  ",
" XXXXXXXXXXX                   ...........          ........... ",
"XXXXXXXXXXX                     ..........           ...........",
"XXXXXXXXXXX                     ..........           ...........",
" XXXXXXXXXXX                   ...........          ........... ",
"  XXXXXXXXXX                   ..........           ..........  ",
"  XXXXXXXXXXX                 ...........          ...........  ",
"   XXXXXXXXXX                ...........           ..........   ",
"   XXXXXXXXXXX               ..........           ...........   ",
"    XXXXXXXXXXX             ...........          ...........    ",
"    XXXXXXXXXXX             ..........           ...........    ",
"     XXXXXXXXXXX           ...........          ...........     ",
"      XXXXXXXXXX           ..........           ..........      ",
"      XXXXXXXXXXX         ...........          ...........      ",
"       XXXXXXXXXX        ...........           ..........       ",
"       XXXXXXXXXX        ..........           ...........       ",
"        XXXXXXXX        ...........          ...........        ",
"         XXXXXXX        ..........           ..........         ",
"         XXXXXX        ...........          ...........         ",
"          XXXXX       ...........           ..........          ",
"          XXXX        ...........          ...........          ",
"           XX        ................................           ",
"           XX        ................................           ",
"                    ................................            ",
"                    ...............................             ",
"                   ................................             ",
"                  ................................              ",
"                  ................................              ",
"                 ................................               ",
"                 ................................               ",
"                 ...............................                ",
"                                                                ",
"                                                                ",
"                                                                ",
"                                                                "
};
