/* XPM */
static char *bitcoin128[] = {
/* columns rows colors chars-per-pixel */
"128 128 3 1 ",
"  c None",
". c #051937",
"X c #989696",
/* pixels */
"                                                                                                                                ",
"                                                                                                                                ",
"                                                                                                                                ",
"                                                                                                                                ",
"                                                                                                                                ",
"                                                                                                                                ",
"                                                                                                                                ",
"                                                                                                                                ",
"                                                                                                                                ",
"                                 ...............................................................                                ",
"                                 ................................................................                               ",
"                                  ...............................................................                               ",
"                                  ................................................................                              ",
"                                   ................................................................                             ",
"                                   ................................................................                             ",
"                                    ................................................................                            ",
"                                     ...............................................................                            ",
"                                     ................................................................                           ",
"                                      ...............................................................                           ",
"                                      ................................................................                          ",
"                                       ................................................................                         ",
"                                       ................................................................                         ",
"                                        ................................................................                        ",
"                        X                ...............................................................                        ",
"                       XX                ................................................................                       ",
"                       XXX                ...............................................................                       ",
"                      XXXX                ................................................................                      ",
"                     XXXXXX                ......................                    ......................                     ",
"                     XXXXXXX                .....................                     .....................                     ",
"                    XXXXXXXX                .....................                      .....................                    ",
"                    XXXXXXXXX                .....................                     .....................                    ",
"                   XXXXXXXXXX                .....................                      .....................                   ",
"                   XXXXXXXXXXX                .....................                     .....................                   ",
"                  XXXXXXXXXXXX                ......................                     .....................                  ",
"                 XXXXXXXXXXXXXX                .....................                     ......................                 ",
"                 XXXXXXXXXXXXXXX                .....................                     .....................                 ",
"                XXXXXXXXXXXXXXXX                .....................                      .....................                ",
"                XXXXXXXXXXXXXXXXX                .....................                     .....................                ",
"               XXXXXXXXXXXXXXXXXX                ......................                     .....................               ",
"              XXXXXXXXXXXXXXXXXXXX                .....................                     ......................              ",
"              XXXXXXXXXXXXXXXXXXXXX               ......................                     .....................              ",
"             XXXXXXXXXXXXXXXXXXXXXX                .....................                     ......................             ",
"             XXXXXXXXXXXXXXXXXXXXX                  .....................                     .....................             ",
"            XXXXXXXXXXXXXXXXXXXXX                   .....................                      .....................            ",
"            XXXXXXXXXXXXXXXXXXXXX                    .....................                     .....................            ",
"           XXXXXXXXXXXXXXXXXXXXX                     ......................                     .....................           ",
"          XXXXXXXXXXXXXXXXXXXXXX                      .....................                     ......................          ",
"          XXXXXXXXXXXXXXXXXXXXX                       ......................                     .....................          ",
"         XXXXXXXXXXXXXXXXXXXXXX                        .....................                     ......................         ",
"         XXXXXXXXXXXXXXXXXXXXX                          .....................                     .....................         ",
"        XXXXXXXXXXXXXXXXXXXXX                           .....................                      .....................        ",
"        XXXXXXXXXXXXXXXXXXXXX                            .....................                     .....................        ",
"       XXXXXXXXXXXXXXXXXXXXX                             ......................                     .....................       ",
"      XXXXXXXXXXXXXXXXXXXXXX                              .....................                     ......................      ",
"      XXXXXXXXXXXXXXXXXXXXX                                .....................                     .....................      ",
"     XXXXXXXXXXXXXXXXXXXXX                                 .....................                      .....................     ",
"     XXXXXXXXXXXXXXXXXXXXX                                  .....................                     .....................     ",
"    XXXXXXXXXXXXXXXXXXXXX                                   .....................                      .....................    ",
"    XXXXXXXXXXXXXXXXXXXXX                                    .....................                     .....................    ",
"   XXXXXXXXXXXXXXXXXXXXX                                     ......................                     .....................   ",
"  XXXXXXXXXXXXXXXXXXXXXX                                      .....................                     ......................  ",
"  XXXXXXXXXXXXXXXXXXXXX                                        .....................                     .....................  ",
" XXXXXXXXXXXXXXXXXXXXX                                         .....................                      ..................... ",
" XXXXXXXXXXXXXXXXXXXXX                                          .....................                     ..................... ",
" XXXXXXXXXXXXXXXXXXXXX                                          .....................                     ..................... ",
" XXXXXXXXXXXXXXXXXXXXX                                         .....................                      ..................... ",
"  XXXXXXXXXXXXXXXXXXXXX                                        .....................                     .....................  ",
"  XXXXXXXXXXXXXXXXXXXXXX                                      .....................                     ......................  ",
"   XXXXXXXXXXXXXXXXXXXXX                                     ......................                     .....................   ",
"   XXXXXXXXXXXXXXXXXXXXXX                                    .....................                     ......................   ",
"    XXXXXXXXXXXXXXXXXXXXX                                   .....................                      .....................    ",
"     XXXXXXXXXXXXXXXXXXXXX                                  .....................                     .....................     ",
"     XXXXXXXXXXXXXXXXXXXXX                                 .....................                      .....................     ",
"      XXXXXXXXXXXXXXXXXXXXX                                .....................                     .....................      ",
"      XXXXXXXXXXXXXXXXXXXXXX                              .....................                     ......................      ",
"       XXXXXXXXXXXXXXXXXXXXX                             ......................                     .....................       ",
"        XXXXXXXXXXXXXXXXXXXXX                            .....................                     .....................        ",
"        XXXXXXXXXXXXXXXXXXXXX                           .....................                      .....................        ",
"         XXXXXXXXXXXXXXXXXXXXX                          .....................                     .....................         ",
"         XXXXXXXXXXXXXXXXXXXXXX                        .....................                     ......................         ",
"          XXXXXXXXXXXXXXXXXXXXX                        .....................                     .....................          ",
"          XXXXXXXXXXXXXXXXXXXXXX                      .....................                     ......................          ",
"           XXXXXXXXXXXXXXXXXXXXX                     ......................                     .....................           ",
"            XXXXXXXXXXXXXXXXXXXXX                    .....................                     .....................            ",
"            XXXXXXXXXXXXXXXXXXXXX                   .....................                      .....................            ",
"             XXXXXXXXXXXXXXXXXXXXX                  .....................                     .....................             ",
"             XXXXXXXXXXXXXXXXXXXXXX                .....................                     ......................             ",
"              XXXXXXXXXXXXXXXXXXXXX               ......................                     .....................              ",
"              XXXXXXXXXXXXXXXXXXXX                .....................                     ......................              ",
"               XXXXXXXXXXXXXXXXXX                ......................                     .....................               ",
"                XXXXXXXXXXXXXXXXX                .....................                     .....................                ",
"                XXXXXXXXXXXXXXXX                .....................                      .....................                ",
"                 XXXXXXXXXXXXXXX                .....................                     .....................                 ",
"                 XXXXXXXXXXXXXX                .....................                     ......................                 ",
"                  XXXXXXXXXXXX                ......................                     .....................                  ",
"                   XXXXXXXXXXX                .....................                     ......................                  ",
"                   XXXXXXXXXX                .....................                      .....................                   ",
"                    XXXXXXXXX                .....................                     .....................                    ",
"                    XXXXXXXX                .....................                      .....................                    ",
"                     XXXXXXX                .....................                     .....................                     ",
"                     XXXXXX                ......................                    ......................                     ",
"                      XXXX                ................................................................                      ",
"                       XXX                ...............................................................                       ",
"                       XX                ................................................................                       ",
"                        X                ...............................................................                        ",
"                                        ................................................................                        ",
"                                        ...............................................................                         ",
"                                       ................................................................                         ",
"                                      ................................................................                          ",
"                                      ...............................................................                           ",
"                                     ................................................................                           ",
"                                     ...............................................................                            ",
"                                    ................................................................                            ",
"                                   ................................................................                             ",
"                                   ................................................................                             ",
"                                  ................................................................                              ",
"                                  ...............................................................                               ",
"                                 ................................................................                               ",
"                                 ...............................................................                                ",
"                                                                                                                                ",
"                                                                                                                                ",
"                                                                                                                                ",
"                                                                                                                                ",
"                                                                                                                                ",
"                                                                                                                                ",
"                                                                                                                                ",
"                                                                                                                                ",
"                                                                                                                                "
};
