/* XPM */
static char *bitcoin64[] = {
/* columns rows colors chars-per-pixel */
"48 48 229 2 ",
"   c #0C0805",
".  c #0C0807",
"X  c #0E0B08",
"o  c #0F0B08",
"O  c #0F0B09",
"+  c #0F0B0A",
"@  c #0F0C08",
"#  c #0F0C09",
"$  c #0F0D09",
"%  c #0F0C0A",
"&  c #0F0D0A",
"*  c #100B0A",
"=  c #100C09",
"-  c #110C09",
";  c #100D09",
":  c #110D09",
">  c #100C0A",
",  c #110C0A",
"<  c #100D0A",
"1  c #110D0A",
"2  c #110D0B",
"3  c #120C0A",
"4  c #120D0A",
"5  c #120D0B",
"6  c #110E0A",
"7  c #120E0A",
"8  c #120E0B",
"9  c #130E0B",
"0  c #120F0B",
"q  c #130F0B",
"w  c #140F0B",
"e  c #130E0C",
"r  c #130F0C",
"t  c #120F0D",
"y  c #140F0C",
"u  c #140F0D",
"i  c #15100C",
"p  c #14100D",
"a  c #15100D",
"s  c #15110D",
"d  c #16100D",
"f  c #17110D",
"g  c #15100E",
"h  c #16110E",
"j  c #17110E",
"k  c #17110F",
"l  c #16120F",
"z  c #17120F",
"x  c #18110E",
"c  c #18120E",
"v  c #18120F",
"b  c #19120F",
"n  c #18130F",
"m  c #19130F",
"M  c #1A130F",
"N  c #18140F",
"B  c #19140F",
"V  c #1A140F",
"C  c #191310",
"Z  c #1A1310",
"A  c #191411",
"S  c #1A1410",
"D  c #1A1411",
"F  c #1B1411",
"G  c #1B1511",
"H  c #1A1412",
"J  c #1B1512",
"K  c #1B1612",
"L  c #1C1511",
"P  c #1C1611",
"I  c #1C1412",
"U  c #1C1512",
"Y  c #1D1512",
"T  c #1C1612",
"R  c #1D1612",
"E  c #1D1613",
"W  c #1D1713",
"Q  c #1E1612",
"!  c #1F1612",
"~  c #1E1712",
"^  c #1E1713",
"/  c #1F1713",
"(  c #1C1714",
")  c #1D1812",
"_  c #1D1813",
"`  c #1F1813",
"'  c #1C1815",
"]  c #1F1814",
"[  c #1F1915",
"{  c #1F1916",
"}  c #201813",
"|  c #201814",
" . c #211814",
".. c #201815",
"X. c #201915",
"o. c #211915",
"O. c #221915",
"+. c #201A15",
"@. c #221A15",
"#. c #231A15",
"$. c #221B15",
"%. c #201916",
"&. c #211A16",
"*. c #221A16",
"=. c #221B16",
"-. c #231B16",
";. c #231B17",
":. c #241B16",
">. c #241B17",
",. c #251B17",
"<. c #231C17",
"1. c #241C17",
"2. c #251C17",
"3. c #251D17",
"4. c #261D17",
"5. c #231C18",
"6. c #231D1A",
"7. c #241C18",
"8. c #251C18",
"9. c #251D18",
"0. c #241D19",
"q. c #251D19",
"w. c #261D18",
"e. c #271D18",
"r. c #261D19",
"t. c #271D19",
"y. c #251E19",
"u. c #261E18",
"i. c #271E18",
"p. c #261E19",
"a. c #271E19",
"s. c #241D1B",
"d. c #261E1A",
"f. c #271E1A",
"g. c #271F1A",
"h. c #261E1B",
"j. c #271E1B",
"k. c #261F1B",
"l. c #281E18",
"z. c #281F18",
"x. c #281E19",
"c. c #291E19",
"v. c #281F19",
"b. c #281F1A",
"n. c #291F1A",
"m. c #281F1B",
"M. c #2A1F1A",
"N. c #27201C",
"B. c #26211C",
"V. c #26201D",
"C. c #27211E",
"Z. c #29201A",
"A. c #28201B",
"S. c #29201B",
"D. c #2A201B",
"F. c #2A211B",
"G. c #29211C",
"H. c #28211D",
"J. c #2A211C",
"K. c #2B211C",
"L. c #2B211D",
"P. c #29221D",
"I. c #2B221C",
"U. c #2A221D",
"Y. c #2B221D",
"T. c #2B231E",
"R. c #2B231F",
"E. c #2C221D",
"W. c #2C221E",
"Q. c #2C231E",
"!. c #2D231E",
"~. c #2C231F",
"^. c #2D241E",
"/. c #2C241F",
"(. c #2D241F",
"). c #2A2320",
"_. c #2D2420",
"`. c #2D2520",
"'. c #2E2420",
"]. c #2E2520",
"[. c #2F2520",
"{. c #2E2521",
"}. c #2F2521",
"|. c #2E2621",
" X c #2F2622",
".X c #2F2723",
"XX c #302621",
"oX c #302721",
"OX c #302722",
"+X c #302723",
"@X c #312723",
"#X c #302724",
"$X c #312822",
"%X c #302823",
"&X c #312823",
"*X c #312923",
"=X c #302824",
"-X c #302924",
";X c #312924",
":X c #302925",
">X c #312925",
",X c #322924",
"<X c #322925",
"1X c #332A24",
"2X c #322A25",
"3X c #302A26",
"4X c #332A26",
"5X c #332B26",
"6X c #332B28",
"7X c #342B28",
"8X c #342C28",
"9X c #352D29",
"0X c #362D28",
"qX c #362D29",
"wX c #352E29",
"eX c #362E28",
"rX c #372E29",
"tX c #352D2A",
"yX c #372E2A",
"uX c #372F2A",
"iX c #372F2B",
"pX c #38302A",
"aX c #39302B",
"sX c #38312B",
"dX c #39312C",
"fX c #39312E",
"gX c #3A332F",
"hX c #3C332F",
"jX c None",
/* pixels */
"jXjXjXjXjXjXjXjXjXjXjXjXjXjXjXjXjXjXjXjXjXjXjXjXjXjXjXjXjXjXjXjXjXjXjXjXjXjXjXjXjXjXjXjXjXjXjXjX",
"jXjXjXjXjXjXjXjXjXjXjXjXjXjXjXjXjXjXjXjXjXjXjXjXjXjXjXjXjXjXjXjXjXjXjXjXjXjXjXjXjXjXjXjXjXjXjXjX",
"jXjXjXjXjXjXjXjXjXjXjXjXjXjXjXjXjXjXjXjXjXjXjXjXjXjXjXjXjXjXjXjXjXjXjXjXjXjXjXjXjXjXjXjXjXjXjXjX",
"jXjXjXjXjXjXjXjXjXjXjXjXjXjXjXjXjXjXjXhXgXpXeXpXgXjXjXjXjXK.eXjXjXjXjXjXjXjXjXjXjXjXjXjXjXjXjXjX",
"jXjXjXjXjXjXjXjXjXjXjXjXjXjXjXjXjX5XK.8.8.8.8.Z.Z.E.5XeXjX. Z _.5XjXjXjXjXjXjXjXjXjXjXjXjXjXjXjX",
"jXjXjXjXjXjXjXjXjXjXjXjXjXjXjX).{ i , , % e r i _ 3.8.Z.#XV.. D b.5XjXjXjXjXjXjXjXjXjXjXjXjXjXjX",
"jXjXjXjXjXjXjXjXjXjXjXjXjXjXjX,   % i jXjXjX, , , , D 3.Z._.8., 3.8._.jXjXjXjXjXjXjXjXjXjXjXjXjX",
"jXjXjXjXjXjXjXjXjXjXjXjXjXjXjXjX3X6XeXeXgXjXjXjXjX0 , i 8.Z.).l D K.b._.eXjXjXjXjXjXjXjXjXjXjXjX",
"jXjXjXjXjXjXjXjXjXjXjXjXjXjXeX&XK.Z.Z.8.Z.&XgXjXjXjXjX, i Z.Z.<.i Z.Z.Z.K.eXjXjXjXjXjXjXjXjXjXjX",
"jXjXjXjXjXjXjXjXjXjXjXsX&XE.b.8.Z.8.Z.Z.Z.o.o.8.jXjXjXjX, <.K.8.n 8.8.K.8.K.5XeXgXjXjXjXjXjXjXjX",
"jXjXjXjXjXjXjXgXrX&X(.b.b.b.b.b.Z.Z.Z.Z.U , % % jXjXjXjXjX{ V.Z.M 8.Z.Z.K.V.b.b.Z.B jXjXjXjXjXjX",
"jXjXjXjXjX8.(.K.b.b.b.b.b.b.b.b.K.8.Z.3.i , jXjXjXjXjXjXjX} Z.8.{ K.8.Z.Z.8.Z.Z.o., jXjXjXjXjXjX",
"jXjXjXjXjXe 8.b.b.b.b.b.b.b.b.b.Z.Z.8.5., jXjXjXjXjXjXjXjXo.Z.Z.Z.8.V.8.8.Z.8.K._ jXjXjXjXjXjXjX",
"jXjXjXjXjX, o.b.b.b.b.b.b.b.b.b.8.K.Z.8.jXjXjXjXjXjXjXjXjX8.b.b.K.K.Z.Z.K.Z.Z.Z.B jXjXjXjXjXjXjX",
"jXjXjXjXjXjXU b.b.b.b.b.b.b.b.b.K.8.Z.K.jXjXjXjXjXjXjXjXjXZ.b.b.Z.8.Z.V.Z.8.Z.8.i jXjXjXjXjXjXjX",
"jXjXjXjXjXjXU b.b.b.b.b.b.b.b.b.Z.Z.K.8.K.jXjXjXjXjXjXjX8.K.b.b.K.8.Z.8.Z.K.8.3.e jXjXjXjXjXjXjX",
"jXjXjXjXjXjX( 8.b.b.b.b.Z.V.K.8.8.Z.8.Z.K.jXjXjXjXjXjXjXK.b.b.b.b.b.b.b.b.b.Z.,.jXjXjXjXjXjXjXjX",
"jXjXjXjXjXjX( Z.b.b.b.b.Z.8.Z.Z.V.Z.Z.Z.Z.%XjXjXjXjXjX3XZ.b.b.b.b.b.b.b.b.b.Z.U D jXjXjXjXjXjXjX",
"jXjXjXjXjXjXo.K.b.b.b.Z.8.8.8.K.8.Z.8.K.8.Z.5XpXjXjX5XK.b.b.b.b.Z.b.b.b.b.b.b.D U jXjXjXjXjXjXjX",
"jXjXjXjXjXjXo.Z.b.b.Z.} D V.K.Z.K.K.8.Z.Z.Z.8.K._.E.8.Z.Z.b.3.8.3.b.b.b.b.b.3.i o.U jXjXjXjXjXjX",
"jXjXjXjXjXjX8.Z.b.b.M i _.K.Z.8.K.8.<.o.3.Z.Z.Z.8.b.Z.b.U u , , 0 D Z.b.Z.Z.<., 8.U jXjXjXjXjXjX",
"jXjXjXjXjXjX8.Z.b.B r _.Z.Z.Z.5.U r r , , B 3.Z.Z.b.b.B % , , jX, % B b.8.Z.D 0 8.Z jXjXjXjXjXjX",
"jXjXjXjXjXjX8.K.} % V.K.Z.8.D 0 , , jXjX, % l z.Z.b.3., jXjXjXjXjXjXu b.K.<., { 8.0 jXjXjXjXjXjX",
"jXjXjXjXjXi Z.8.i l K.Z.3.B , , jXjXjXjXjXjX, B Z.Z.<.0 jXjXjXjXjXjXM Z.8.i , K.o.jXjXjXjXjXjXjX",
"jXjXjXjXjXi b.o., <.b.Z.U , jXjXjXjXjXjXjXjXjXD b.b.<.jXjXjXjXjXjXjX8.8.B X o.E.D jXjXjXjXjXjXjX",
"jXjXjXjXjXr 3.{ , 8.b.3.i jXjXjXjXjXjXjXjXjXjX{ b.b.K.jXjXjXjXjXjXjX{ , % jX_.3.r jXjXjXjXjXjXjX",
"jXjXjXjXjXjXo.U , 8.Z.o., jXjXjXjXjXjXjXjXjXjX8.b.b.Z.K.jXjXjXjXjXjX, jXjX_.K.U jXjXjXjXjXjXjXjX",
"jXjXjXjXjXjXU U , 8.Z.o.jXjXjXjXjXjXjXjXjXjXjXZ.b.b.b.E.jXjXjXjXjXjXjXjXjX(.3.0 jXjXjXjXjXjXjXjX",
"jXjXjXjXjXjXB U , 3.Z.3.jXjXjXjXjXjXjXjXjXjXK.K.8.Z.Z.K._.8XjXjXjXjXjXjX(.b.D % jXjXjXjXjXjXjXjX",
"jXjXjXjXjXjXi B jXo.Z.8.jXjXjXjX@XjXjXjXjXjX(.Z.V.K.8.8.Z./.eXjXjXjXsX(.b.U % jXjXjXjXjXjXjXjXjX",
"jXjXjXjXjXjXjXjXjX| Z.8.jXjXjXD K.5XjXjXjX&X8.Z.Z.Z.K.Z.b.b.K._.5X&XE.8.U , jXjXjXjXjXjXjXjXjXjX",
"jXjXjXjXjXjXjXjXjXZ b.b._ jXjXZ 8.E.5XeX_.8.K.Z.Z.8.8.Z.8.b.Z.b.8.Z.3.M , U jXjXjXjXjXjXjXjXjXjX",
"jXjXjXjXjXjXjXjXjXi 3.Z.8.jXjXi 8.Z.8.8.Z.Z.Z.Z.Z.Z.8.K.o.Z U o.o.D , X Z.6.jXjXjXjXjXjXjXjXjXjX",
"jXjXjXjXjXjXjXjXjXjXU Z.K.jXjX, o.Z.K.Z.8.Z.8.Z.8.K.8.Z.E.V.U 0 , , ( %XZ., jXjXjXjXjXjXjXjXjXjX",
"jXjXjXjXjXjXjXjXjXjXw 3.K.m.jXjXD K.b.b.K.K.Z.Z.V.8.K.Z.b.K._.3X5X5X&X8., jXjXjXjXjXjXjXjXjXjXjX",
"jXjXjXjXjXjXjXjXjXjX. D 8.(.jXjXi o.Z.b.Z.8.8.V.Z.Z.K.8.b.b.b.Z.8.Z.o.0 jXjXjXjXjXjXjXjXjXjXjXjX",
"jXjXjXjXjXjXjXjXjXjXjX0 U /._.jXjXi 8.Z.Z.Z.Z.Z.Z.8.8.Z.Z.Z.Z.Z.b.U u , jXjXjXjXjXjXjXjXjXjXjXjX",
"jXjXjXjXjXjXjXjXjXjXjXjX, D K.5XjX% i <.V.Z.8.Z.Z.K.Z.Z.K.8.Z.o.M , jXjXjXjXjXjXjXjXjXjXjXjXjXjX",
"jXjXjXjXjXjXjXjXjXjXjXjXjX, M K.5XjX, , U Z.Z.8.8.8.K.V.Z.K.D , . jXjXjXjXjXjXjXjXjXjXjXjXjXjXjX",
"jXjXjXjXjXjXjXjXjXjXjXjXjXjX, , <.V.jX% % Z Z.Z.K.Z.Z.8.8.i % jXjXjXjXjXjXjXjXjXjXjXjXjXjXjXjXjX",
"jXjXjXjXjXjXjXjXjXjXjXjXjXjXjX, , , jXjXjX, i 8.Z.b.Z.Z.B % jXjXjXjXjXjXjXjXjXjXjXjXjXjXjXjXjXjX",
"jXjXjXjXjXjXjXjXjXjXjXjXjXjXjXjXjXjXjXjXjXjX, r ,.b.Z.U , jXjXjXjXjXjXjXjXjXjXjXjXjXjXjXjXjXjXjX",
"jXjXjXjXjXjXjXjXjXjXjXjXjXjXjXjXjXjXjXjXjXjXjX, i 8.3.e jXjXjXjXjXjXjXjXjXjXjXjXjXjXjXjXjXjXjXjX",
"jXjXjXjXjXjXjXjXjXjXjXjXjXjXjXjXjXjXjXjXjXjXjXjX, U D % jXjXjXjXjXjXjXjXjXjXjXjXjXjXjXjXjXjXjXjX",
"jXjXjXjXjXjXjXjXjXjXjXjXjXjXjXjXjXjXjXjXjXjXjXjXjX, , jXjXjXjXjXjXjXjXjXjXjXjXjXjXjXjXjXjXjXjXjX",
"jXjXjXjXjXjXjXjXjXjXjXjXjXjXjXjXjXjXjXjXjXjXjXjXjXjXjXjXjXjXjXjXjXjXjXjXjXjXjXjXjXjXjXjXjXjXjXjX",
"jXjXjXjXjXjXjXjXjXjXjXjXjXjXjXjXjXjXjXjXjXjXjXjXjXjXjXjXjXjXjXjXjXjXjXjXjXjXjXjXjXjXjXjXjXjXjXjX",
"jXjXjXjXjXjXjXjXjXjXjXjXjXjXjXjXjXjXjXjXjXjXjXjXjXjXjXjXjXjXjXjXjXjXjXjXjXjXjXjXjXjXjXjXjXjXjXjX"
};
