/* XPM */
static char *bitcoin128[] = {
/* columns rows colors chars-per-pixel */
"128 128 31 1 ",
"  c #0E0A07",
". c #0F0B09",
"X c #110D0A",
"o c #16110D",
"O c #18120F",
"+ c #161310",
"@ c #1C1511",
"# c #1E1814",
"$ c #201714",
"% c #231A16",
"& c #261E19",
"* c #281F1A",
"= c #26211D",
"- c #2B211C",
"; c #2E2521",
": c #2E2825",
"> c #302622",
", c #332A25",
"< c #362D29",
"1 c #382F2B",
"2 c #37312D",
"3 c #3A312D",
"4 c #3D3531",
"5 c #3F3834",
"6 c #403733",
"7 c #423935",
"8 c #453D3A",
"9 c #483F3B",
"0 c #47403C",
"q c #49413D",
"w c None",
/* pixels */
"wwwwwwwwwwwwwwwwwwwwwwwwwwwwwwwwwwwwwwwwwwwwwwwwwwwwwwwwwwwwwwwwwwwwwwwwwwwwwwwwwwwwwwwwwwwwwwwwwwwwwwwwwwwwwwwwwwwwwwwwwwwwwwww",
"wwwwwwwwwwwwwwwwwwwwwwwwwwwwwwwwwwwwwwwwwwwwwwwwwwwwwwwwwwwwwwwwwwwwwwwwwwwwwwwwwwwwwwwwwwwwwwwwwwwwwwwwwwwwwwwwwwwwwwwwwwwwwwww",
"wwwwwwwwwwwwwwwwwwwwwwwwwwwwwwwwwwwwwwwwwwwwwwwwwwwwwwwwwwwwwwwwwwwwwwwwwwwwwwwwwwwwwwwwwwwwwwwwwwwwwwwwwwwwwwwwwwwwwwwwwwwwwwww",
"wwwwwwwwwwwwwwwwwwwwwwwwwwwwwwwwwwwwwwwwwwwwwwwwwwwwwwwwwwwwwwwwwwwwwwwwwwwwwwwwwwwwwwwwwwwwwwwwwwwwwwwwwwwwwwwwwwwwwwwwwwwwwwww",
"wwwwwwwwwwwwwwwwwwwwwwwwwwwwwwwwwwwwwwwwwwwwwwwwwwwwwwwwwwwwwwwwwwwwwwwwwwwwwwwwwwwwwwwwwwwwwwwwwwwwwwwwwwwwwwwwwwwwwwwwwwwwwwww",
"wwwwwwwwwwwwwwwwwwwwwwwwwwwwwwwwwwwwwwwwwwwwwwwwwwwwwwwwwwwwwwwwwwwwwwwwwwwwwwwwwwwwwwwwwwwwwwwwwwwwwwwwwwwwwwwwwwwwwwwwwwwwwwww",
"wwwwwwwwwwwwwwwwwwwwwwwwwwwwwwwwwwwwwwwwwwwwwwwwwwwwwwwwwwwwwwwwwwwwwwwwww*,wwwwwwwwwwwwwwwwwwwwwwwwwwwwwwwwwwwwwwwwwwwwwwwwwwww",
"wwwwwwwwwwwwwwwwwwwwwwwwwwwwwwwwwwwwwwwwwwwwwwwwwwwwwwwwwwwwwwwwwwwwwwwwwwwo%10qwwwwwwwwwwwwwwwwwwwwwwwwwwwwwwwwwwwwwwwwwwwwwwww",
"wwwwwwwwwwwwwwwwwwwwwwwwwwwwwwwwwwwwwwwwwwwwwwwwwwwwqqqq08777800090wwwwwwwwww @,680wwwwwwwwwwwwwwwwwwwwwwwwwwwwwwwwwwwwwwwwwwwww",
"wwwwwwwwwwwwwwwwwwwwwwwwwwwwwwwwwwwwwwwwwwwwwwww00863>>--******-><3690wwwwwwww.X%-179wwwwwwwwwwwwwwwwwwwwwwwwwwwwwwwwwwwwwwwwwww",
"wwwwwwwwwwwwwwwwwwwwwwwwwwwwwwwwwwwwwwwwwwwww8961;-*&&&&**********&*-<688wwwwwX.X@&-<78wwwwwwwwwwwwwwwwwwwwwwwwwwwwwwwwwwwwwwwww",
"wwwwwwwwwwwwwwwwwwwwwwwwwwwwwwwwwwwwwwwwwwww83;*&****&-=***************-185www.o.o@*&*174wwwwwwwwwwwwwwwwwwwwwwwwwwwwwwwwwwwwwww",
"wwwwwwwwwwwwwwwwwwwwwwwwwwwwwwwwwwwwwwwwww76>*&%$@O+ooooOO@@&&***********-17,w.XXXX$***-47wwwwwwwwwwwwwwwwwwwwwwwwwwwwwwwwwwwwww",
"wwwwwwwwwwwwwwwwwwwwwwwwwwwwwwwwwwwwwwwww71&@oXX  ...XX .....XO@%*********&>43+.XXXX%*-&-17wwwwwwwwwwwwwwwwwwwwwwwwwwwwwwwwwwwww",
"wwwwwwwwwwwwwwwwwwwwwwwwwwwwwwwwwwwwwwww1=X  .XXXXXXXXXXXXXXXX..XX@%*******&*14O.XXXo&****,4wwwwwwwwwwwwwwwwwwwwwwwwwwwwwwwwwwww",
"wwwwwwwwwwwwwwwwwwwwwwwwwwwwwwwwwwwwwww-o .XXXXXXXXXXXXXXXXXXXXXX.XXO%******&&,4@XXXX@*****>6wwwwwwwwwwwwwwwwwwwwwwwwwwwwwwwwwww",
"wwwwwwwwwwwwwwwwwwwwwwwwwwwwwwwwwwwwww@X.XXXXXXXXXXXwwwwXXXXXXoXXXXX.Xo%*******,1oXo.o%-***&>4wwwwwwwwwwwwwwwwwwwwwwwwwwwwwwwwww",
"wwwwwwwwwwwwwwwwwwwwwwwwwwwwwwwwwwwwwwwwwXXXXwwwwwwwwwwwwwwwwwXXXXXoXX.XO&******<,...X@&*****;6wwwwwwwwwwwwwwwwwwwwwwwwwwwwwwwww",
"wwwwwwwwwwwwwwwwwwwwwwwwwwwwwwwwwwwwwwwwwwwwwww25574wwwwwwwwwwwwwwXX.XXXXo%-*****,;.XXo&******;62wwwwwwwwwwwwwwwwwwwwwwwwwwwwwww",
"wwwwwwwwwwwwwwwwwwwwwwwwwwwwwwwwwwwwwwwwwww488743334790wwwwwwwwwwwwwXXXXX o%*****-,@XXX%*******-44wwwwwwwwwwwwwwwwwwwwwwwwwwwwww",
"wwwwwwwwwwwwwwwwwwwwwwwwwwwwwwwwwwwwwwww4873<-**=*&&*-<388wwwwwwwwwwwwo.XXXo&***-&;-.XX@********-17wwwwwwwwwwwwwwwwwwwwwwwwwwwww",
"wwwwwwwwwwwwwwwwwwwwwwwwwwwwwwwwwwwwww873>-&**********&&-385wwwwwwwwwwwwXXXXO***&&-,+XX@********&-,7wwwwwwwwwwwwwwwwwwwwwwwwwwww",
"wwwwwwwwwwwwwwwwwwwwwwwwwwwwwwwwwww096<-*&****************-48wwwwwwwwwwwwXXXX$****-;&X.O&&********&;67wwwwwwwwwwwwwwwwwwwwwwwwww",
"wwwwwwwwwwwwwwwwwwwwwwwwwwwwwwww8071-*&*-&******************,7wwwwwwwwwwwwXXXo****&--XXO&***********-189wwwwwwwwwwwwwwwwwwwwwwww",
"wwwwwwwwwwwwwwwwwwwwwwwwwwwww8971>-&&********************-**%-1,wwwwwwwwwwwXXX%*****-@ o&-&=*********&-17qq8wwq6wwwwwwwwwwwwwwww",
"wwwwwwwwwwwwwwwwwwwwwwwwww9083>-&&**********************%@oooXXOwwwwwwwwwwwwXX@*****-#.o&&*************--;<343<&wwwwwwwwwwwwwwww",
"wwwwwwwwwwwwwwwwwwwwwww0073>-&&************************@X..XX.XwwwwwwwwwwwwwXX@*****-%.o&******&*********&&&&&$Xwwwwwwwwwwwwwwww",
"wwwwwwwwwwwwwwwwwww00971>-****************************#XXXXXXXXwwwwwwwwwwwwwwXO*****=&.o&******&*************&OXwwwwwwwwwwwwwwww",
"wwwwwwwwwwww3qqq9741,-**&****************************&XXXXXXXXwwwwwwwwwwwwwwwXO******&X+&&****&-*************%oXwwwwwwwwwwwwwwww",
"wwwwwwwwwwww@->--*&&&********************************OXXXXXwwwwwwwwwwwwwwwwwwXO*****&&X@-&****&-*************@X.wwwwwwwwwwwwwwww",
"wwwwwwwwwwwwwo%*************************************&OXXXwwwwwwwwwwwwwwwwwwww.@******&o#*******&*-******&*=&&OXXwwwwwwwwwwwwwwww",
"wwwwwwwwwwwwwXO*************************************$XXXwwwwwwwwwwwwwwwwwwwww.#******&o%-&****-&*&******-&&-$oXwwwwwwwwwwwwwwwww",
"wwwwwwwwwwwwwXo%************************************%XXwwwwwwwwwwwwwwwwwwwwwwX$*****--%--***************-&&*$XXwwwwwwwwwwwwwwwww",
"wwwwwwwwwwwwwXoO************************************$XXwwwwwwwwwwwwwwwwwwwwww.&*****&-,-&***************&&-&@XXwwwwwwwwwwwwwwwww",
"wwwwwwwwwwwwwX.o%***********************************%.wwwwwwwwwwwwwwwwwwwwwwwo&-******--****************&-&&oXwwwwwwwwwwwwwwwwww",
"wwwwwwwwwwwwww.o$***********************************%owwwwwwwwwwwwwwwwwwwwwwwO**************************&-&&o.wwwwwwwwwwwwwwwwww",
"wwwwwwwwwwwwwwXX@************************************owwwwwwwwwwwwwwwwwwwwwww@-************************&***$XXwwwwwwwwwwwwwwwwww",
"wwwwwwwwwwwwwwXXO&**********************************-#wwwwwwwwwwwwwwwwwwwwwww&-***********************&-***@Xwwwwwwwwwwwwwwwwwww",
"wwwwwwwwwwwwwwwXO&**********************************-&wwwwwwwwwwwwwwwwwwwwwww--&**************************&@Xwwwwwwwwwwwwwwwwwww",
"wwwwwwwwwwwwwwwXo%*********************************&-;owwwwwwwwwwwwwwwwwwwww@-&-**************************&OXwwwwwwwwwwwwwwwwwww",
"wwwwwwwwwwwwwwwXX&&**********************************;&wwwwwwwwwwwwwwwwwwwww=-&&**************************%oXwwwwwwwwwwwwwwwwwww",
"wwwwwwwwwwwwwwwwo%***********************************-:wwwwwwwwwwwwwwwwwwwww>--&*********************&****$oXwwwwwwwwwwwwwwwwwww",
"wwwwwwwwwwwwwwwwo%************************************>-wwwwwwwwwwwwwwwwwww=>-&&******&-************&-***&#Xwwwwwwwwwwwwwwwwwwww",
"wwwwwwwwwwwwwwwwX%************************************-1wwwwwwwwwwwwwwwwwww,--&-*******&*****************-@.wwwwwwwwwwwwwwwwwwww",
"wwwwwwwwwwwwwwww.&&************************************>1wwwwwwwwwwwwwwwww1>*****************************&@Xwwwwwwwwwwwwwwwwwwww",
"wwwwwwwwwwwwwwwwo&**************************************<1wwwwwwwwwwwwwww,1=****************************&&oXwwwwwwwwwwwwwwwwwwww",
"wwwwwwwwwwwwwwwwo&***************************************14wwwwwwwwwwwww13-*******&*-********************%o.w-wwwwwwwwwwwwwwwwww",
"wwwwwwwwwwwwwwwwo&**************************************&*15wwwwwwwwwww41-&*******-&&*********&-*********%X.w-wwwwwwwwwwwwwwwwww",
"wwwwwwwwwwwwwwwwO******************************************,7wwwwwwwww71*********&-*********-&&&*********@X.w-wwwwwwwwwwwwwwwwww",
"wwwwwwwwwwwwwwww@*******************&**********************&;687wwww86>-**********&*********&&-&*********@XXo&&wwwwwwwwwwwwwwwww",
"wwwwwwwwwwwwwwww@*********&&***-*&@oO&**********************&*>47773>-**********************&-**********%OXX@*%wwwwwwwwwwwwwwwww",
"wwwwwwwwwwwwwwww%-*******&--***$OX #>-**********************&*&&---****************&********&-**********%OXX@-%wwwwwwwwwwwwwwwww",
"wwwwwwwwwwwwwwwX%-******-&-&&&+X o:1>&-&**********************-&****************=&&&%&&&****************$XX.%-%wwwwwwwwwwwwwwwww",
"wwwwwwwwwwwwwwwo&*******&&&&@X..#1,-&&************************&&*************&$@oXX..oX@$&**************@X.X&-%wwwwwwwwwwwwwwwww",
"wwwwwwwwwwwwwwwo&*******&-&o.X.#2>************&***************&-***********&@o. .X..XX...o$***********&&O.Xo-&%wwwwwwwwwwwwwwwww",
"wwwwwwwwwwwwwwwO-*******-%o.X.%3>&************=&%@OOO@%&******&-**********#X.XXXXXXoXXXXX.X@**********&$oX.@-&@wwwwwwwwwwwwwwwww",
"wwwwwwwwwwwwwww@********&o.XX#1-&&&*********&#oXX. .XX.X#=&&-&&&********&OXXXXXXXXXXXXXXXXXX$*********&@XXX%-&@wwwwwwwwwwwwwwwww",
"wwwwwwwwwwwwwww#*******&o.XX+1--&-*******&%OX. XXXXXXXXX.X$=**-&*******&@XXXXXXXXwwwww.oXXXXo%********%X.XX--&Owwwwwwwwwwwwwwwww",
"wwwwwwwwwwwwwww%*******@XXXX>>*********&%o XXoXXXXXXXXXoo..@**********&&OXXXXXwwwwwwwwwwwXXXX@*******&@.X.@--%owwwwwwwwwwwwwwwww",
"wwwwwwwwwwwwwwX%******$XXXX&,*********%o  XXXXXXXXXXXXXXXXX.@&********-%XXXXwwwwwwwwwwwwwwXXX@*******$oXXX%;&%owwwwwwwwwwwwwwwww",
"wwwwwwwwwwwwwwX%******oXX.+,--******&OXXXXXXXXXwwwwwwwwX.oXXX@*********$XXXwwwwwwwwwwwwwwwwXX@******&OXXXo---@Xwwwwwwwwwwwwwwwww",
"wwwwwwwwwwwwwwX&*****@XX..->&=*****%o.XXXXXXwwwwwwwwwwwww.XXXX@=*******$XXwwwwwwwwwwwwwwwwwwX@******@..XX#;&&OXwwwwwwwwwwwwwwwww",
"wwwwwwwwwwwwwwo%****&OXXXO>--****&&o.XXXXXwwwwwwwwwwwwwwwwwXXXo&******-@Xwwwwwwwwwwwwwwwwwww.$-****@X.X.X--*%XXwwwwwwwwwwwwwwwww",
"wwwwwwwwwwwwwwX%****$XXX.&--&&***&o.XXXXwwwwwwwwwwwwwwwwwwwwXXo&*******#Xwwwwwwwwwwwwwwwwwwwo*****$X.oXX#>-*@oXwwwwwwwwwwwwwwwww",
"wwwwwwwwwwwwwwX%&--&@XX.o--*****&OXXXXwwwwwwwwwwwwwwwwwwwwwwXXo%*******%.wwwwwwwwwwwwwwwwwww@;&**#XXXXww;--&OXwwwwwwwwwwwwwwwwww",
"wwwwwwwwwwwwwwo%*&&%O.XXO-******%XXXXwwwwwwwwwwwwwwwwwwwwwwwwXo&*******%Xwwwwwwwwwwwwwwwwwww--&&@XXXXXw#,-*%oXwwwwwwwwwwwwwwwwww",
"wwwwwwwwwwwwwwX%**-$XXXw%-*****&oXXXwwwwwwwwwwwwwwwwwwwwwwwww.o&********owwwwwwwwwwwwwwwwwww,-&o.XXXXww,---@XXwwwwwwwwwwwwwwwwww",
"wwwwwwwwwwwwwwX$**&$.XwX&-*****%XXXwwwwwwwwwwwwwwwwwwwwwwwwwwwO********-Owwwwwwwwwwwwwwwwww--@X.XXXwww=,**&oXXwwwwwwwwwwwwwwwwww",
"wwwwwwwwwwwwwwX@**&@XXwX&-&****@XXwwwwwwwwwwwwwwwwwwwwwwwwwwww#***&&***-&wwwwwwwwwwwwwwwwww&o.XXXXwwww1-**%oXwwwwwwwwwwwwwwwwwww",
"wwwwwwwwwwwwwwX+&&&OXXwo&*****&OXXwwwwwwwwwwwwwwwwwwwwwwwwwwww%-**-&***->wwwwwwwwwwwwwwwwwoX.XXXXwwww,>=&-OXXwwwwwwwwwwwwwwwwwww",
"wwwwwwwwwwwwwwXo&*&oXwwO******&oXwwwwwwwwwwwwwwwwwwwwwwwwwwwwo----&&****>-wwwwwwwwwwwwwwwwwwXXXXwwww;<-**%oXXwwwwwwwwwwwwwwwwwww",
"wwwwwwwwwwwwwwXX@*%oXwwO****&&%oXwwwwwwwwwwwwwwwwwwwwwwwwwwwwO-*&&&-****-1wwwwwwwwwwwwwwwwwwwwwwwwww1-**&@XXwwwwwwwwwwwwwwwwwwww",
"wwwwwwwwwwwwwwwX@*%o ww@******%XXwwwwwwwwwwwwwwwwwwwwwwwwwwww&-*********=;1wwwwwwwwwwwwwwwwwwwwwwww3-***%oXXwwwwwwwwwwwwwwwwwwww",
"wwwwwwwwwwwwwwwXO&&o ww@&*****%Xwwwwwwwwwwwwwwwwwwwwwwwwwwwww;-*********&->1wwwwwwwwwwwwwwwwwwwwww3,****@XXwwwwwwwwwwwwwwwwwwwww",
"wwwwwwwwwwwwwwwXo%&XwwX@&&****%Xwwwwwwwwwwwwwwwwwwwwwwwwwwww%>*************<4wwwwwwwwwwwwwwwwwwww3<&***%oXXwwwwwwwwwwwwwwwwwwwww",
"wwwwwwwwwwwwwwwXX$%owwXO&*****%owwwwwwwwwwwwwwwwwwwwwwwwwwww:-*************-14wwwwwwwwwwwwwwwwww41*&**&oXXwwwwwwwwwwwwwwwwwwwwww",
"wwwwwwwwwwwwwwwwX@%owwXO&*****%Xwwwwwwwwwwwwwwwwwwwwwwwwwww=>*-&************&<5wwwwwwwwwwwwwwww41&****@XXXwwwwwwwwwwwwwwwwwwwwww",
"wwwwwwwwwwwwwwwwXo%OwwXo%*****&owwwwwwwwww3wwwwwwwwwwwwwwww<-*&&************=&>7wwwwwwwwwwwwww7<*&**&%XXXwwwwwwwwwwwwwwwwwwwwwww",
"wwwwwwwwwwwwwwwwwo#OwwXX%******@wwwwwwwwww-1wwwwwwwwwwwwww<>-*&-****&*********-;67wwwwwwwwwww7>****&%oXXXwwwwwwwwwwwwwwwwwwwwwww",
"wwwwwwwwwwwwwwwwwX@Owwwo%******@wwwwwwwwww=>1wwwwwwwwwwww,<-**&-****-**********&-187wwwwwww84;-****&o.XXwwwwwwwwwwwwwwwwwwwwwwww",
"wwwwwwwwwwwwwwwwwwOOwwwX@******$wwwwwwwww@*-1;wwwwwwwwww,4-&-&&&******************-370q0084>*&&*-&&o.XXwwwwwwwwwwwwwwwwwwwwwwwww",
"wwwwwwwwwwwwwwwwwwXowwwX@&*****%wwwwwwwww@&*-3wwwwwwwww44-*=**-&******************&&-;>>;-&&**-&&%oXoXXwwwwwwwwwwwwwwwwwwwwwwwww",
"wwwwwwwwwwwwwwwwwwwwwwwXo&****-*XwwwwwwwwO&**;43wwwwww71-********************-&******&*&&******&%oXX.Xwwwwwwwwwwwwwwwwwwwwwwwwww",
"wwwwwwwwwwwwwwwwwwwwwwwXo%******Owwwwwwww@&&*--4888887,**********************&*********-******&$X.XX.wwwwwwwwwwwwwwwwwwwwwwwwwww",
"wwwwwwwwwwwwwwwwwwwwwwwXX@*****-#wwwwwwwwO&*****>11<;-&*****************&**--&&=************=%+X.XXXw;=wwwwwwwwwwwwwwwwwwwwwwwww",
"wwwwwwwwwwwwwwwwwwwwwwwwXO&****-&wwwwwwwwo%*****&&&*&*******************-&*@O%--***********&OXXXXXXw1=wwwwwwwwwwwwwwwwwwwwwwwwww",
"wwwwwwwwwwwwwwwwwwwwwwww.o%*****-wwwwwwwwo%*****************************-&-&XX@%&********%OX.XXXX.@4-Xwwwwwwwwwwwwwwwwwwwwwwwwww",
"wwwwwwwwwwwwwwwwwwwwwwwwXX@*****;@wwwwwwwX$*****************************&-&;;X..X@@%%$$OXXXXXXXX =7;owwwwwwwwwwwwwwwwwwwwwwwwwww",
"wwwwwwwwwwwwwwwwwwwwwwwwXXo%****--wwwwwwwX@*********************************,,o.X........XXXXX X14;o.wwwwwwwwwwwwwwwwwwwwwwwwwww",
"wwwwwwwwwwwwwwwwwwwwwwwwwXX@****-;wwwwwww.O&********************************->3%X XXXXXXXXXX  -52-O.wwwwwwwwwwwwwwwwwwwwwwwwwwww",
"wwwwwwwwwwwwwwwwwwwwwwwwwXXo&&***;&wwwwwwXX%*********************************&-31=o...X ...X-57>*#..wwwwwwwwwwwwwwwwwwwwwwwwwwww",
"wwwwwwwwwwwwwwwwwwwwwwwwwwXX@-***-,wwwwwwXX@*********************************--*>361:=%%=:457>-*$o.owwwwwwwwwwwwwwwwwwwwwwwwwwww",
"wwwwwwwwwwwwwwwwwwwwwwwwwwXXo%&&**>&wwwwwwXo%************************************--<377654<>-&*%o.oXwwwwwwwwwwwwwwwwwwwwwwwwwwww",
"wwwwwwwwwwwwwwwwwwwwwwwwwwwXXo&-**-,wwwwwwXX@************************************&*&&*-*=&&&**%o.X.wwwwwwwwwwwwwwwwwwwwwwwwwwwww",
"wwwwwwwwwwwwwwwwwwwwwwwwwwwXXo@***->-wwwwwXXo%******************************************&&***%o.XXwwwwwwwwwwwwwwwwwwwwwwwwwwwwww",
"wwwwwwwwwwwwwwwwwwwwwwwwwwwwX.o%**--1wwwwwwXXO******************************************&=**%X.XXwwwwwwwwwwwwwwwwwwwwwwwwwwwwwww",
"wwwwwwwwwwwwwwwwwwwwwwwwwwwwXXXo&***;<wwwwwXXX@*****************************************-&*@XXXXXwwwwwwwwwwwwwwwwwwwwwwwwwwwwwww",
"wwwwwwwwwwwwwwwwwwwwwwwwwwwwwXXXO****<:wwwwwXXX#****************************************&&@..XXXwwwwwwwwwwwwwwwwwwwwwwwwwwwwwwww",
"wwwwwwwwwwwwwwwwwwwwwwwwwwwwwwXXXO&*&-1wwwwwXXXX%***************************************%o.oXXXwwwwwwwwwwwwwwwwwwwwwwwwwwwwwwwww",
"wwwwwwwwwwwwwwwwwwwwwwwwwwwwwwXXXXO***;1wwwwwXXXX@************************************&@.XXXXXwwwwwwwwwwwwwwwwwwwwwwwwwwwwwwwwww",
"wwwwwwwwwwwwwwwwwwwwwwwwwwwwwwwXo.XO&*&,3wwwwwXXXX@&********************************&@o.XXXXwwwwwwwwwwwwwwwwwwwwwwwwwwwwwwwwwwww",
"wwwwwwwwwwwwwwwwwwwwwwwwwwwwwwwwXX..O&**13wwwwwXXX.o&&*****************************%o..XXXXwwwwwwwwwwwwwwwwwwwwwwwwwwwwwwwwwwwww",
"wwwwwwwwwwwwwwwwwwwwwwwwwwwwwwwwwXXXXX%*-13wwwwwXXXXX$****************************OXXXXXXXwwwwwwwwwwwwwwwwwwwwwwwwwwwwwwwwwwwwww",
"wwwwwwwwwwwwwwwwwwwwwwwwwwwwwwwwwwXXXXo@&-14wwwwwXXXXX@&************************%X.XXXXXwwwwwwwwwwwwwwwwwwwwwwwwwwwwwwwwwwwwwwww",
"wwwwwwwwwwwwwwwwwwwwwwwwwwwwwwwwwwwXXX..O$*17wwwwwXXXo.o%**********************#XXXXo.wwwwwwwwwwwwwwwwwwwwwwwwwwwwwwwwwwwwwwwwww",
"wwwwwwwwwwwwwwwwwwwwwwwwwwwwwwwwwwwwXXXXX.o@;45wwwwXXXX.X@*******************&OXXXXXXwwwwwwwwwwwwwwwwwwwwwwwwwwwwwwwwwwwwwwwwwww",
"wwwwwwwwwwwwwwwwwwwwwwwwwwwwwwwwwwwwwXoXXX..Xo&;wwwwXXXX.XO&****************&OX.XXXwwwwwwwwwwwwwwwwwwwwwwwwwwwwwwwwwwwwwwwwwwwww",
"wwwwwwwwwwwwwwwwwwwwwwwwwwwwwwwwwwwwwwwXXXXXX. XOwwwwwXXo.Xo%***************OX.oXXwwwwwwwwwwwwwwwwwwwwwwwwwwwwwwwwwwwwwwwwwwwwww",
"wwwwwwwwwwwwwwwwwwwwwwwwwwwwwwwwwwwwwwwwwXXXXXwwwwwwwwwoXXXXo%*************@XXXXwwwwwwwwwwwwwwwwwwwwwwwwwwwwwwwwwwwwwwwwwwwwwwww",
"wwwwwwwwwwwwwwwwwwwwwwwwwwwwwwwwwwwwwwwwwwwwwwwwwwwwwwwwwXXX.X%***********%XXXXwwwwwwwwwwwwwwwwwwwwwwwwwwwwwwwwwwwwwwwwwwwwwwwww",
"wwwwwwwwwwwwwwwwwwwwwwwwwwwwwwwwwwwwwwwwwwwwwwwwwwwwwwwwwwXXX.X@*********%oXXXwwwwwwwwwwwwwwwwwwwwwwwwwwwwwwwwwwwwwwwwwwwwwwwwww",
"wwwwwwwwwwwwwwwwwwwwwwwwwwwwwwwwwwwwwwwwwwwwwwwwwwwwwwwwwwwXXXXX#********OXXXwwwwwwwwwwwwwwwwwwwwwwwwwwwwwwwwwwwwwwwwwwwwwwwwwww",
"wwwwwwwwwwwwwwwwwwwwwwwwwwwwwwwwwwwwwwwwwwwwwwwwwwwwwwwwwwwwXXXX.$******%XXXwwwwwwwwwwwwwwwwwwwwwwwwwwwwwwwwwwwwwwwwwwwwwwwwwwww",
"wwwwwwwwwwwwwwwwwwwwwwwwwwwwwwwwwwwwwwwwwwwwwwwwwwwwwwwwwwwwwXXX.o%****&oXXXwwwwwwwwwwwwwwwwwwwwwwwwwwwwwwwwwwwwwwwwwwwwwwwwwwww",
"wwwwwwwwwwwwwwwwwwwwwwwwwwwwwwwwwwwwwwwwwwwwwwwwwwwwwwwwwwwwwwXX..o&***@XXXwwwwwwwwwwwwwwwwwwwwwwwwwwwwwwwwwwwwwwwwwwwwwwwwwwwww",
"wwwwwwwwwwwwwwwwwwwwwwwwwwwwwwwwwwwwwwwwwwwwwwwwwwwwwwwwwwwwwwwX.oXO***oXXwwwwwwwwwwwwwwwwwwwwwwwwwwwwwwwwwwwwwwwwwwwwwwwwwwwwww",
"wwwwwwwwwwwwwwwwwwwwwwwwwwwwwwwwwwwwwwwwwwwwwwwwwwwwwwwwwwwwwwwwoXo.@-@XXXwwwwwwwwwwwwwwwwwwwwwwwwwwwwwwwwwwwwwwwwwwwwwwwwwwwwww",
"wwwwwwwwwwwwwwwwwwwwwwwwwwwwwwwwwwwwwwwwwwwwwwwwwwwwwwwwwwwwwwwww.X.o#oXXwwwwwwwwwwwwwwwwwwwwwwwwwwwwwwwwwwwwwwwwwwwwwwwwwwwwwww",
"wwwwwwwwwwwwwwwwwwwwwwwwwwwwwwwwwwwwwwwwwwwwwwwwwwwwwwwwwwwwwwwwwwXoXXXXXwwwwwwwwwwwwwwwwwwwwwwwwwwwwwwwwwwwwwwwwwwwwwwwwwwwwwww",
"wwwwwwwwwwwwwwwwwwwwwwwwwwwwwwwwwwwwwwwwwwwwwwwwwwwwwwwwwwwwwwwwwwwXX.XXwwwwwwwwwwwwwwwwwwwwwwwwwwwwwwwwwwwwwwwwwwwwwwwwwwwwwwww",
"wwwwwwwwwwwwwwwwwwwwwwwwwwwwwwwwwwwwwwwwwwwwwwwwwwwwwwwwwwwwwwwwwwwwXXXwwwwwwwwwwwwwwwwwwwwwwwwwwwwwwwwwwwwwwwwwwwwwwwwwwwwwwwww",
"wwwwwwwwwwwwwwwwwwwwwwwwwwwwwwwwwwwwwwwwwwwwwwwwwwwwwwwwwwwwwwwwwwwwwwwwwwwwwwwwwwwwwwwwwwwwwwwwwwwwwwwwwwwwwwwwwwwwwwwwwwwwwwww",
"wwwwwwwwwwwwwwwwwwwwwwwwwwwwwwwwwwwwwwwwwwwwwwwwwwwwwwwwwwwwwwwwwwwwwwwwwwwwwwwwwwwwwwwwwwwwwwwwwwwwwwwwwwwwwwwwwwwwwwwwwwwwwwww",
"wwwwwwwwwwwwwwwwwwwwwwwwwwwwwwwwwwwwwwwwwwwwwwwwwwwwwwwwwwwwwwwwwwwwwwwwwwwwwwwwwwwwwwwwwwwwwwwwwwwwwwwwwwwwwwwwwwwwwwwwwwwwwwww",
"wwwwwwwwwwwwwwwwwwwwwwwwwwwwwwwwwwwwwwwwwwwwwwwwwwwwwwwwwwwwwwwwwwwwwwwwwwwwwwwwwwwwwwwwwwwwwwwwwwwwwwwwwwwwwwwwwwwwwwwwwwwwwwww",
"wwwwwwwwwwwwwwwwwwwwwwwwwwwwwwwwwwwwwwwwwwwwwwwwwwwwwwwwwwwwwwwwwwwwwwwwwwwwwwwwwwwwwwwwwwwwwwwwwwwwwwwwwwwwwwwwwwwwwwwwwwwwwwww",
"wwwwwwwwwwwwwwwwwwwwwwwwwwwwwwwwwwwwwwwwwwwwwwwwwwwwwwwwwwwwwwwwwwwwwwwwwwwwwwwwwwwwwwwwwwwwwwwwwwwwwwwwwwwwwwwwwwwwwwwwwwwwwwww",
"wwwwwwwwwwwwwwwwwwwwwwwwwwwwwwwwwwwwwwwwwwwwwwwwwwwwwwwwwwwwwwwwwwwwwwwwwwwwwwwwwwwwwwwwwwwwwwwwwwwwwwwwwwwwwwwwwwwwwwwwwwwwwwww"
};
