/* XPM */
static char *_5178_062e470bd0573a9e24b1a3782bc04f5172930aca0977dd3f17ed787929c815b2_0[] = {
/* columns rows colors chars-per-pixel */
"16 16 2 1 ",
"  c #0000D1D18888",
". c None",
/* pixels */
"................",
"..            ..",
"..            ..",
"..            ..",
"..   ......   ..",
"..   ......   ..",
"..   ......   ..",
"..   ......   ..",
"..   .....    ..",
"..            ..",
"..            ..",
"..          ....",
"..     .........",
"..   ...........",
"..   ...........",
"................"
};
