/* XPM */
static char *_1693b36124549deb7470522ec7f33e3[] = {
/* columns rows colors chars-per-pixel */
"32 32 35 1 ",
"  c #000233",
". c #000334",
"X c #050939",
"o c #060939",
"O c #070A3C",
"+ c #080C3D",
"@ c #0A0D3E",
"# c #0B0E3E",
"$ c #0A0E3F",
"% c #0C0F3F",
"& c #0D103F",
"* c #101341",
"= c #111441",
"- c #111442",
"; c #121442",
": c #121542",
"> c #121543",
", c #141744",
"< c #161945",
"1 c #87807D",
"2 c #6A6C88",
"3 c #6B6D89",
"4 c #8D8685",
"5 c #8E8785",
"6 c #8E8886",
"7 c #8F8886",
"8 c #908986",
"9 c #908987",
"0 c #918A88",
"q c #97908A",
"w c #98908B",
"e c #99918B",
"r c #9C948E",
"t c #9D958E",
"y c None",
/* pixels */
"yyyyyyyyyyyyyyyyyyyyyyyyyyyyyyyy",
"yyyyyyyyyyyyyyyyyyyyyyyyyyyyyyyy",
"yyyyyyyyyyyyyyyyyyyyyyyyyyyyyyyy",
"yyyyyyyyyyyyyyyyyyyyyyyyyyyyyyyy",
"yyyyyyyyyyXXXXXXXoooooooyyyyyyyy",
"yyyyyyyyry#:>>>:>>>>>>>>yyyyyyyy",
"yyyyyyy67yy&*************yyyyyyy",
"yyyyyyy67eyO>*************yyyyyy",
"yyyyyy8777yy#:***yyyy*****yyyyyy",
"yyyyyy7777eyy:***yyyyy*****yyyyy",
"yyyyy67777yyy:****yyyy*****yyyyy",
"yyyy77777yyyyy*****yyyy*****yyyy",
"yyyy87777yyyyy*****yyyy*****yyyy",
"yyy07778yyyyyyy*****yyyy****>yyy",
"yyy07776yyyyyyy*****yyyyy***>.yy",
"yy10777yyyyyyyyy*****yyyy***<.yy",
"yy10776yyyyyyyyy*****yyyy***> yy",
"yy107787yyyyyyyy*****yyyy***< yy",
"yyy07777yyyyyyy*****yyyy****>yyy",
"yyyy77776yyyyy*****yyyyy****<yyy",
"yyyy87778yyyyy*****yyyy*****yyyy",
"yyyyy67777yyy:****yyyy******yyyy",
"yyyyy67777yyy:****yyyy*****yyyyy",
"yyyyyy7777yy#:***yyyy*****yyyyyy",
"yyyyyy687qyy:*************yyyyyy",
"yyyyyyy78yy%*************yyyyyyy",
"yyyyyyyyry#<><><><><><><>yyyyyyy",
"yyyyyyyyyy..............yyyyyyyy",
"yyyyyyyyyy3222223322333yyyyyyyyy",
"yyyyyyyyyyyyyyyyyyyyyyyyyyyyyyyy",
"yyyyyyyyyyyyyyyyyyyyyyyyyyyyyyyy",
"yyyyyyyyyyyyyyyyyyyyyyyyyyyyyyyy"
};
