/* XPM */
static char *bitcoin64[] = {
/* columns rows colors chars-per-pixel */
"64 64 3 1 ",
"  c None",
". c #051937",
"X c #989696",
/* pixels */
"                                                                ",
"                                                                ",
"                                                                ",
"                                                                ",
"                                                                ",
"                                                                ",
"                                                                ",
"                                                                ",
"                                                                ",
"                                                                ",
"                                                                ",
"                                                                ",
"                    ........................                    ",
"                     ........................                   ",
"                      ........................                  ",
"                      ........................                  ",
"                       ........................                 ",
"                       ........................                 ",
"                XX      ........................                ",
"                XX      ........        ........                ",
"               XXXX      ........        ........               ",
"              XXXXXX      ........        ........              ",
"              XXXXXX      ........        ........              ",
"             XXXXXXXX      ........        ........             ",
"             XXXXXXXX      ........        ........             ",
"            XXXXXXXX        ........        ........            ",
"            XXXXXXXX        .........       ........            ",
"           XXXXXXXX          ........        ........           ",
"          XXXXXXXX            ........        ........          ",
"          XXXXXXXX            ........        ........          ",
"         XXXXXXXX              ........        ........         ",
"         XXXXXXXX              ........        ........         ",
"        XXXXXXXX                ........        ........        ",
"         XXXXXXXX              ........        ........         ",
"         XXXXXXXX              ........        ........         ",
"          XXXXXXXX            ........        ........          ",
"          XXXXXXXX            ........        ........          ",
"           XXXXXXXX          ........        ........           ",
"            XXXXXXXX         ........       ........            ",
"            XXXXXXXX        ........        ........            ",
"             XXXXXXXX      ........        ........             ",
"             XXXXXXXX      ........        ........             ",
"              XXXXXX      ........        ........              ",
"              XXXXXX      ........        ........              ",
"               XXXX      ........        ........               ",
"                XX      ........        ........                ",
"                XX      ........................                ",
"                       ........................                 ",
"                       ........................                 ",
"                      ........................                  ",
"                      ........................                  ",
"                     ........................                   ",
"                    ........................                    ",
"                                                                ",
"                                                                ",
"                                                                ",
"                                                                ",
"                                                                ",
"                                                                ",
"                                                                ",
"                                                                ",
"                                                                ",
"                                                                ",
"                                                                "
};
