/* XPM */
static char *bitcoin64[] = {
/* columns rows colors chars-per-pixel */
"48 48 144 2 ",
"   c black",
".  c #010101",
"X  c #030202",
"o  c gray1",
"O  c #040505",
"+  c #050707",
"@  c #060606",
"#  c #070707",
"$  c #090909",
"%  c #090B0B",
"&  c #0B0A0A",
"*  c #0A0E0E",
"=  c #0B0E0E",
"-  c #0B0F0E",
";  c #0B0F0F",
":  c #0F1212",
">  c #0F1313",
",  c #101111",
"<  c #121414",
"1  c #151A1A",
"2  c #161B1B",
"3  c #191C1B",
"4  c #1D2221",
"5  c #1D2222",
"6  c #232323",
"7  c #202525",
"8  c #292F2E",
"9  c #2C3332",
"0  c #333837",
"q  c #3B3D3D",
"w  c #3D3F3F",
"e  c #3E4040",
"r  c #3F4141",
"t  c #424444",
"y  c #404646",
"u  c #414746",
"i  c #424746",
"p  c #464B4B",
"a  c #474C4C",
"s  c #494E4E",
"d  c #4A4F4F",
"f  c #4C4F4F",
"g  c #585E5E",
"h  c #616666",
"j  c gray46",
"k  c gray48",
"l  c #AA151E",
"z  c #AA161E",
"x  c #AB171F",
"c  c #AB181E",
"v  c #AB181F",
"b  c #AA1720",
"n  c #AA1820",
"m  c #AB1920",
"M  c #AB1921",
"N  c #AB1A21",
"B  c #AD1920",
"V  c #AC1A21",
"C  c #AD1A21",
"Z  c #AC1B22",
"A  c #AC1C23",
"S  c #AC1D24",
"D  c #AD1D24",
"F  c #AC1E25",
"G  c #AD1E25",
"H  c #AE1E25",
"J  c #AE1F25",
"K  c #AD1F26",
"L  c #AE1E26",
"P  c #B01F26",
"I  c #AF2329",
"U  c #AF242A",
"Y  c #AF252B",
"T  c #AF272F",
"R  c #B02128",
"E  c #B02229",
"W  c #B1232A",
"Q  c #B4272E",
"!  c #B32D33",
"~  c #B32E34",
"^  c #B43238",
"/  c #B8333A",
"(  c #B9343B",
")  c #BE393E",
"_  c #C65057",
"`  c #C65157",
"'  c #C75157",
"]  c #C9565B",
"[  c #CB5D62",
"{  c #CB5D63",
"}  c #CA5E63",
"|  c #CB5E63",
" . c #CD6266",
".. c #C66368",
"X. c #CD656A",
"o. c #C86A6F",
"O. c #CD777A",
"+. c #C57B7F",
"@. c #CE797C",
"#. c #C67E82",
"$. c #7F8181",
"%. c #808080",
"&. c #808181",
"*. c #838282",
"=. c #838383",
"-. c #8F8D8D",
";. c #908D8D",
":. c #9C9796",
">. c #9D9898",
",. c #A29F9F",
"<. c #BB9798",
"1. c #BC9798",
"2. c #B29E9E",
"3. c #B39F9F",
"4. c #BA9E9E",
"5. c #BA9F9F",
"6. c #B6A2A3",
"7. c #BFB0B0",
"8. c #C58081",
"9. c #C68183",
"0. c #C68283",
"q. c #C98285",
"w. c #D59091",
"e. c #D69093",
"r. c #D79495",
"t. c #D79596",
"y. c #D7999A",
"u. c #D79A9B",
"i. c #D59E9F",
"p. c #D79FA1",
"a. c #D79FA2",
"s. c #D89DA0",
"d. c #C9AAAC",
"f. c #C9ABAC",
"g. c #CAACAD",
"h. c #D7A0A2",
"j. c #D4A5A7",
"k. c #D8A1A4",
"l. c #D5A7A9",
"z. c #D7A6A8",
"x. c #CCAFB0",
"c. c #C0B0B1",
"v. c #CEB7B8",
"b. c None",
/* pixels */
"b.b.b.b.b.b.b.b.b.b.b.b.b.b.b.b.b.b.b.b.b.b.b.b.b.b.b.b.b.b.b.b.b.b.b.b.b.b.b.b.b.b.b.b.b.b.b.b.",
"b.b.b.b.b.b.b.b.b.b.b.b.b.b.b.b.b.b.b.b.b.b.b.b.b.b.b.b.b.b.b.b.b.b.b.b.b.b.b.b.b.b.b.b.b.b.b.b.",
"b.b.b.b.b.b.b.b.b.b.b.b.b.b.b.b.b.b.b.b.b.b.b.b.b.b.b.b.b.b.b.b.b.b.b.b.b.b.b.b.b.b.b.b.b.b.b.b.",
"b.b.b.b.. . . . . . . . . . . . . . . . . . . . . . . . . . . . . . . . . . . . . . . . b.b.b.b.",
"b.b.b.# . . . . . . . . . . . . . . . . . . . . . . . . . . . . . . . . . . . . . . . . O b.b.b.",
"b.b.b.O . . . . . . . . . . . . . . . . . . . . . . . . . . . . . . . . . . . . . . . . O b.b.b.",
"b.b.b.O . . . . . . . . . . . . . . . . . . . . . . . . . . . . . . . . . . . . . . . . + b.b.b.",
"b.b.b.O . 6 *.-.-.-.-.-.-.-.-.-.-.-.-.-.-.-.-.-.-.-.-.-.-.-.-.-.-.-.-.-.-.-.=.p O . . . + b.b.b.",
"b.b.b.# . u p.] ` ` ` ` ` ` ` ` ` ` ` ` ` ` ` ` ` ` ` ` ` ` ` ` ` ` ` ` ` ` [ u.>.< . . + b.b.b.",
"b.b.b.O . u 8.L n n n Z Z n Z n Z Z v Z Z v Z Z n n Z n Z n Z Z Z n n Z n Z v K O.*.. . + b.b.b.",
"b.b.b.# . r 0.Y K K K K K K K K F F K K K K K K K K K K K K K K K K K K K K K K ^ 4.> . + b.b.b.",
"b.b.b.# . i 0.Y K K K K K K K K K K K K K K K K K K K K K K K K K K K K K K K K ~ <.2 . + b.b.b.",
"b.b.b.O . i 0.Y L K K K K K K K K K K K K K K K K K K K K K K K K K K K K K K K ~ <.1 . + b.b.b.",
"b.b.b.# . i 8.Y L K K K K K K K K K K K K P K K K K K P K K K K K K K K K K K K ~ <.1 . + b.b.b.",
"b.b.b.# . i 8.L v Z C C C C C C Z v Z Z C C C C Z v v Z Z Z C n Z K K K K K K K ~ <.1 . + b.b.b.",
"b.b.b.O . q v.l.j.j.j.j.j.j.j.j.j.j.j.j.j.j.j.j.j.j.j.j.j.j.j.z.o.n K K K K S L ~ <.1 . + b.b.b.",
"b.b.b.O . O 3 4 4 4 4 4 4 4 4 4 4 4 4 4 4 4 4 4 4 4 4 4 4 4 5 g t.z L K K K K K ~ <.1 . + b.b.b.",
"b.b.b.# . . . . . . . . . . . . . . . . . . . . . . . . . . . t w.z K K K K K K ~ <.1 . + b.b.b.",
"b.b.b.O . . $ ; * * * ; * * * + . . . . . . . . . . . . . . o i w.z K K K K K K ~ <.1 . + b.b.b.",
"b.b.b.O . w c.f.d.d.f.d.d.d.x.,.$ . . . . . . . . . . . . . . t w.z K K K K K K ~ <.1 . + b.b.b.",
"b.b.b.# . s q.Q E E E W Y I ) 6.$ . . . . . . . . . . . . . . i w.z K K K K K K ~ <.1 . O b.b.b.",
"b.b.b.# . s #.I L L L L S S ( 3.$ . . . . . . . . . . . . . . t w.z K K K K K K ~ <.1 . O b.b.b.",
"b.b.b.O . s #.Y Z K K K S S / 2.$ . . . . . . . . . . . . . o i w.z K K K K K K ~ <.1 . + b.b.b.",
"b.b.b.# . s #.Y K K K K R S / 2.& . . . . . . . . . . . . . o t w.z K K K K K K ~ <.1 . + b.b.b.",
"b.b.b.# . s #.I F S R R F F / 6.$ . . . . . . . . . . . . . . i w.z K K K K K K ~ <.1 . + b.b.b.",
"b.b.b.# . s #.Y F F F F F F / 2.$ . . . . . . . . . . . . . . t w.z K K K K K K ~ <.1 . + b.b.b.",
"b.b.b.O . s #.I F R F F F F ^ 6.& . . . . . . . . . . . . . o i w.z K K K K K K ~ <.1 . + b.b.b.",
"b.b.b.# . s #.Y F F R F R F / 2.$ . . . . . . . . . . . . . o t w.z K K K K K K ~ <.1 . + b.b.b.",
"b.b.b.# . s #.I F S R R L S ( 3.& . . . . . . . . . . . . . . i w.z K K K K K K ~ <.1 . + b.b.b.",
"b.b.b.O . s #.Y F R F F L S ( 2.& . . . . . . . . . . . . . o w w.z K K K K K K ~ <.1 . + b.b.b.",
"b.b.b.O . s #.I S R S R S S / 7.0 8 8 8 8 8 8 8 8 8 8 8 8 8 9 h t.z K K K K K K ~ <.1 . + b.b.b.",
"b.b.b.O . s #.Y S S R S I S T e.p.p.p.p.a.p.p.p.p.p.a.p.p.h.s.s...n K K K K S L ~ <.1 . O b.b.b.",
"b.b.b.# . s #.Y L S K K K K K n v v v v v v v v v v v v v v v v n K K K K K K K ~ <.1 . O b.b.b.",
"b.b.b.O . s #.I S L K K K K K K K K K K K K K K K K K K K K K K K K K K K K K K ~ <.1 . O b.b.b.",
"b.b.b.# . s #.Y L K K K K K K K K K K K K K K K K K K K K K K K K K K K K K K K ~ <.1 . + b.b.b.",
"b.b.b.# . a #.I S K K K K K K K K K K K K K K K K K K K K K K K K K K K K K K K ~ <.1 . + b.b.b.",
"b.b.b.O . s #.I K K F S K K K K F F F K K K K S K K K K K K K K K K K K K K L J / 5.: . + b.b.b.",
"b.b.b.# . s +.L v n n v n n C n v v n Z n n n n n n v v n n v v C n n v n n v L @.k . . + b.b.b.",
"b.b.b.# . f k. .[  .[  .[ [  .[ [  .[ [  .[ [ [  .[  .[  .[  .[  .[ [ [  .[ X.u.>., . . + b.b.b.",
"b.b.b.O . 6 j *.%.$.$.$.*.%.$.$.$.*.$.$.$.*.*.$.$.%.$.$.%.%.$.$.$.$.*.$.$.$.k p O . . . + b.b.b.",
"b.b.b.# . . . . . . . . . . . . . . . . . . . . . . . . . . . . . . . . . . . . . . . . O b.b.b.",
"b.b.b.O . . . . . . . . . . . . . . . . . . . . . . . . . . . . . . . . . . . . . . . . O b.b.b.",
"b.b.b.O . . . . . . . . . . . . . . . . . . . . . . . . . . . . . . . . . . . . . . . . + b.b.b.",
"b.b.b.b.. . . . . . . . . . . . . . . . . . . . . . . . . . . . . . . . . . . . . . . . b.b.b.b.",
"b.b.b.b.b.b.b.b.b.b.b.b.b.b.b.b.b.b.b.b.b.b.b.b.b.b.b.b.b.b.b.b.b.b.b.b.b.b.b.b.b.b.b.b.b.b.b.b.",
"b.b.b.b.b.b.b.b.b.b.b.b.b.b.b.b.b.b.b.b.b.b.b.b.b.b.b.b.b.b.b.b.b.b.b.b.b.b.b.b.b.b.b.b.b.b.b.b.",
"b.b.b.b.b.b.b.b.b.b.b.b.b.b.b.b.b.b.b.b.b.b.b.b.b.b.b.b.b.b.b.b.b.b.b.b.b.b.b.b.b.b.b.b.b.b.b.b.",
"b.b.b.b.b.b.b.b.b.b.b.b.b.b.b.b.b.b.b.b.b.b.b.b.b.b.b.b.b.b.b.b.b.b.b.b.b.b.b.b.b.b.b.b.b.b.b.b."
};
