<?xml version="1.0" encoding="utf-8"?>
<!-- Generator: Adobe Illustrator 22.1.0, SVG Export Plug-In . SVG Version: 6.00 Build 0)  -->
<svg version="1.1" id="f4cb3e3c-0c57-4a03-b858-6811b3857f6f"
	 xmlns="http://www.w3.org/2000/svg" xmlns:xlink="http://www.w3.org/1999/xlink" x="0px" y="0px" viewBox="0 0 256 256"
	 enable-background="new 0 0 256 256" xml:space="preserve">
<g>
	<path fill="#92979D" d="M168.6,92c0-17.3-14.1-31.4-31.4-31.4S105.8,74.7,105.8,92s14.1,31.4,31.4,31.4S168.6,109.4,168.6,92z
		 M118.3,92c0-10.5,8.5-18.9,18.9-18.9s18.9,8.5,18.9,18.9s-8.5,18.9-18.9,18.9l0,0C126.8,111,118.3,102.5,118.3,92z"/>
	<path fill="#92979D" d="M81.7,171.8v17.2c0,3.4,2.8,6.2,6.2,6.2h98.7c3.4,0,6.2-2.8,6.2-6.2v-17.2c-0.1-24.2-19.7-43.8-43.9-43.8
		h-23.2C101.4,128,81.8,147.6,81.7,171.8z M125.6,140.5h23.2c17.3,0,31.5,14.1,31.6,31.4v11H94.1v-11
		C94.2,154.5,108.3,140.5,125.6,140.5z"/>
	<rect x="28.3" y="100" fill="#92979D" width="12.5" height="56"/>
	<path fill="#92979D" d="M248.1,249.4V6.6c0-3.4-2.8-6.2-6.2-6.2H34.6c-3.5,0-6.3,2.8-6.3,6.2v46.6h12.5V12.9h194.8v230.2H40.8
		v-40.5H28.3v46.6c0,3.4,2.8,6.2,6.2,6.2h207.3C245.3,255.5,248.1,252.8,248.1,249.4z"/>
	<rect x="7.9" y="172.4" fill="#92979D" width="54.4" height="12.5"/>
	<rect x="7.9" y="71.1" fill="#92979D" width="51.3" height="12.5"/>
</g>
</svg>
