<svg id="77b515a4-f28d-4f17-8e13-ee6ad6b62ac0" data-name="Layer 4" xmlns="http://www.w3.org/2000/svg" viewBox="0 0 212.01 210.76"><title>clock5</title><path d="M54.27,40.51,65.41,43.8a106,106,0,1,0,79.28-19.17,7.5,7.5,0,0,0-2.48,14.79,91.06,91.06,0,1,1-94.27,133.4C25.86,132.24,38,82.08,74.43,55.55l-4.09,14.5a7.44,7.44,0,0,0,14.27,4.22l8.84-29.95a7.75,7.75,0,0,0-.77-5.71,8.22,8.22,0,0,0-4.38-3.75L58.36,26a7.62,7.62,0,0,0-9.25,5A7.45,7.45,0,0,0,54.27,40.51Z" transform="translate(-22 -24.54)" style="fill:#45ff40"/><path d="M154.6,161.58a7.2,7.2,0,0,0,5.9-3.08A7.44,7.44,0,0,0,159,148l-24.53-18V90.78a7.45,7.45,0,1,0-14.89,0v42.81a6.87,6.87,0,0,0,3.08,5.9L150.23,160A6,6,0,0,0,154.6,161.58Z" transform="translate(-22 -24.54)" style="fill:#45ff40"/><circle cx="105.86" cy="171.69" r="10.56" style="fill:#45ff40"/><circle cx="37.86" cy="103.92" r="10.56" style="fill:#45ff40"/><circle cx="173.36" cy="103.92" r="10.56" style="fill:#45ff40"/><circle cx="106" cy="36.14" r="10.56" style="fill:#45ff40"/></svg>