<svg id="f0216b27-2992-4fa2-b1a1-9f847b9c3ec4" data-name="Layer 6" xmlns="http://www.w3.org/2000/svg" viewBox="0 0 211.96 211.93"><title>clock4</title><path d="M63.47,224l0-11.62A106,106,0,1,0,22.9,141.65a7.49,7.49,0,1,0,14.88-1.77A91.06,91.06,0,1,1,192.26,193c-32.78,32.57-84.33,34.94-120,7.42l15.06-.13a7.44,7.44,0,1,0,.05-14.88l-31.22-.1a7.77,7.77,0,0,0-5.27,2.34,8.28,8.28,0,0,0-2.37,5.26l-.1,31.21a7.58,7.58,0,0,0,7.41,7.47A7.44,7.44,0,0,0,63.47,224Z" transform="translate(-22.06 -22.38)" style="fill:#ffde3e"/><path d="M154.6,161.58a7.2,7.2,0,0,0,5.9-3.08A7.44,7.44,0,0,0,159,148l-24.53-18V90.78a7.45,7.45,0,1,0-14.89,0v42.81a6.87,6.87,0,0,0,3.08,5.9L150.23,160A6,6,0,0,0,154.6,161.58Z" transform="translate(-22.06 -22.38)" style="fill:#ffde3e"/><circle cx="105.8" cy="173.85" r="10.56" style="fill:#ffde3e"/><circle cx="37.8" cy="106.08" r="10.56" style="fill:#ffde3e"/><circle cx="173.3" cy="106.08" r="10.56" style="fill:#ffde3e"/><circle cx="105.94" cy="38.3" r="10.56" style="fill:#ffde3e"/></svg>