<svg id="f09218fe-bcc8-4b2d-b0da-cc10879e68d9" data-name="Layer 7" xmlns="http://www.w3.org/2000/svg" viewBox="0 0 211.59 211.98"><title>clock2</title><path d="M210.84,48.13l-2.5,11.34A106,106,0,1,0,233,137.22a7.49,7.49,0,1,0-14.92-1.44A91.06,91.06,0,1,1,78.41,51.05c39-24.86,89.83-16.23,118.84,18.24L182.5,66.22a7.44,7.44,0,1,0-3.21,14.53l30.48,6.73a7.78,7.78,0,0,0,5.65-1.17,8.28,8.28,0,0,0,3.44-4.63l6.73-30.48a7.59,7.59,0,0,0-5.66-8.87A7.44,7.44,0,0,0,210.84,48.13Z" transform="translate(-21.43 -21.89)" style="fill:#ff7140"/><path d="M154.6,161.58a7.2,7.2,0,0,0,5.9-3.08A7.44,7.44,0,0,0,159,148l-24.53-18V90.78a7.45,7.45,0,1,0-14.89,0v42.81a6.87,6.87,0,0,0,3.08,5.9L150.23,160A6,6,0,0,0,154.6,161.58Z" transform="translate(-21.43 -21.89)" style="fill:#ff7140"/><circle cx="106.43" cy="174.34" r="10.56" style="fill:#ff7140"/><circle cx="38.43" cy="106.57" r="10.56" style="fill:#ff7140"/><circle cx="173.93" cy="106.57" r="10.56" style="fill:#ff7140"/><circle cx="106.57" cy="38.79" r="10.56" style="fill:#ff7140"/></svg>