<svg id="44e63ce2-2117-49c0-8a09-21d46b0688e4" data-name="Layer 3" xmlns="http://www.w3.org/2000/svg" viewBox="0 0 211.96 211.89"><title>clock3</title><path d="M211.69,207.78l-11.44-2a106,106,0,1,0-76.5,28.31,7.5,7.5,0,1,0,.73-15,91.06,91.06,0,1,1,78-143.51c26.67,37.73,20.46,89-12.6,119.57l2.37-14.88a7.44,7.44,0,1,0-14.67-2.52l-5.28,30.77a7.82,7.82,0,0,0,1.44,5.59,8.25,8.25,0,0,0,4.79,3.21l30.77,5.28a7.59,7.59,0,0,0,8.59-6.08A7.44,7.44,0,0,0,211.69,207.78Z" transform="translate(-22.1 -22.25)" style="fill:#ffb339"/><path d="M154.6,161.58a7.2,7.2,0,0,0,5.9-3.08A7.44,7.44,0,0,0,159,148l-24.53-18V90.78a7.45,7.45,0,1,0-14.89,0v42.81a6.87,6.87,0,0,0,3.08,5.9L150.23,160A6,6,0,0,0,154.6,161.58Z" transform="translate(-22.1 -22.25)" style="fill:#ffb339"/><circle cx="105.76" cy="173.98" r="10.56" style="fill:#ffb339"/><circle cx="37.76" cy="106.21" r="10.56" style="fill:#ffb339"/><circle cx="173.26" cy="106.21" r="10.56" style="fill:#ffb339"/><circle cx="105.9" cy="38.43" r="10.56" style="fill:#ffb339"/></svg>