<svg xmlns="http://www.w3.org/2000/svg" viewBox="0 0 212.01 210.76"><title>clock1</title><g id="81f3dc9f-c769-46f2-a5f8-aa555a69b8c4" data-name="Layer 2"><path d="M154.6,161.58a7.2,7.2,0,0,0,5.9-3.08A7.44,7.44,0,0,0,159,148l-24.53-18V90.78a7.45,7.45,0,1,0-14.89,0v42.81a6.87,6.87,0,0,0,3.08,5.9L150.23,160A6,6,0,0,0,154.6,161.58Z" transform="translate(-21.72 -24.54)" style="fill:#ff3b3b"/><circle cx="106.14" cy="171.69" r="10.56" style="fill:#ff3b3b"/><circle cx="38.14" cy="103.92" r="10.56" style="fill:#ff3b3b"/><circle cx="173.64" cy="103.92" r="10.56" style="fill:#ff3b3b"/><circle cx="106.28" cy="36.14" r="10.56" style="fill:#ff3b3b"/></g><g id="0d5ebd09-3393-4361-81b2-6b5d46654a15" data-name="Layer 4 copy"><path d="M54,40.51,65.13,43.8a106,106,0,1,0,79.28-19.17,7.5,7.5,0,0,0-2.48,14.79,91.06,91.06,0,1,1-94.27,133.4C25.58,132.24,37.74,82.08,74.15,55.55l-4.09,14.5a7.44,7.44,0,0,0,14.27,4.22l8.84-29.95a7.75,7.75,0,0,0-.77-5.71A8.22,8.22,0,0,0,88,34.86L58.08,26a7.6,7.6,0,0,0-9.24,5A7.43,7.43,0,0,0,54,40.51Z" transform="translate(-21.72 -24.54)" style="fill:#ff3b3b"/></g></svg>