<svg id="452bd7b1-e235-476b-baee-fb57093b816e" data-name="f4cb3e3c-0c57-4a03-b858-6811b3857f6f" xmlns="http://www.w3.org/2000/svg" viewBox="0 0 184.8 222"><title>connect0_16</title><path d="M68.73,17.48C55,28.91,47.65,47.46,48.11,70.15c.49,24.63,10,51.07,26.84,74.46,24,33.46,58.3,54.24,89.39,54.24,10.95,0,20.74-2.64,29.14-7.85Z" transform="translate(-22.93 -17.48)" style="fill:#49545e"/><path d="M205.19,51a13.47,13.47,0,0,0-24.41,7.77L125.2,75.36a5.19,5.19,0,0,0,3,9.94l50.11-15-30.15,42.72a5.18,5.18,0,1,0,8.47,6L190,71.64A13.47,13.47,0,0,0,205.19,51Z" transform="translate(-22.93 -17.48)" style="fill:#49545e"/><path d="M75.7,156.92l-1.48,1.3S22.93,195.1,22.93,239.48h89.19V189.34A150,150,0,0,1,75.7,156.92Z" transform="translate(-22.93 -17.48)" style="fill:#49545e"/></svg>