<?xml version="1.0" encoding="utf-8"?>
<!-- Generator: Adobe Illustrator 22.1.0, SVG Export Plug-In . SVG Version: 6.00 Build 0)  -->
<svg version="1.1" id="f4cb3e3c-0c57-4a03-b858-6811b3857f6f"
	 xmlns="http://www.w3.org/2000/svg" xmlns:xlink="http://www.w3.org/1999/xlink" x="0px" y="0px" viewBox="0 0 256 256"
	 enable-background="new 0 0 256 256" xml:space="preserve">
<path fill="#49545E" d="M128,152.3c-23.9,0-43.4,19.3-43.4,43c0,23.9,19.5,43.4,43.4,43.4c23.9,0,43.4-19.3,43.4-43
	C171.4,171.7,151.9,152.3,128,152.3z M128,217.9c-12.3,0-22.2-10-22.2-22.2s10-22.2,22.2-22.2s22.2,10,22.2,22.2
	S140.3,217.9,128,217.9z"/>
<path opacity="0" fill="#49545E" d="M128,111.6c-22.5,0-43.6,8.7-59.5,24.6c-2,2-3.1,4.7-3.1,7.5c0,2.8,1.1,5.4,3.1,7.5
	c2.1,2.1,4.8,3.1,7.4,3.1c2.7,0,5.4-1.1,7.5-3.2c11.7-12,27.5-18.6,44.5-18.6c16.9,0,32.3,6.5,44.6,18.7c1.9,1.9,4.6,3,7.6,3
	c3.3,0,5.9-1.2,7.6-3.3c3.9-4.2,3.8-10.5-0.3-14.6C171.6,120.4,150.5,111.6,128,111.6z"/>
<path opacity="0" fill="#49545E" d="M128,69.9c-33.8,0-65.5,13.1-89.3,36.9c-4.2,4.2-4.2,10.7,0,14.9c2,2,4.7,3.1,7.5,3.1
	c2.8,0,5.4-1.1,7.5-3.1c19.4-19.4,46.4-30.6,74-30.6c28,0,54.3,10.9,74,30.6c1.9,1.9,4.6,3,7.6,3c2.7,0,4.9-1.1,6.7-2l0.7-0.4
	l0.6-0.6c4.2-4.2,4.2-10.7,0-14.9C193.1,83,161.4,69.9,128,69.9z"/>
<path opacity="0" fill="#49545E" d="M249.4,74.7C216.9,42.2,173.8,24.4,128,24.4c-45.8,0-88.9,17.9-121.4,50.3
	c-4.2,4.2-4.2,10.7,0,14.9c2.1,2.1,4.8,3.1,7.4,3.1c2.7,0,5.4-1,7.5-3.2c28-28.4,65.7-44,106.1-44c40.4,0,78,15.6,106.1,44
	c1.3,1.3,3.8,3,7.6,3c2.7,0,4.9-1.1,6.7-2l0.7-0.4l0.6-0.6C253.5,85.4,253.5,78.9,249.4,74.7z"/>
</svg>
