<?xml version="1.0" encoding="utf-8"?>
<!-- Generator: Adobe Illustrator 22.1.0, SVG Export Plug-In . SVG Version: 6.00 Build 0)  -->
<svg version="1.1" id="f4cb3e3c-0c57-4a03-b858-6811b3857f6f"
	 xmlns="http://www.w3.org/2000/svg" xmlns:xlink="http://www.w3.org/1999/xlink" x="0px" y="0px" viewBox="0 0 256 256"
	 style="enable-background:new 0 0 256 256;" xml:space="preserve">
<style type="text/css">
	.st0{fill:#92979D;}
</style>
<g transform="translate(0,-952.36218)">
	<path class="st0" d="M93.7,954.4c-2.2,0.2-4.1,1.7-4.8,3.7l-8.8,24.8H17.2c-0.2,0-0.4,0-0.5,0c-2.9,0.3-5.2,2.8-5.2,5.7v211.1
		c0,3.2,2.6,5.7,5.7,5.7h222.6c3.2,0,5.7-2.6,5.7-5.7V988.6c0-3.2-2.6-5.7-5.7-5.7h-62.9l-8.8-24.8c-0.8-2.2-3-3.7-5.3-3.7H94.3
		C94.1,954.4,93.9,954.4,93.7,954.4z M98.3,965.8h60.4l10.3,28.5H88L98.3,965.8z M22.9,994.3H76l-1.3,3.7c-1.1,3,0.4,6.2,3.4,7.3
		c0.6,0.2,1.3,0.3,2,0.3h97c3.2,0,5.7-2.6,5.7-5.7c0-0.7-0.1-1.3-0.3-2l-1.3-3.7h53.1V1194H22.9V994.3z"/>
</g>
<path class="st0" d="M178.3,149.5c-2.2-2.2-5.8-2.2-8.1,0l-33.4,33.4V93.7c0-3.2-2.6-5.7-5.7-5.7c-3.2,0-5.7,2.6-5.7,5.7v89.2
	L92,149.5c-2.2-2.2-5.8-2.2-8.1,0c-2.2,2.2-2.2,5.8,0,8.1l43.1,43.1c1.1,1.1,2.6,1.7,4,1.7s2.9-0.6,4-1.7l43.1-43.1
	C180.5,155.4,180.5,151.8,178.3,149.5z"/>
</svg>
