<?xml version="1.0" encoding="utf-8"?>
<!-- Generator: Adobe Illustrator 22.1.0, SVG Export Plug-In . SVG Version: 6.00 Build 0)  -->
<svg version="1.1" id="f4cb3e3c-0c57-4a03-b858-6811b3857f6f"
	 xmlns="http://www.w3.org/2000/svg" xmlns:xlink="http://www.w3.org/1999/xlink" x="0px" y="0px" viewBox="0 0 256 256"
	 style="enable-background:new 0 0 256 256;" xml:space="preserve">
<style type="text/css">
	.st0{fill:#92979D;}
</style>
<path class="st0" d="M222.5,1.5H80.8C63.4,1.5,49.2,15.6,49.2,33v15.8H33.5C16.1,48.8,2,62.9,2,80.3V222c0,17.4,14.1,31.5,31.5,31.5
	h141.8c17.4,0,31.5-14.1,31.5-31.5v-15.8h15.8c17.4,0,31.5-14.1,31.5-31.5V33C254,15.6,239.9,1.5,222.5,1.5z M191,222
	c0,8.7-7.1,15.8-15.8,15.8H33.5c-8.7,0-15.8-7.1-15.8-15.8V80.3c0-8.7,7.1-15.8,15.8-15.8h15.8v110.2c0,17.4,14.1,31.5,31.5,31.5
	H191V222z M238.2,174.8c0,8.7-7.1,15.8-15.8,15.8h-15.8h-126c-8.7,0-15.8-7.1-15.8-15.8v-126V33c0-8.7,7.1-15.8,15.8-15.8h141.8
	c8.7,0,15.8,7.1,15.8,15.8V174.8z"/>
</svg>
