<?xml version="1.0" encoding="utf-8"?>
<!-- Generator: Adobe Illustrator 22.1.0, SVG Export Plug-In . SVG Version: 6.00 Build 0)  -->
<svg version="1.1" id="f4cb3e3c-0c57-4a03-b858-6811b3857f6f"
	 xmlns="http://www.w3.org/2000/svg" xmlns:xlink="http://www.w3.org/1999/xlink" x="0px" y="0px" viewBox="0 0 22.7 18.7"
	 style="enable-background:new 0 0 22.7 18.7;" xml:space="preserve">
<style type="text/css">
	.st0{fill:#FFFFFF;}
</style>
<path class="st0" d="M0.9,4.2h19.9l-2,2c-0.2,0.2-0.2,0.4,0,0.6C18.9,6.9,19,7,19.1,7s0.2,0,0.3-0.1l2.8-2.8
	c0.1-0.1,0.1-0.2,0.1-0.3s0-0.2-0.1-0.3l-2.8-2.8c-0.2-0.2-0.4-0.2-0.6,0s-0.2,0.4,0,0.6l2,2H0.9c-0.2,0-0.4,0.2-0.4,0.4
	S0.7,4.2,0.9,4.2z"/>
<path class="st0" d="M3.3,17.9C3.4,18,3.5,18,3.6,18c0.1,0,0.2,0,0.3-0.1c0.2-0.2,0.2-0.4,0-0.6l-2-2h19.9c0.2,0,0.4-0.2,0.4-0.4
	s-0.2-0.4-0.4-0.4H1.9l2-2c0.2-0.2,0.2-0.4,0-0.6c-0.2-0.2-0.4-0.2-0.6,0l-2.8,2.8c-0.1,0.1-0.1,0.2-0.1,0.3c0,0.1,0,0.2,0.1,0.3
	L3.3,17.9z"/>
</svg>
