<?xml version="1.0" encoding="utf-8"?>
<!-- Generator: Adobe Illustrator 22.1.0, SVG Export Plug-In . SVG Version: 6.00 Build 0)  -->
<svg version="1.1" id="f4cb3e3c-0c57-4a03-b858-6811b3857f6f"
	 xmlns="http://www.w3.org/2000/svg" xmlns:xlink="http://www.w3.org/1999/xlink" x="0px" y="0px" viewBox="0 0 256 256"
	 style="enable-background:new 0 0 256 256;" xml:space="preserve">
<style type="text/css">
	.st0{fill:#747C83;}
</style>
<g>
	<path class="st0" d="M8.7,72H231l-19.4,19.4c-1.5,1.5-2.3,3.2-2.3,4.8s0.8,3.3,2.3,4.8c1.4,1.4,2.9,2.9,4.8,2.9
		c1.2,0,3.1,0,4.8-1.7l32-32c1.7-1.7,1.7-3.6,1.7-4.8s0-3.1-1.7-4.8l-32-32c-3-3-6.7-3-9.7,0c-1.5,1.5-2.3,3.2-2.3,4.8
		s0.8,3.3,2.3,4.8L231,57.7H8.7c-3.4,0-6.6,3.2-6.6,6.6C2.1,67.3,5,72,8.7,72z"/>
	<path class="st0" d="M247.3,185.6H25l19.4-19.4c1.5-1.5,2.3-3.2,2.3-4.8s-0.8-3.3-2.3-4.8c-3-3-6.7-3-9.7,0l-32,32
		C1,190.2,1,192,1,193.3s0,3.1,1.8,4.9l31.9,29.7c1.7,1.7,3.6,1.7,4.8,1.7c1.2,0,3.1,0,4.8-1.7c1.5-1.5,2.3-3.2,2.3-4.8
		s-0.8-3.3-2.3-4.8L25,198.7h222.3c3.4,0,6.6-3.2,6.6-6.6S250.7,185.6,247.3,185.6z"/>
</g>
</svg>
