<svg id="bda59a3b-c42e-4462-9541-2c9acdad19d6" data-name="Layer 3" xmlns="http://www.w3.org/2000/svg" viewBox="0 0 190.31 249.61"><title>lock_closed</title><path d="M209.56,122.31h-7.22V77.53a74.34,74.34,0,0,0-148.68,0v44.78H46.44A13.63,13.63,0,0,0,32.85,135.9V239.21A13.62,13.62,0,0,0,46.44,252.8H209.56a13.62,13.62,0,0,0,13.59-13.59V135.9A13.63,13.63,0,0,0,209.56,122.31Zm-73.81,66.26v37.68a7.75,7.75,0,0,1-15.5,0V188.57a21.75,21.75,0,1,1,15.5,0Zm29.42-66.26H90.83V77.54a37.17,37.17,0,1,1,74.34,0Z" transform="translate(-32.85 -3.2)" style="fill:#49545e"/></svg>