<svg id="0d16a52c-e5f8-4ee5-908a-fb453713b304" data-name="Layer 2" xmlns="http://www.w3.org/2000/svg" viewBox="0 0 190.31 249.61"><title>lock_open</title><path d="M209.56,122.31h-7.22V77.53A74.34,74.34,0,0,0,55.57,60.81l36.83,6a37.17,37.17,0,0,1,72.77,10.71v44.77H46.44A13.63,13.63,0,0,0,32.85,135.9V239.21A13.62,13.62,0,0,0,46.44,252.8H209.56a13.62,13.62,0,0,0,13.59-13.59V135.9A13.63,13.63,0,0,0,209.56,122.31Zm-73.81,66.26v37.68a7.75,7.75,0,0,1-15.5,0V188.57a21.75,21.75,0,1,1,15.5,0Z" transform="translate(-32.85 -3.2)" style="fill:#49545e"/></svg>