<?xml version="1.0" encoding="utf-8"?>
<!-- Generator: Adobe Illustrator 22.1.0, SVG Export Plug-In . SVG Version: 6.00 Build 0)  -->
<svg version="1.1" id="_x32_338fba0-a4e5-4ce3-9728-722fabb38851"
	 xmlns="http://www.w3.org/2000/svg" xmlns:xlink="http://www.w3.org/1999/xlink" x="0px" y="0px" viewBox="0 0 59 52"
	 style="enable-background:new 0 0 59 52;" xml:space="preserve">
<style type="text/css">
	.st0{fill:#FFFFFF;}
</style>
<path class="st0" d="M55.4,35.4h-4.6V31c0-0.4-0.3-0.7-0.7-0.7c0,0,0,0,0,0H30.2v-3.8h10c2,0,3.6-1.5,3.7-3.5V3.5
	c0-2-1.7-3.6-3.6-3.5H18.8c-2,0-3.6,1.6-3.6,3.5V23c0,2,1.7,3.6,3.6,3.5h10v3.7H9c-0.4,0-0.7,0.3-0.7,0.7v4.4H3.6
	c-2,0-3.6,1.6-3.6,3.5c0,0,0,0,0,0v9.5c0,2,1.6,3.6,3.6,3.6c0,0,0,0,0,0h10.7c2,0,3.6-1.6,3.6-3.5v-9.5c0-2-1.7-3.6-3.6-3.5
	c0,0,0,0,0,0H9.7v-3.7h19.1v3.7h-4.6c-2,0-3.6,1.6-3.6,3.6c0,0,0,0,0,0v9.5c0,2,1.7,3.5,3.6,3.5h10.7c2,0,3.6-1.6,3.6-3.5V39
	c0-2-1.7-3.6-3.6-3.5h-4.6v-3.8h19.1v3.7h-4.6c-2,0-3.6,1.6-3.6,3.5c0,0,0,0,0,0v9.5c0,2,1.7,3.5,3.6,3.5h10.7c2,0,3.6-1.6,3.6-3.5
	c0,0,0,0,0,0V39C59,37,57.4,35.4,55.4,35.4C55.4,35.4,55.4,35.4,55.4,35.4z M16.6,23V3.5c0-1.2,1-2.1,2.2-2.1h21.5
	c1.2,0,2.2,0.9,2.2,2.1c0,0,0,0,0,0V23c0,1.2-1,2.1-2.2,2.1c0,0,0,0,0,0H18.8C17.6,25.1,16.6,24.2,16.6,23z M16.5,39v9.5
	c0,1.2-1,2.1-2.2,2.1H3.6c-1.2,0-2.2-0.9-2.2-2.1c0,0,0,0,0,0v-9.5c0-1.2,1-2.1,2.2-2.1c0,0,0,0,0,0h10.7
	C15.5,36.8,16.5,37.8,16.5,39C16.5,38.9,16.5,38.9,16.5,39L16.5,39z M37,39v9.5c0,1.2-1,2.1-2.2,2.1H24.2c-1.2,0-2.2-1-2.2-2.1
	c0,0,0,0,0,0V39c0-1.2,1-2.1,2.2-2.1c0,0,0,0,0,0h10.6C36,36.9,37,37.8,37,39z M57.5,48.5c0,1.2-1,2.1-2.2,2.1H44.7
	c-1.2,0-2.2-0.9-2.2-2.1V39c0-1.2,1-2.1,2.2-2.1h10.7c1.2,0,2.2,0.9,2.2,2.1L57.5,48.5z"/>
</svg>
