<?xml version="1.0" encoding="utf-8"?>
<!-- Generator: Adobe Illustrator 22.1.0, SVG Export Plug-In . SVG Version: 6.00 Build 0)  -->
<svg version="1.1" id="_x32_338fba0-a4e5-4ce3-9728-722fabb38851"
	 xmlns="http://www.w3.org/2000/svg" xmlns:xlink="http://www.w3.org/1999/xlink" x="0px" y="0px" viewBox="0 0 256 256"
	 style="enable-background:new 0 0 256 256;" xml:space="preserve">
<style type="text/css">
	.st0{fill:#747C83;}
</style>
<path class="st0" d="M253.5,182.9L253.5,182.9c-0.5-9.9-8.4-17.6-18.1-17.6h-15v-19.1c0-3.1-2.4-5.5-5.5-5.5h-81.7v-18.1H173
	c9.8,0,17.6-7.4,18.2-17.2l0-82.6c0-4.8-1.9-9.3-5.4-12.6c-3.4-3.2-7.9-4.9-12.3-4.7H82.6c-9.8,0-17.7,7.8-17.7,17.3v82.5
	c0,4.8,1.9,9.3,5.4,12.6c3.4,3.2,7.9,4.9,12.3,4.7h39.8v17.7H41.1c-3.1,0-5.5,2.4-5.5,5.5v19.1H20.3c-9.8,0-17.7,7.8-17.7,17.3v38.2
	c0,9.8,7.9,17.7,17.7,17.7h41.3c9.8,0,17.7-7.8,17.7-17.3v-38.2c0-4.8-1.9-9.3-5.4-12.6c-3.4-3.2-7.9-4.9-12.3-4.7h-15v-13.7h75.8
	v13.7h-15c-9.8,0-17.7,7.9-17.7,17.7v38.2c0,9.5,7.9,17.3,17.7,17.3h41.3c9.8,0,17.7-7.8,17.7-17.3V183c0-4.8-1.9-9.3-5.4-12.6
	c-3.4-3.2-7.9-4.9-12.3-4.7h-15v-14.1h75.8v13.7h-15c-9.8,0-17.7,7.8-17.7,17.3v38.2c0,9.5,7.9,17.3,17.7,17.3h41.3
	c9.8,0,17.7-7.8,17.7-17.3L253.5,182.9z M107.5,176.6h40.8c3.8,0,6.8,2.8,6.8,6.4v38.2c0,3.6-3,6.4-6.8,6.4h-40.8
	c-3.6,0-6.8-3-6.8-6.4V183C100.7,179.4,103.7,176.6,107.5,176.6z M75.8,22.8c0-3.6,3-6.4,6.8-6.4h90.9c3.8,0,6.8,2.8,6.8,6.4v82.5
	c0,3.6-3,6.4-6.8,6.4H82.6c-3.8,0-6.8-2.8-6.8-6.4V22.8z M187.4,183c0-3.6,3-6.4,6.8-6.4h41.3c3.8,0,6.8,2.8,6.8,6.4l-0.5,38.2
	c0,3.6-3,6.4-6.8,6.4h-40.8c-3.8,0-6.8-2.8-6.8-6.4V183z M62.3,176.6c1.4,0,2.8,0.6,3.9,1.6c1.3,1.2,2.1,3,2.1,4.8v38.2
	c0,3.6-3,6.4-6.8,6.4H20.3c-3.8,0-6.8-2.8-6.8-6.4V183c0-3.6,3-6.4,6.8-6.4h41.3l0.2,0C62,176.6,62.1,176.6,62.3,176.6z"/>
</svg>
