<?xml version="1.0" encoding="utf-8"?>
<!-- Generator: Adobe Illustrator 22.1.0, SVG Export Plug-In . SVG Version: 6.00 Build 0)  -->
<svg version="1.1" id="f4cb3e3c-0c57-4a03-b858-6811b3857f6f"
	 xmlns="http://www.w3.org/2000/svg" xmlns:xlink="http://www.w3.org/1999/xlink" x="0px" y="0px" viewBox="0 0 256 256"
	 style="enable-background:new 0 0 256 256;" xml:space="preserve">
<style type="text/css">
	.st0{fill:#747C83;}
</style>
<g>
	<path class="st0" d="M32.1,25.8c-0.4-1.9-2.7-1.9-3.6-1.9c-0.2,0-1.8,0-3.3,1.5c-1.5,1.5-1.5,3.2-1.5,4.4c0,0.9,0,3.2,1.9,3.6
		l34.6,34.6l-1.7,1.1C35.4,81.8,17.2,98.6,4.2,119.1c-3.6,6-3.6,12.1,0,18l0,0c13.1,20.7,31.4,37.9,52.9,49.7
		c21.5,11.8,45.8,18,70.4,18c20.5,0,40.1-3.8,56.6-11.1l0.3-0.1l0.2-0.2l37.4,37.4c1.1,1.1,3,1.3,3.8,1.3s2.7-0.1,3.8-1.3
		c1.1-1.1,1.3-3,1.3-3.8s-0.1-2.7-1.3-3.8L32.1,25.8z M141,152.7c-5.7,2.8-10.5,4.2-14.6,4.2c-15.4,0-27.1-12.1-27.1-28.2
		c0-5.6,1.2-9.6,4.1-13.5l1.2-1.8l38.1,38.1L141,152.7z M96.8,105.5l-0.2,0.3c-4.5,6.7-6.9,14.6-6.9,22.8c0,21.4,17,38.9,37.8,38.9
		h1.1c8.3,0,16.2-2.5,21.7-6.8l1.1-0.6l25.9,24.9l-1.8,0.4l-0.1,0c-16,5.7-32.1,8.7-46.8,8.7c-46.6,0-89.3-23.1-114.1-61.9l-0.2-0.2
		c-2.5-2.6-2.9-5-1.1-6.8l0.2-0.3c12.9-20.5,32.1-37.8,54-48.8h1.2l28.9,28.9L96.8,105.5z"/>
	<path class="st0" d="M251.8,119.1L251.8,119.1c-27.9-42.4-74-67.7-123.3-67.7c-8,0-15.2,0.9-22.9,1.9l-2.9,0.4l-0.2,0.1
		c-0.8,0.4-2.4,1.3-3.4,2.8c-1,1.4-1.3,3-0.7,4.4c0.2,2.6,2.6,4.4,5.9,4.4l0.2,0c7.6-1.1,16.3-2.2,24-2.2
		c46.2,0,88.8,23.5,114.1,62.9c0.8,1.8,0.8,4.5,0,6.2c-9.1,13.7-20.1,25.4-32.6,34.7l-0.2,0.1c-1.3,1.3-1.5,1.7-1.5,3.3
		c0,1.2,0,2.8,1.5,4.4c1.1,1.1,2.8,2,4.7,2c0.8,0,1.7-0.2,2.6-0.6l0.2-0.1c13.4-10.1,25.7-23.5,34.5-37.8l0.1-0.1
		C255.4,131.1,255.3,125.1,251.8,119.1z"/>
</g>
</svg>
