<?xml version="1.0" encoding="utf-8"?>
<!-- Generator: Adobe Illustrator 22.1.0, SVG Export Plug-In . SVG Version: 6.00 Build 0)  -->
<svg version="1.1" id="f4cb3e3c-0c57-4a03-b858-6811b3857f6f"
	 xmlns="http://www.w3.org/2000/svg" xmlns:xlink="http://www.w3.org/1999/xlink" x="0px" y="0px" viewBox="0 0 22.7 18.7"
	 style="enable-background:new 0 0 22.7 18.7;" xml:space="preserve">
<style type="text/css">
	.st0{fill:#FFFFFF;}
</style>
<path class="st0" d="M0.2,10.1c2.4,3.8,6.6,6.1,11.1,6.1c1.7,0,3.5-0.3,5.1-1l0.1-0.1l3.5,3.5c0.1,0.1,0.4,0.1,0.5,0
	c0.1-0.1,0.1-0.4,0-0.5l-18-18C2.5,0,2.4,0,2.3,0C2.3,0,2.2,0,2.1,0.1C2,0.2,2,0.3,2,0.4c0,0.1,0,0.2,0.1,0.2l3.3,3.3L5.1,4.1
	c-2,1.1-3.7,2.6-4.9,4.5C-0.1,9.1-0.1,9.6,0.2,10.1z M9.2,7.8l3.7,3.7l-0.3,0.2c-0.4,0.2-0.9,0.4-1.4,0.4c-1.5,0-2.6-1.2-2.6-2.7
	c0-0.5,0.1-0.9,0.4-1.3L9.2,7.8z M0.8,9c1.2-1.9,3-3.5,5-4.5L6,4.5l2.8,2.8L8.6,7.4C8.2,8,8,8.7,8,9.4c0,1.8,1.4,3.4,3.3,3.4
	c0,0,0,0,0.1,0c0.7,0,1.4-0.2,1.9-0.6l0.2-0.1l2.6,2.5l-0.4,0.1c-1.4,0.5-2.9,0.8-4.3,0.8c-4.3,0-8.2-2.1-10.5-5.7
	C0.6,9.5,0.6,9.2,0.8,9z"/>
<path class="st0" d="M22.5,8.6C20,4.8,15.9,2.5,11.4,2.5c-0.8,0-1.5,0.1-2.3,0.2C8.9,2.8,8.7,3,8.8,3.2c0,0.2,0.2,0.3,0.4,0.3
	c0,0,0,0,0,0c0.7-0.1,1.5-0.2,2.2-0.2c4.3,0,8.2,2.2,10.5,5.8c0.1,0.2,0.1,0.5,0,0.7c-0.8,1.2-1.8,2.3-3,3.2
	c-0.1,0.1-0.1,0.1-0.1,0.2c0,0.1,0,0.2,0.1,0.3c0.1,0.1,0.3,0.2,0.5,0.1c1.2-0.9,2.3-2.1,3.1-3.4C22.8,9.6,22.8,9.1,22.5,8.6z"/>
</svg>
