<?xml version="1.0" encoding="utf-8"?>
<!-- Generator: Adobe Illustrator 22.1.0, SVG Export Plug-In . SVG Version: 6.00 Build 0)  -->
<svg version="1.1" id="f4cb3e3c-0c57-4a03-b858-6811b3857f6f"
	 xmlns="http://www.w3.org/2000/svg" xmlns:xlink="http://www.w3.org/1999/xlink" x="0px" y="0px" viewBox="0 0 256 256"
	 style="enable-background:new 0 0 256 256;" xml:space="preserve">
<style type="text/css">
	.st0{fill:#747C83;}
</style>
<g>
	<path class="st0" d="M148.4,37.9h-40.8c-1.2,0-1.9,0.8-1.9,1.9s0.8,1.9,1.9,1.9h40.5c1.2,0,1.9-0.8,1.9-1.9
		C150,38.7,149.3,37.9,148.4,37.9z"/>
	<path class="st0" d="M167.5,13.1H88.2c-2.9,0-5.3,2.4-5.3,5.3V43H37.8c-2.2,0-3.9,1.2-4.9,3.4l-22.8,54.7
		c-3.7,9.1-5.6,18.6-5.6,28.2v108.3c0,2.9,2.4,5.3,5.3,5.3h236.3c2.9,0,5.3-2.4,5.3-5.3V129.3c-0.3-10.4-2.2-19.8-5.6-27.9l0,0
		l-22.8-55c-0.9-2.1-2.7-3.4-4.9-3.4h-45.4V18.4C172.8,15.5,170.4,13.1,167.5,13.1z M93.3,23.7h68.8v50.6H93.3V23.7z M240.5,122.3
		c0.3,2.4,0.3,4.4,0.3,6.7v103.3H14.9v-103c0-1.2,0.1-2.4,0.1-3.5c0.1-1.1,0.1-2.2,0.1-3.3v-1.5h225.2L240.5,122.3z M175.7,74.3
		h-2.6V53.7H215l21.3,51.9c0.1,0.5,0.3,0.9,0.5,1.3c0.2,0.5,0.5,1.1,0.6,1.8l0.5,1.9H18.2l0.5-1.9c0.3-1.1,0.6-2.1,1.2-3.4
		l21.5-51.9h41.6v21h-2.6c-2.9,0-5.3,2.4-5.3,5.3s2.4,5.3,5.3,5.3h95.5c2.9,0,5.3-2.4,5.3-5.3S178.6,74.3,175.7,74.3z"/>
	<path class="st0" d="M107.6,55c-1.2,0-1.9,0.8-1.9,1.9c0,1.2,0.8,1.9,1.9,1.9h40.5c1.2,0,1.9-0.8,1.9-1.9c0-1.1-0.7-1.9-1.6-1.9
		H107.6z"/>
</g>
</svg>
