<?xml version="1.0" encoding="utf-8"?>
<!-- Generator: Adobe Illustrator 22.1.0, SVG Export Plug-In . SVG Version: 6.00 Build 0)  -->
<svg version="1.1" id="Layer_1" xmlns="http://www.w3.org/2000/svg" xmlns:xlink="http://www.w3.org/1999/xlink" x="0px" y="0px"
	 viewBox="0 0 256 256" style="enable-background:new 0 0 256 256;" xml:space="preserve">
<style type="text/css">
	.st0{fill:#747C83;}
</style>
<path class="st0" d="M55.4,218.7H26.3v-29.1c0.3-4-2.7-7.5-6.7-7.8c-4-0.3-7.5,2.7-7.8,6.7c0,0.4,0,0.8,0,1.2v36.5
	c0.1,3.9,3.3,7.1,7.3,7h36.3c4,0.3,7.5-2.7,7.8-6.7c0.3-4-2.7-7.5-6.7-7.8C56.1,218.7,55.7,218.7,55.4,218.7z M19.1,51.6
	c4,0,7.2-3.2,7.2-7.2c0,0,0,0,0,0V15.3h29.1c4,0.3,7.5-2.7,7.8-6.7c0.3-4-2.7-7.5-6.7-7.8c-0.4,0-0.8,0-1.2,0H19.1
	c-4,0-7.3,3.2-7.3,7.2c0,0,0,0.1,0,0.1v36.3C11.7,48.3,15,51.6,19.1,51.6C19,51.6,19,51.6,19.1,51.6z M200.6,182.4V51.6
	c0-4-3.2-7.3-7.2-7.3c0,0-0.1,0-0.1,0H62.6c-4,0-7.3,3.2-7.3,7.2c0,0,0,0.1,0,0.1v130.7c0,4,3.2,7.3,7.2,7.3c0,0,0.1,0,0.1,0h130.7
	C197.4,189.7,200.6,186.5,200.6,182.4C200.6,182.4,200.6,182.4,200.6,182.4z M186.1,175.1H69.9V58.9h116.2V175.1z M237.2,182.4
	c-4,0-7.2,3.2-7.2,7.2c0,0,0,0,0,0v29.1h-29.3c-4-0.3-7.5,2.7-7.8,6.7c-0.3,4,2.7,7.5,6.7,7.8c0.4,0,0.8,0,1.2,0h36.5
	c3.8-0.1,6.9-3.2,7-7v-36.5C244.3,185.7,241.1,182.5,237.2,182.4z M237.2,0.8h-36.5c-4-0.3-7.5,2.7-7.8,6.7s2.7,7.5,6.7,7.8
	c0.4,0,0.8,0,1.2,0h29.1v29.1c-0.3,4,2.7,7.5,6.7,7.8c4,0.3,7.5-2.7,7.8-6.7c0-0.4,0-0.8,0-1.2V8.1C244.3,4.1,241.1,0.9,237.2,0.8z"
	/>
</svg>
