<?xml version="1.0" encoding="utf-8"?>
<!-- Generator: Adobe Illustrator 22.1.0, SVG Export Plug-In . SVG Version: 6.00 Build 0)  -->
<svg version="1.1" id="f4cb3e3c-0c57-4a03-b858-6811b3857f6f"
	 xmlns="http://www.w3.org/2000/svg" xmlns:xlink="http://www.w3.org/1999/xlink" x="0px" y="0px" viewBox="0 0 256 256"
	 style="enable-background:new 0 0 256 256;" xml:space="preserve">
<style type="text/css">
	.st0{fill:#92979D;}
</style>
<g>
	<polygon class="st0" points="127.6,221.6 133.7,221.6 133.7,64.8 122,64.8 122,221.6 	"/>
	<polygon class="st0" points="97.9,221.6 86.1,64.8 74.1,64.8 85.8,221.6 	"/>
	<polygon class="st0" points="170.2,64.8 158.1,221.6 170.2,221.6 181.9,64.8 	"/>
	<path class="st0" d="M241.5,40.3v-4.9h-59.6V18.5c0-3.5-1.8-7-5.3-9.3c-2.8-2-6.4-3.2-10.3-3.2H90c-3.9,0-7.4,1.2-10.3,3.2
		c-3.2,2.3-5,5.8-5,9.3v16.9H14.5v9.9h11.7l12.1,181.6C39.3,242,48.5,251,62,251h65.6h66.7c13.5,0,22-9,23.4-24.2l12.1-181.6h11.7
		L241.5,40.3L241.5,40.3z M86.5,18.5c0-1.2,0.7-1.7,1.1-2s1.1-0.6,2.5-0.6h76.3c1.1,0,1.8,0.3,2.1,0.6c0.4,0.3,1.1,0.9,1.1,2v16.9
		h-83V18.5H86.5z M194.3,241.1h-66.7H62.4c-8.9,0-11.4-8.1-12.1-14.8l-12.1-181h29.4h123.1h27l-12.1,181l0,0
		C205.3,231.8,203.2,241.1,194.3,241.1z"/>
</g>
</svg>
