<?xml version="1.0" encoding="utf-8"?>
<!-- Generator: Adobe Illustrator 22.1.0, SVG Export Plug-In . SVG Version: 6.00 Build 0)  -->
<svg version="1.1" id="Layer_1" xmlns="http://www.w3.org/2000/svg" xmlns:xlink="http://www.w3.org/1999/xlink" x="0px" y="0px"
	 viewBox="0 0 256 256" style="enable-background:new 0 0 256 256;" xml:space="preserve">
<style type="text/css">
	.st0{fill:#FFFFFF;}
</style>
<path class="st0" d="M244.8,37.3l-80.7,196.5c-3,7.6-10.4,12.5-18.5,12.6h-0.7c-8.4-0.2-15.8-5.6-18.5-13.6l-23-67.4
	c-0.7-2.1-0.3-4.4,1.2-5.9l72.1-84.9c2.2-2.6,6.1-3,8.7-0.8s3,6.1,0.8,8.7l0,0L116.2,165l21.5,64c1,3.1,3.9,5.2,7.1,5.2
	c3.3,0.2,6.4-1.8,7.6-4.9l81-196.6c1.4-2.9,0.7-6.3-1.8-8.4c-2.2-2.2-5.5-2.9-8.4-1.8L26.8,103.2c-3,1.2-5,4.2-4.9,7.4
	c0,3.2,2.1,6.1,5.2,7.1l67.1,23c3.3,1.1,5.1,4.6,4,7.9c-1.1,3.3-4.6,5.1-7.9,4c0,0-0.1,0-0.1,0l-67.1-23c-8-2.7-13.4-10.1-13.6-18.5
	c-0.3-8.5,4.7-16.2,12.6-19.3l196.5-80.8c7.5-3.2,16.2-1.5,22,4.3C246.5,21.1,248.1,29.9,244.8,37.3z"/>
</svg>
