<?xml version="1.0" encoding="utf-8"?>
<!-- Generator: Adobe Illustrator 22.1.0, SVG Export Plug-In . SVG Version: 6.00 Build 0)  -->
<svg version="1.1" id="Layer_2" xmlns="http://www.w3.org/2000/svg" xmlns:xlink="http://www.w3.org/1999/xlink" x="0px" y="0px"
	 viewBox="0 0 256 256" enable-background="new 0 0 256 256" xml:space="preserve">
<path fill="#00D188" d="M228.9,143.4c1-5,1-10.5,1-15.9c0-7-5.5-12.4-12.4-12.4s-12.4,6-12.4,12.9c0,4-0.5,8-1,12
	c-6,37.3-38.3,65.2-76.2,65.2c-42.8,0-77.2-34.9-77.2-77.2s34.9-77.2,77.2-77.2c22.9,0,44.3,10,58.8,27.4l-56.3,55.8L98.4,102
	c-5-5-12.9-5-17.4,0c-5,5-5,12.9,0,17.4l40.8,40.8c2.5,2.5,5.5,3.5,9,3.5l0,0c3.5,0,6.5-1.5,9-3.5L248.1,52.5c5-5,5-12.9,0-17.4
	c-5-5-12.9-5-17.4,0L205,60.2c-19.4-21.9-47.3-34.4-76.7-34.4C71.6,25.3,25.7,71.2,25.7,127.9c0,56.3,45.8,102.1,102.1,102.1
	C178.6,230,220.9,193.6,228.9,143.4z"/>
</svg>
