<?xml version="1.0" encoding="utf-8"?>
<!-- Generator: Adobe Illustrator 22.1.0, SVG Export Plug-In . SVG Version: 6.00 Build 0)  -->
<svg version="1.1" id="_x39_1694f44-1ed8-49bc-99fb-9d6337054a63"
	 xmlns="http://www.w3.org/2000/svg" xmlns:xlink="http://www.w3.org/1999/xlink" x="0px" y="0px" viewBox="0 0 247.1 244"
	 style="enable-background:new 0 0 247.1 244;" xml:space="preserve">
<style type="text/css">
	.st0{fill:#DD4A4A;}
</style>
<title>tx_output</title>
<g>
	<g>
		<path class="st0" d="M123.5,14c29,0,56.2,11.3,76.7,31.8c20.5,20.5,31.8,47.8,31.8,76.7s-11.3,56.2-31.8,76.7
			c-20.5,20.5-47.8,31.8-76.7,31.8s-56.2-11.3-76.7-31.8C26.3,178.8,15,151.5,15,122.5s11.3-56.2,31.8-76.7
			C67.3,25.3,94.6,14,123.5,14 M123.5,0C55.9,0,1,54.9,1,122.5s54.9,122.5,122.5,122.5s122.5-54.9,122.5-122.5S191.2,0,123.5,0
			L123.5,0z"/>
	</g>
</g>
<g>
	<g>
		<path class="st0" d="M123.4,47.4c-6.2,0-11.2,4.9-11.2,11.2v21.2l3.9,70.8c0.2,3.6,2.8,6.2,7.3,6.2c4.5,0,6.9-2.6,7.1-6.2
			l3.9-70.8V58.6C134.4,52.4,129.7,47.4,123.4,47.4L123.4,47.4z M123.4,173.6c-6.9,0-12.7,5.8-12.7,12.7c0,7.1,5.8,12.9,12.7,12.9
			c7.1,0,12.9-5.8,12.9-12.9C136.3,179.4,130.5,173.6,123.4,173.6L123.4,173.6z"/>
	</g>
</g>
</svg>
