<?xml version="1.0" encoding="utf-8"?>
<!-- Generator: Adobe Illustrator 22.1.0, SVG Export Plug-In . SVG Version: 6.00 Build 0)  -->
<svg version="1.1" id="_x33_cd1c3ea-55f9-470b-9414-ad279df49bae"
	 xmlns="http://www.w3.org/2000/svg" xmlns:xlink="http://www.w3.org/1999/xlink" x="0px" y="0px" viewBox="0 0 213.1 213.1"
	 style="enable-background:new 0 0 213.1 213.1;" xml:space="preserve">
<style type="text/css">
	.st0{fill:#747C83;}
</style>
<title>transaction0</title>
<path class="st0" d="M106.5,213.1C47.8,213.1,0,165.3,0,106.5C0,47.8,47.8,0,106.5,0c58.7,0,106.5,47.8,106.5,106.5
	C213.1,165.3,165.3,213.1,106.5,213.1z M106.5,16C56.6,16,16,56.6,16,106.5s40.6,90.5,90.5,90.5s90.5-40.6,90.5-90.5
	S156.5,16,106.5,16z"/>
<path class="st0" d="M143.2,81.3c0,27.3-32,28.4-32,50.2c0,3.8-3.6,6.7-7.5,6.7c-4.3,0-7.5-3.1-7.5-6.7c0-29,31.6-32.6,31.6-49.4
	c0-11.6-7.2-18.6-24.4-18.6c-7.7,0-15.9,1.9-21.9,5.6c-1.3,0.8-2.8,1.3-4.3,1.4c-3.8,0-6.8-3.1-6.8-6.8c0-3.2,2.1-5.1,4.3-6.5
	c9.6-6,18.8-8.2,30.1-8.2C128,48.9,143.2,61.4,143.2,81.3z M113.6,160.4c0,5.6-4.5,10.2-10.1,10.2c-5.6,0-10.2-4.5-10.2-10.1
	c0-5.6,4.5-10.2,10.1-10.2C109,150.3,113.5,154.8,113.6,160.4L113.6,160.4z"/>
</svg>
