<svg id="3cd1c3ea-55f9-470b-9414-ad279df49bae" data-name="Layer 8" xmlns="http://www.w3.org/2000/svg" viewBox="0 0 213.07 213.07"><title>transaction0</title><circle cx="106.54" cy="106.54" r="98.54" style="fill:none;stroke:#49545e;stroke-miterlimit:10;stroke-width:16px"/><path d="M164.4,103c0,27.34-32,28.36-32,50.24,0,3.76-3.59,6.66-7.52,6.66-4.27,0-7.51-3.07-7.51-6.66,0-29,31.61-32.64,31.61-49.39,0-11.61-7.18-18.62-24.44-18.62-7.69,0-15.89,1.88-21.87,5.63a9,9,0,0,1-4.28,1.38,6.87,6.87,0,0,1-6.83-6.84c0-3.25,2.05-5.13,4.27-6.5,9.57-6,18.8-8.2,30.08-8.2C149.19,70.66,164.4,83.14,164.4,103Zm-29.56,79.12A10.17,10.17,0,1,1,124.58,172,10.29,10.29,0,0,1,134.84,182.08Z" transform="translate(-21.19 -21.74)" style="fill:#49545e"/></svg>