<svg id="50c55370-90e2-4cba-8b93-977bbc787ce9" data-name="Layer 3" xmlns="http://www.w3.org/2000/svg" viewBox="0 0 247.12 244"><title>tx_input</title><path d="M237.75,159.45a8,8,0,0,0-10.26,4.79,106,106,0,1,1,0-72.47,8,8,0,0,0,15-5.47,122,122,0,1,0,0,83.4A8,8,0,0,0,237.75,159.45Z" transform="translate(-5.85 -6)" style="fill:#00d188"/><path d="M245,120H110.42l18.27-18.27a8,8,0,0,0-11.31-11.31L85.45,122.34c-.18.19-.36.38-.53.58l-.1.14c-.13.16-.25.32-.37.49s0,.09-.07.13a6.16,6.16,0,0,0-.33.55l0,.09c-.1.2-.2.41-.28.61l0,.07c-.09.22-.17.44-.24.67,0,0,0,0,0,.07-.06.23-.12.45-.17.69l0,.19c0,.19-.07.38-.09.58s0,.53,0,.8,0,.53,0,.8.06.38.09.57l0,.2c0,.23.11.46.17.68,0,0,0,.05,0,.08.07.23.15.44.24.66l0,.08a6.36,6.36,0,0,0,.28.59l0,.12c.1.17.2.35.31.52s.06.1.1.15.22.3.33.45l.13.18c.15.17.3.34.46.5l.07.08,31.93,31.92a8,8,0,0,0,11.31-11.31L110.42,136H245a8,8,0,1,0,0-16Z" transform="translate(-5.85 -6)" style="fill:#00d188"/></svg>