<?xml version="1.0" encoding="utf-8"?>
<!-- Generator: Adobe Illustrator 22.1.0, SVG Export Plug-In . SVG Version: 6.00 Build 0)  -->
<svg version="1.1" id="_x39_1694f44-1ed8-49bc-99fb-9d6337054a63"
	 xmlns="http://www.w3.org/2000/svg" xmlns:xlink="http://www.w3.org/1999/xlink" x="0px" y="0px" viewBox="0 0 247.1 244"
	 style="enable-background:new 0 0 247.1 244;" xml:space="preserve">
<style type="text/css">
	.st0{fill:#747C83;}
</style>
<title>tx_output</title>
<path class="st0" d="M8,130h74.5l-18.3,18.3c-3.1,3.1-3.1,8.2,0,11.3s8.2,3.1,11.3,0l0,0l31.9-31.9c0.2-0.2,0.4-0.4,0.5-0.6l0.1-0.1
	c0.1-0.2,0.2-0.3,0.4-0.5s0-0.1,0.1-0.1c0.1-0.2,0.2-0.4,0.3-0.6l0.1-0.1c0.1-0.2,0.2-0.4,0.3-0.6V125c0.1-0.2,0.2-0.4,0.2-0.7v-0.1
	c0.1-0.2,0.1-0.4,0.2-0.7v-0.2c0-0.2,0.1-0.4,0.1-0.6s0-0.5,0-0.8s0-0.5,0-0.8s-0.1-0.4-0.1-0.6v-0.2c-0.1-0.2-0.1-0.5-0.2-0.7
	c0,0,0,0,0-0.1c-0.1-0.2-0.1-0.4-0.2-0.7v-0.1c-0.1-0.2-0.2-0.4-0.3-0.6l-0.1-0.1c-0.1-0.2-0.2-0.3-0.3-0.5l-0.1-0.2
	c-0.1-0.2-0.2-0.3-0.3-0.4l-0.1-0.2c-0.1-0.2-0.3-0.3-0.5-0.5l-0.1-0.1L75.6,84.4c-3.1-3.1-8.2-3.1-11.3,0s-3.1,8.2,0,11.3L82.5,114
	H8c-4.4,0-8,3.6-8,8S3.6,130,8,130z"/>
<path class="st0" d="M238,114h-74.5l18.3-18.3c3.1-3.1,3.1-8.2,0-11.3s-8.2-3.1-11.3,0l0,0l-31.9,31.9c-0.2,0.2-0.4,0.4-0.5,0.6
	L138,117c-0.1,0.2-0.2,0.3-0.4,0.5s0,0.1-0.1,0.1c-0.1,0.2-0.2,0.4-0.3,0.6l-0.1,0.1c-0.1,0.2-0.2,0.4-0.3,0.6v0.1
	c-0.1,0.2-0.2,0.4-0.2,0.7v0.1c-0.1,0.2-0.1,0.4-0.2,0.7v0.2c0,0.2-0.1,0.4-0.1,0.6s0,0.5,0,0.8s0,0.5,0,0.8s0.1,0.4,0.1,0.6v0.2
	c0.1,0.2,0.1,0.5,0.2,0.7c0,0,0,0,0,0.1c0.1,0.2,0.1,0.4,0.2,0.7v0.1c0.1,0.2,0.2,0.4,0.3,0.6l0.1,0.1c0.1,0.2,0.2,0.3,0.3,0.5
	l0.1,0.2c0.1,0.2,0.2,0.3,0.3,0.4l0.1,0.2c0.1,0.2,0.3,0.3,0.5,0.5l0.1,0.1l31.9,31.9c3.1,3.1,8.2,3.1,11.3,0s3.1-8.2,0-11.3
	L163.4,130H238c4.4,0,8-3.6,8-8S242.4,114,238,114z"/>
<g>
	<path class="st0" d="M10.2,90.6c4.2,1.5,8.7-0.6,10.3-4.8l0,0C36.5,41.6,79,14.6,123.6,16c44.6-1.5,87,25.5,103.1,69.7l0,0
		c1.5,4.2,6.1,6.3,10.3,4.8c4.1-1.5,6.3-6.1,4.7-10.2c-12.3-33.9-39-60.6-73-73c-14.9-5.4-30.2-7.8-45.1-7.3
		c-15-0.4-30.2,1.9-45.1,7.3c-33.9,12.3-60.6,39-73,73C3.9,84.4,6.1,89,10.2,90.6z"/>
	<path class="st0" d="M237.2,154.1c-4-1.8-8.8,0.1-10.5,4.1c-10.7,29.5-33.9,52.7-63.4,63.4c-13.1,4.8-26.6,6.8-39.7,6.4
		c-13.1,0.4-26.6-1.6-39.7-6.4c-29.5-10.7-52.7-33.9-63.4-63.4c-1.8-4-6.5-5.9-10.5-4.1c-3.7,1.6-5.6,5.7-4.5,9.6
		c18.4,50.7,67,81.7,118.1,80.3c51.1,1.5,99.7-29.6,118.1-80.3C242.8,159.8,240.9,155.8,237.2,154.1z"/>
</g>
</svg>
