<?xml version="1.0" encoding="utf-8"?>
<!-- Generator: Adobe Illustrator 22.1.0, SVG Export Plug-In . SVG Version: 6.00 Build 0)  -->
<svg version="1.1" id="_x32_338fba0-a4e5-4ce3-9728-722fabb38851"
	 xmlns="http://www.w3.org/2000/svg" xmlns:xlink="http://www.w3.org/1999/xlink" x="0px" y="0px" viewBox="0 0 256 256"
	 style="enable-background:new 0 0 256 256;" xml:space="preserve">
<style type="text/css">
	.st0{fill:#00D188;}
	.st1{fill:none;}
</style>
<g transform="translate(0,-952.36218)">
	<path class="st0" d="M87.9,974.4c-21.4,0-40.7,4.2-55.2,11.4s-25,18.1-25,31.4v128.3c0,13.2,10.4,24,24.9,31.3s33.9,11.5,55.3,11.5
		c18,0,34.5-3.1,48-8.4c10.5,5.3,22.4,8.4,34.9,8.4c42.8,0,77.5-34.8,77.5-77.5c0-42.8-34.8-77.5-77.5-77.5c-0.9,0-1.8,0.1-2.8,0.1
		v-16.1c0-13.4-10.4-24.2-24.9-31.4C128.6,978.6,109.3,974.4,87.9,974.4z M87.9,985.1c20,0,38,4.1,50.6,10.4
		c12.6,6.3,19,14.3,19,21.6c-2.5,11.4-10.8,17.6-19,21.6c-12.6,6.3-30.7,10.4-50.6,10.4s-38-4.1-50.6-10.4
		c-9.3-4.8-17.8-12.2-19-21.6c0-7.3,6.4-15.3,19-21.6C49.9,989.3,67.9,985.1,87.9,985.1z M18.4,1039c4,3.6,8.9,6.9,14.3,9.6
		c14.5,7.2,33.9,11.4,55.2,11.4c9.3,0,18.1-0.9,26.4-2.3c-6.3,6.7-11.4,14.5-15,23.1c-3.7,0.3-7.5,0.6-11.4,0.6
		c-20,0-38-4.2-50.6-10.4c-12.6-6.3-19-14.2-19-21.6L18.4,1039L18.4,1039z M170.8,1044c37,0,66.8,29.9,66.8,66.8
		c0,37-29.9,66.8-66.8,66.8s-66.8-29.9-66.8-66.8C103.9,1073.8,133.8,1044,170.8,1044z M197.6,1087.8c-0.1-0.3-0.2-0.6-0.3-0.9
		 M18.4,1071c3.9,3.6,8.8,6.8,14.2,9.5c14.5,7.3,33.9,11.5,55.3,11.5c2.6,0,5.1-0.1,7.7-0.3c-1.5,6.1-2.3,12.4-2.3,19
		c0,0.9,0.1,1.7,0.1,2.6c-1.8,0.1-3.6,0.1-5.4,0.1c-20,0-38-4.2-50.6-10.4c-12.6-6.3-19-14.2-19-21.6L18.4,1071L18.4,1071z
		 M18.4,1103.1c3.9,3.6,8.8,6.8,14.2,9.5c14.5,7.3,33.9,11.5,55.3,11.5c2.2,0,4.4-0.1,6.5-0.2c1.3,7.4,3.6,14.4,6.8,20.9
		c-4.3,0.4-8.7,0.7-13.3,0.7c-20,0-38-4.2-50.6-10.4c-12.6-6.3-19-14.2-19-21.6v-10.4H18.4z M18.4,1135.2c3.9,3.6,8.8,6.8,14.2,9.5
		c14.5,7.3,33.9,11.5,55.3,11.5c6.7,0,13.1-0.4,19.3-1.2c4.7,6.7,10.4,12.6,17,17.5c-10.5,3.1-23,5-36.3,5c-19.9,0-38-4.2-50.6-10.4
		c-12.6-6.3-19-14.2-19-21.6v-10.3H18.4z"/>
</g>
<rect x="75.8" y="132.2" class="st1" width="190" height="79.5"/>
<g>
	<path class="st0" d="M166,136.2h-2c-2.8,0-5.3,1.8-6.4,4.4l-10.8,27l-10.8-27.1c-1.1-2.6-3.7-4.4-6.4-4.4h-2c-3.8,0-6.9,3.1-6.9,7
		v35.8c0,3.1,2.6,5.7,5.7,5.7c3.2,0,5.8-2.6,5.8-5.7v-18.7l8.1,20.1c1.2,2.7,3.7,4.3,6.6,4.3c2.9,0,5.4-1.7,6.6-4.4l8.1-20v18.7
		c0,3.1,2.6,5.7,5.8,5.7c3.1,0,5.7-2.6,5.7-5.7v-35.8C172.9,139.3,169.8,136.2,166,136.2z"/>
	<path class="st0" d="M215.3,136.2c-3.1,0-5.7,2.6-5.7,5.8v22.8l-17.6-25.5c0,0-0.1-0.1-0.1-0.1c-1.5-1.9-3.5-3-5.7-3h-0.8
		c-3.8,0-6.9,3.1-6.9,7v35.8c0,3.1,2.6,5.7,5.7,5.7c3.2,0,5.8-2.6,5.8-5.7v-22.9l17.8,25.6c0,0,0,0.1,0.1,0.1
		c1.3,1.8,3.4,2.8,5.6,2.8h0.7c3.8,0,7-3.1,7-6.9v-35.8C221,138.7,218.4,136.2,215.3,136.2z"/>
</g>
</svg>
