<svg id="8a609de9-0399-4e71-8bbf-80363de3f7f5" data-name="91694f44-1ed8-49bc-99fb-9d6337054a63" xmlns="http://www.w3.org/2000/svg" viewBox="0 0 247.27 244.13"><title>tx_output</title><path d="M15.2,90.6a8,8,0,0,0,10.3-4.8h0a106,106,0,1,1,0,72.4,8,8,0,0,0-15,5.5,122,122,0,1,0,0-83.4A8.12,8.12,0,0,0,15.2,90.6Z" transform="translate(0 0.07)" style="fill:#4e69e0"/><path d="M8,130H142.5l-18.3,18.3a8,8,0,0,0,11.3,11.3h0l31.9-31.9a2.65,2.65,0,0,0,.5-.6l.1-.1a1.76,1.76,0,0,1,.4-.5c.2-.2,0-.1.1-.1l.3-.6.1-.1.3-.6V125a1.45,1.45,0,0,0,.2-.7v-.1a6.37,6.37,0,0,0,.2-.7v-.2c0-.2.1-.4.1-.6v-1.6c0-.3-.1-.4-.1-.6v-.2c-.1-.2-.1-.5-.2-.7v-.1a6.37,6.37,0,0,1-.2-.7v-.1l-.3-.6-.1-.1c-.1-.2-.2-.3-.3-.5l-.1-.2a1.38,1.38,0,0,0-.3-.4l-.1-.2c-.1-.2-.3-.3-.5-.5l-.1-.1L135.5,84.2a8,8,0,1,0-11.3,11.3l18.3,18.3H8A8.1,8.1,0,0,0,8,130Z" transform="translate(0 0.07)" style="fill:#4e69e0"/></svg>