<svg id="91694f44-1ed8-49bc-99fb-9d6337054a63" data-name="Layer 4" xmlns="http://www.w3.org/2000/svg" viewBox="0 0 247.12 244"><title>tx_output</title><path d="M21.06,96.55a8,8,0,0,0,10.26-4.79,106,106,0,1,1,0,72.47,8,8,0,0,0-15,5.47,122,122,0,1,0,0-83.4A8,8,0,0,0,21.06,96.55Z" transform="translate(-5.85 -6)" style="fill:#ff0103"/><path d="M13.85,136H148.39l-18.27,18.27a8,8,0,0,0,11.32,11.31l31.92-31.92c.19-.19.36-.38.53-.58l.1-.14c.13-.16.25-.32.37-.49s0-.09.07-.13a6.16,6.16,0,0,0,.33-.55l.05-.09c.1-.2.2-.41.28-.61l0-.07c.09-.22.17-.44.24-.67,0,0,0-.05,0-.07.06-.23.12-.45.17-.69l0-.19c0-.19.07-.38.09-.58s0-.53,0-.8,0-.53,0-.8-.06-.38-.09-.57l0-.2c-.05-.23-.1-.46-.17-.68,0,0,0,0,0-.08-.07-.23-.15-.44-.24-.66a.41.41,0,0,0,0-.08,6.36,6.36,0,0,0-.28-.59l-.05-.12c-.1-.17-.2-.35-.31-.52l-.1-.15c-.1-.15-.22-.3-.33-.45l-.13-.18c-.15-.17-.3-.34-.46-.5l-.07-.08L141.44,90.42a8,8,0,0,0-11.32,11.31L148.39,120H13.85a8,8,0,1,0,0,16Z" transform="translate(-5.85 -6)" style="fill:#ff0103"/></svg>