<svg id="36e4845b-ea53-4df1-ad6a-0d7d71209e62" data-name="Layer 5" xmlns="http://www.w3.org/2000/svg" viewBox="0 0 672.48 162.96"><title>unit_tmphore</title><path d="M99.77,131.6v61.92c0,5.12,1.35,9,4.08,11.64s6.48,4,11.28,4a30,30,0,0,0,16.8-5V228.8q-8.42,4.08-21.6,4.08Q71,232.88,71,193V131.6H52.73V110H71V80.72h28.8V110H130v21.6Z" transform="translate(-52.73 -69.92)" style="fill:#49545e"/><path d="M172.49,110v19.2q10.31-20.64,34.32-20.64,26.64,0,34.56,23a36.76,36.76,0,0,1,14.4-17,40.32,40.32,0,0,1,21.84-6q18.48,0,28.56,11.16t10.08,31.8v80.16h-29V157q0-24.48-18.72-24.48-9.36,0-16.68,8.16t-7.32,25.68v65.28h-29V157q0-24.48-18.72-24.48-9.36,0-16.8,8.16t-7.44,25.68v65.28h-28.8V110Z" transform="translate(-52.73 -69.92)" style="fill:#49545e"/><path d="M335.2,69.92h50.64q27.36,0,43.8,14.88T446.08,123q0,24.72-16.92,39.24t-42.6,14.52H365.44v55H335.2Zm30.24,82.32h17q16.56,0,24.72-7.92T415.36,123q0-13.2-8.16-20.76t-24-7.56H365.44Z" transform="translate(-52.73 -69.92)" style="fill:#49545e"/><path d="M553.36,69.92h30.48V231.68H553.36V163.76H486.88v67.92H456.64V69.92h30.24V137.6h66.48Z" transform="translate(-52.73 -69.92)" style="fill:#49545e"/><path d="M689,231.68l-36.72-59H635.68v59H605.44V69.92h49.92q27.6,0,43.32,13.92T714.4,121q-.24,17.28-8.4,29.16a48.54,48.54,0,0,1-22.32,17.64l41.52,63.84ZM635.68,94.88v52.8h20.16q13.92,0,20.88-7.08t7-19.8q0-12.48-7.32-19.2t-21-6.72Z" transform="translate(-52.73 -69.92)" style="fill:#49545e"/></svg>