<svg id="d77c966f-cca0-46ea-bbdf-4f710e9b2bfa" data-name="Layer 2" xmlns="http://www.w3.org/2000/svg" viewBox="0 0 390 161.76"><title>unit_phore</title><path d="M335.2,69.12h50.64q27.36,0,43.8,14.88t16.44,38.16q0,24.72-16.92,39.24t-42.6,14.52H365.44v55H335.2Zm30.24,82.32h17q16.56,0,24.72-7.92t8.16-21.36q0-13.2-8.16-20.76t-24-7.56H365.44Z" transform="translate(-335.2 -69.12)" style="fill:#49545e"/><path d="M553.36,69.12h30.48V230.88H553.36V163H486.88v67.92H456.64V69.12h30.24V136.8h66.48Z" transform="translate(-335.2 -69.12)" style="fill:#49545e"/><path d="M689,230.88l-36.72-59H635.68v59H605.44V69.12h49.92q27.6,0,43.32,13.92t15.72,37.2q-.24,17.28-8.4,29.16A48.54,48.54,0,0,1,683.68,167l41.52,63.84ZM635.68,94.08v52.8h20.16q13.92,0,20.88-7.08t7-19.8q0-12.48-7.32-19.2t-21-6.72Z" transform="translate(-335.2 -69.12)" style="fill:#49545e"/></svg>