<svg id="8add4737-63a8-4439-a561-a3f93a46e20e" data-name="Layer 6" xmlns="http://www.w3.org/2000/svg" viewBox="0 0 482.16 162.96"><title>unit_tphore</title><path d="M290.08,130.2v61.92q0,7.68,4.08,11.64t11.28,4a30,30,0,0,0,16.8-5V227.4q-8.4,4.08-21.6,4.08-39.36,0-39.36-39.84V130.2H243V108.6h18.24V79.32h28.8V108.6h30.24v21.6Z" transform="translate(-243.04 -68.52)" style="fill:#49545e"/><path d="M335.2,68.52h50.64q27.36,0,43.8,14.88t16.44,38.16q0,24.72-16.92,39.24t-42.6,14.52H365.44v55H335.2Zm30.24,82.32h17q16.56,0,24.72-7.92t8.16-21.36q0-13.2-8.16-20.76t-24-7.56H365.44Z" transform="translate(-243.04 -68.52)" style="fill:#49545e"/><path d="M553.36,68.52h30.48V230.28H553.36V162.36H486.88v67.92H456.64V68.52h30.24V136.2h66.48Z" transform="translate(-243.04 -68.52)" style="fill:#49545e"/><path d="M689,230.28l-36.72-59H635.68v59H605.44V68.52h49.92q27.6,0,43.32,13.92t15.72,37.2q-.24,17.28-8.4,29.16a48.54,48.54,0,0,1-22.32,17.64l41.52,63.84ZM635.68,93.48v52.8h20.16q13.92,0,20.88-7.08t7-19.8q0-12.48-7.32-19.2t-21-6.72Z" transform="translate(-243.04 -68.52)" style="fill:#49545e"/></svg>