<svg id="42d432d9-055a-4b2b-a837-22c3011dd76d" data-name="Layer 7" xmlns="http://www.w3.org/2000/svg" viewBox="0 0 605.76 162.96"><title>unit_tuphore</title><path d="M166.49,130.2v61.92c0,5.12,1.35,9,4.08,11.64s6.48,4,11.28,4a30,30,0,0,0,16.8-5V227.4q-8.42,4.08-21.6,4.08-39.37,0-39.36-39.84V130.2H119.45V108.6h18.24V79.32h28.8V108.6h30.24v21.6Z" transform="translate(-119.45 -68.52)" style="fill:#49545e"/><path d="M285.77,108.6h29V230.28h-29V210.36q-9.6,21.12-37.44,21.12-18.5,0-28.8-10.56t-10.32-30V108.6H238v75.6q0,11.52,5.64,17.52t15.48,6q12.47,0,19.56-8.4t7.08-25.44Z" transform="translate(-119.45 -68.52)" style="fill:#49545e"/><path d="M335.2,68.52h50.64q27.36,0,43.8,14.88t16.44,38.16q0,24.72-16.92,39.24t-42.6,14.52H365.44v55H335.2Zm30.24,82.32h17q16.56,0,24.72-7.92t8.16-21.36q0-13.2-8.16-20.76t-24-7.56H365.44Z" transform="translate(-119.45 -68.52)" style="fill:#49545e"/><path d="M553.36,68.52h30.48V230.28H553.36V162.36H486.88v67.92H456.64V68.52h30.24V136.2h66.48Z" transform="translate(-119.45 -68.52)" style="fill:#49545e"/><path d="M689,230.28l-36.72-59H635.68v59H605.44V68.52h49.92q27.6,0,43.32,13.92t15.72,37.2q-.24,17.28-8.4,29.16a48.54,48.54,0,0,1-22.32,17.64l41.52,63.84ZM635.68,93.48v52.8h20.16q13.92,0,20.88-7.08t7-19.8q0-12.48-7.32-19.2t-21-6.72Z" transform="translate(-119.45 -68.52)" style="fill:#49545e"/></svg>