<svg id="5b66d4d1-3a4b-4ca7-8530-09c1f04c19ae" data-name="f4cb3e3c-0c57-4a03-b858-6811b3857f6f" xmlns="http://www.w3.org/2000/svg" viewBox="0 0 190.06 236.5"><title>lock_closed</title><path d="M203.14,95.48h-9.28V75.05a73.55,73.55,0,0,0-147.1,0V95.48h-9.9A11.89,11.89,0,0,0,25,107.37V226.11A11.89,11.89,0,0,0,36.86,238H203.14A11.89,11.89,0,0,0,215,226.11V107.37A11.89,11.89,0,0,0,203.14,95.48ZM70.53,75.05a49.78,49.78,0,1,1,99.55,0V95.48H70.53ZM191.26,214.23H48.74v-95H191.26Z" transform="translate(-24.97 -1.5)" style="fill:#49545e"/></svg>