<?xml version="1.0" encoding="utf-8"?>
<!-- Generator: Adobe Illustrator 22.1.0, SVG Export Plug-In . SVG Version: 6.00 Build 0)  -->
<svg version="1.1" id="Layer_2" xmlns="http://www.w3.org/2000/svg" xmlns:xlink="http://www.w3.org/1999/xlink" x="0px" y="0px"
	 viewBox="0 0 256 256" enable-background="new 0 0 256 256" xml:space="preserve">
<g transform="translate(0,-952.36218)">
	<path fill="#49545E" d="M229.7,1079.2c0-55.7-45.9-100.9-102-100.9c-5.8-0.1-11.2,5.2-11.2,11s5.4,11.1,11.2,11
		c44.4,0,79.9,35.2,79.9,78.8c0,26.4-13,49.8-33.1,64.2V1130c0.1-6.1-4.8-11.1-10.9-11.2c-6.1-0.1-11.1,4.8-11.2,10.9
		c0,0.1,0,0.2,0,0.3v38.6c0,6.1,4.9,11,11,11h38.6c6.1,0.1,11.1-4.8,11.2-10.9c0-0.1,0-0.2,0-0.3c-0.1-6.1-5.1-10.9-11.2-10.9
		c0,0,0,0,0,0h-9.8C215.2,1139,229.7,1110.7,229.7,1079.2z M138.9,1171.2c-0.1-5.8-5.4-10.9-11.2-10.9c-44.4,0-79.9-35.2-79.9-78.8
		c0-26.4,13-49.8,33.1-64.2v13.4c-0.1,6.1,4.8,11.1,10.9,11.2c6.1,0.1,11.1-4.8,11.2-10.9c0-0.1,0-0.2,0-0.3v-38.6
		c0-6.1-4.9-11-11-11H53.3c-6.1-0.1-11.1,4.8-11.2,10.9c0,0,0,0,0,0c-0.1,6.1,4.8,11.1,10.9,11.2c0.1,0,0.2,0,0.3,0h9.8
		c-22.9,18.6-37.4,46.9-37.4,78.3c0,55.7,45.9,100.9,102,100.9C133.6,1182.5,139,1177.1,138.9,1171.2z"/>
</g>
</svg>
