<?xml version="1.0" encoding="utf-8"?>
<!-- Generator: Adobe Illustrator 22.1.0, SVG Export Plug-In . SVG Version: 6.00 Build 0)  -->
<svg version="1.1" id="Layer_2" xmlns="http://www.w3.org/2000/svg" xmlns:xlink="http://www.w3.org/1999/xlink" x="0px" y="0px"
	 viewBox="0 0 256 256" enable-background="new 0 0 256 256" xml:space="preserve">
<g transform="translate(0,-952.36218)">
	<path fill="#49545E" d="M200.7,1151.7c39.4-39.4,38.9-103.8-0.8-143.5c-4.1-4.2-11.6-4.2-15.7-0.1c-4.1,4.1-4.1,11.7,0.1,15.7
		c31.4,31.4,31.6,81.4,0.8,112.3c-18.7,18.7-44.4,26-68.8,22l9.5-9.5c4.4-4.2,4.5-11.2,0.2-15.6c-4.2-4.4-11.2-4.5-15.6-0.2
		c-0.1,0.1-0.1,0.1-0.2,0.2l-27.3,27.3c-4.3,4.3-4.3,11.3,0,15.6l27.3,27.3c4.2,4.4,11.2,4.5,15.6,0.2c0.1-0.1,0.2-0.2,0.2-0.2
		c4.2-4.4,4.1-11.4-0.2-15.6c0,0,0,0,0,0l-6.9-6.9C148.1,1183.6,178.4,1173.9,200.7,1151.7z M71.5,1152.5c4-4.1,3.9-11.6-0.2-15.6
		c-31.4-31.4-31.6-81.4-0.8-112.3c18.7-18.7,44.4-26,68.8-22l-9.5,9.5c-4.4,4.2-4.5,11.2-0.2,15.6c4.2,4.4,11.2,4.5,15.6,0.2
		c0.1-0.1,0.1-0.1,0.2-0.2l27.3-27.3c4.3-4.3,4.3-11.3,0-15.6l-27.3-27.3c-4.2-4.4-11.2-4.5-15.6-0.2c0,0,0,0,0,0
		c-4.4,4.2-4.5,11.2-0.2,15.6c0.1,0.1,0.2,0.2,0.2,0.2l6.9,6.9c-29.3-3-59.6,6.7-81.8,28.9c-39.4,39.4-38.9,103.8,0.8,143.5
		C59.7,1156.7,67.4,1156.7,71.5,1152.5z"/>
</g>
</svg>
