<?xml version="1.0" encoding="utf-8"?>
<!-- Generator: Adobe Illustrator 22.1.0, SVG Export Plug-In . SVG Version: 6.00 Build 0)  -->
<svg version="1.1" id="Layer_2" xmlns="http://www.w3.org/2000/svg" xmlns:xlink="http://www.w3.org/1999/xlink" x="0px" y="0px"
	 viewBox="0 0 256 256" enable-background="new 0 0 256 256" xml:space="preserve">
<g transform="translate(0,-952.36218)">
	<path fill="#49545E" d="M199.1,1007.4c-39.4-39.4-103.8-38.9-143.5,0.8c-4.2,4.1-4.2,11.6-0.1,15.7s11.7,4.1,15.7-0.1
		c31.4-31.4,81.4-31.6,112.3-0.8c18.7,18.7,26,44.4,22,68.8l-9.5-9.5c-4.2-4.4-11.2-4.5-15.6-0.2c-4.4,4.2-4.5,11.2-0.2,15.6
		c0.1,0.1,0.1,0.1,0.2,0.2l27.3,27.3c4.3,4.3,11.3,4.3,15.6,0l27.3-27.3c4.4-4.2,4.5-11.2,0.2-15.6c-0.1-0.1-0.2-0.2-0.2-0.2
		c-4.4-4.2-11.4-4.1-15.6,0.2c0,0,0,0,0,0l-6.9,6.9C231,1060,221.3,1029.7,199.1,1007.4z M199.9,1136.6c-4.1-4-11.6-3.9-15.6,0.2
		c-31.4,31.4-81.4,31.6-112.3,0.8c-18.7-18.7-26-44.4-22-68.8l9.5,9.5c4.2,4.4,11.2,4.5,15.6,0.2c4.4-4.2,4.5-11.2,0.2-15.6
		c-0.1-0.1-0.1-0.1-0.2-0.2l-27.3-27.3c-4.3-4.3-11.3-4.3-15.6,0l-27.3,27.3c-4.4,4.2-4.5,11.2-0.2,15.6c0,0,0,0,0,0
		c4.2,4.4,11.2,4.5,15.6,0.2c0.1-0.1,0.2-0.2,0.2-0.2l6.9-6.9c-3,29.3,6.7,59.6,28.9,81.8c39.4,39.4,103.8,38.9,143.5-0.8
		C204.1,1148.4,204.1,1140.7,199.9,1136.6z"/>
</g>
</svg>
